<?xml version="1.0" encoding="UTF-8" standalone="no"?>
<svg width="10px" height="13px" viewBox="0 0 10 13" version="1.1" xmlns="http://www.w3.org/2000/svg" xmlns:xlink="http://www.w3.org/1999/xlink">
    <!-- Generator: Sketch 48 (47235) - http://www.bohemiancoding.com/sketch -->
    <title>color</title>
    <desc>Created with Sketch.</desc>
    <defs></defs>
    <g id="Artboard" stroke="none" stroke-width="1" fill="none" fill-rule="evenodd" transform="translate(-14.000000, -25.000000)">
        <path d="M19.4673435,25.1916087 C19.4578992,25.1800217 19.4455037,25.1712609 19.4390107,25.1625 L19.4360594,25.1596739 C19.3236136,25.0607609 19.1704395,25 19.0016232,25 C18.8295605,25 18.6763864,25.0610435 18.566892,25.1596739 L18.5639406,25.1625 C18.5537465,25.171508 18.5442755,25.1812384 18.5356078,25.1916087 C18.2968618,25.419659 18.0634519,25.6527749 17.8355518,25.8907826 C17.2916212,26.4625 16.6287519,27.2255435 16.0069061,28.1194348 C14.9627247,29.6226304 14.0404333,31.4881304 14.0029513,33.4324783 C14.0029513,33.4703478 14,33.5110435 14,33.5486304 C14,34.1203478 14.12189,34.6657826 14.3405838,35.1679783 C14.4681245,35.4561061 14.6274148,35.7303767 14.8157483,35.9861304 C15.7067556,37.199087 17.2476463,38 18.9983768,38 C21.7617094,38 24,36.0064783 24,33.548913 C24,29.837413 20.7113302,26.3695217 19.4673435,25.1916087 Z M18.9983768,36.375 C18.5046188,36.375 18.0386034,36.2676087 17.6260071,36.0819348 C19.6860372,35.6639565 21.3272733,34.2045652 21.8712038,32.324087 C22.0335271,32.675087 22.1276747,33.0639565 22.1276747,33.4731739 C22.1244282,35.075 20.7240209,36.375 18.9983768,36.375 Z" id="color" fill="#FFFFFF" fill-rule="nonzero"></path>
    </g>
</svg>