<svg xmlns="http://www.w3.org/2000/svg" width="63" height="109" viewBox="0 0 63 109">
  <defs>
    <linearGradient id="a" x1="63.159%" x2="28.672%" y1="5.654%" y2="84.741%">
      <stop stop-color="#BAD4C3" stop-opacity=".426" offset="0%"/>
      <stop stop-color="#BAD4C3" offset="100%"/>
    </linearGradient>
  </defs>
  <g fill="none" fill-rule="evenodd" transform="translate(0 -3)">
    <path fill="url(#a)" d="M33.0156891,104.591383 C31.6080748,104.474044 24.520193,103.826344 23.613043,103.735175 C22.5629604,103.628114 20.9323657,103.797867 19.7618368,103.721294 C18.9097529,103.665039 25.0719628,106.541786 25.8864976,106.517764 C26.7390136,106.493455 28.170316,106.315884 30.1823848,105.998344 C30.1840324,105.998105 31.3424006,105.807737 33.6521552,105.431037 C33.4409448,105.157709 33.2287994,104.877668 33.0156891,104.591383 Z M27.0474096,108.182497 C23.6087397,108.237855 16.3451895,106.665905 16.0390121,106.334658 C15.7338841,106.002663 15.9128583,105.310093 15.4770146,105.114743 C12.9737073,103.971123 10.364715,104.21246 9.89263432,103.544333 C9.42302051,102.871825 14.6650272,101.433822 15.3527673,101.241724 C16.177637,101.076494 17.7170756,100.665396 19.9390858,100.520622 C21.0083242,100.437606 23.9375861,99.9973806 25.4742879,99.6981935 C27.5087212,99.4904763 29.2169009,99.048852 29.9782768,99.0385152 C29.777223,98.0499685 29.7403022,96.4833525 30.7761307,96.5672723 C34.0841679,96.8394849 40.3847311,97.1396975 40.3778307,97.1313317 C40.3430629,97.0891638 38.3607969,94.8078266 39.3837959,94.9518924 C40.4577646,95.1024881 42.6945373,95.3564903 44.066011,95.6375187 C46.9312934,96.2088787 49.5107066,97.2493204 49.9557332,97.471547 C50.3036866,97.643919 50.9680068,98.2490639 51.6008958,98.851427 C51.7581993,98.6503824 52.0421876,98.198922 52.2522962,97.8633003 C52.4978179,97.4800346 53.3015798,97.3416891 53.9997424,97.5076039 C55.8322811,97.9337844 57.6425746,99.2658604 59.5659817,100.313649 C60.7214437,100.924309 62.1641889,101.665639 62.6755246,102.726319 C63.0041843,103.401975 62.2934162,103.350493 61.5974438,103.163278 C62.5729786,103.960785 61.7511678,104.486967 60.4780574,104.359107 C60.0475259,104.315118 59.5828256,104.585704 59.1990184,104.546939 C58.8294627,104.509325 56.9840877,104.313334 56.2435498,103.606074 C56.6011706,104.561889 56.4420964,104.737899 56.2149407,105.22188 C56.1883458,105.279396 57.5374927,108.039371 57.4112071,108.215619 C57.2852878,108.392978 52.9821801,110.69603 52.1764262,111.058801 C51.9569779,111.159214 51.9606231,111.158292 51.8878758,111.180067 C51.1364982,111.407486 49.6716023,111.870567 48.4647819,109.952508 C48.352811,109.772507 47.8016317,109.118326 48.0979408,108.82791 C48.5490848,108.393267 49.7347618,108.080762 49.3748246,108.25012 C49.2007145,108.332816 40.5275722,110.373135 39.5599356,109.97906 C38.867202,109.691826 38.1617304,109.256275 37.4424284,108.693451 C33.1062052,108.400013 29.4468199,108.142056 27.0474096,108.182497 Z" opacity=".54"/>
    <g transform="rotate(-20 20.014 -6.923)">
      <path fill="#FBD2CF" d="M11.9269169,17.1196919 C13.6448745,17.3959586 14.3072481,13.877792 14.4340782,13.1931821 C14.5609083,12.5085723 14.0070473,10.9795986 14.1479237,10.211787 C14.5708125,7.90693764 13.3807251,5.00326728 11.3902372,5.26154067 C9.39974938,5.51981406 5.77389838,6.31168834 3.85352604,11.0968084 C3.3506656,12.3498194 3.10289229,14.6003456 2.61372802,17.205396 C2.48227733,17.9054383 7.87737756,20.743094 8.02948164,19.9602289 C8.10648033,19.563924 8.27096313,17.3386118 8.80561942,17.1196919 C10.3128815,16.5025294 11.6323255,17.0723183 11.9269169,17.1196919 Z"/>
      <path fill="#F3B8B4" d="M8.00403444,12.3185994 C8.1334021,11.891927 8.57435436,11.6745494 8.92932698,11.8916276 C9.2842996,12.1087058 9.40098853,12.6005316 9.31634685,12.9214019 C9.23170516,13.2422722 8.85886127,13.7659156 8.51991227,13.6526295 C8.18096327,13.5393434 7.87466678,12.7452717 8.00403444,12.3185994 Z"/>
      <path stroke="#7B5B65" stroke-width=".649" d="M14.079294,11.4453281 L14.079294,11.4453281 C14.7756211,11.4453281 15.6933568,10.8155753 15.6933568,9.76393393 C15.6933568,8.71229257 14.8083479,7.69242582 14.1120208,7.69242582" transform="rotate(-6 14.886 9.569)"/>
      <path fill="#7B5B65" d="M14.0351687 12.910793C14.0430298 12.4521671 14.0728519 12.0700252 14.4094189 12.0168483 14.7459859 11.9636713 15.3557099 12.810962 15.3658226 13.2469172 15.3759354 13.6828724 15.0452569 14.1556974 14.5170247 14.1580042 13.9887924 14.1603111 14.0273077 13.369419 14.0351687 12.910793zM12.0390296 8.18562982C12.5058821 6.84655082 10.6640858 6.5095958 11.033507 6.01412255 11.3618225 5.57378087 11.9392551 5.53837508 12.1751599 5.30588439 12.7270798 4.7619521 14.6183081 2.27620589 12.0390296.8629108 9.45975124-.55038429 7.68870973.751391821 6.26509167 1.79157022 3.89155217 3.52581663.924357855 4.47216598.161009441 7.56281822-.13045772 8.74291321.281449221 10.8158042 1.16449258 12.17453 2.04753594 13.5332558 3.26289085 15.4261316 3.5474579 15.9760933 4.15800625 17.1560549 6.88947239 14.7311316 7.00784627 14.0745288 7.07528455 13.7004584 6.69268546 12.4201439 6.77343354 11.9900625 6.91871027 11.2162877 7.60583084 10.8158042 8.92357958 11.1706927 10.0950684 11.4861913 9.77692672 12.7669657 10.3512268 12.7219387 11.0783518 12.6649296 10.9389196 11.372797 10.730335 10.8158042 10.5217504 10.2588113 10.5637147 9.74336564 10.9049747 9.32948875 11.3122273 8.83557668 11.9610265 8.40936729 12.0390296 8.18562982z"/>
      <polygon fill="#7B5B65" points="8.913 10.447 15.911 10.031 15.911 10.504 8.913 10.919" transform="rotate(-7 12.412 10.531)"/>
    </g>
    <g transform="translate(4.904 56.453)">
      <path fill="#927F85" d="M5.96608243,50.1969626 C6.84591601,49.9037 7.04478415,49.2802769 8.78593568,48.9778282 C12.2229814,48.3807922 13.6019708,47.0744965 13.3686417,46.1279087 C13.1972229,45.4324832 11.5933988,45.2400657 9.89121093,44.8851961 C8.87907622,44.6741878 7.67853931,44.8652883 6.87529152,43.7093833 C6.6492659,43.3841236 6.85473334,42.6084883 6.53618719,43.2880539 C5.56321243,45.3637348 4.5733175,45.2497422 3.35979014,45.168592 C2.05218484,45.0811506 1.65422303,43.2711386 1.45428795,44.8154368 C1.22367397,46.5966987 0.837010129,47.7180732 0.879096961,48.8662451 C0.925626879,50.135629 2.2822105,50.4804893 3.26562818,50.5864799 C4.3192604,50.700038 5.08624886,50.4902251 5.96608243,50.1969626 Z" transform="rotate(4 7.135 46.818)"/>
      <path fill="#8C797F" d="M10.3334961,47.2042707 C10.3866711,46.5491975 14.6506113,46.9858505 15.8002884,47.4721126 C20.0618974,49.2745828 23.2742947,49.4884151 23.5337821,50.0537193 C24.1523972,51.4013991 22.6953081,52.7544657 21.5304085,52.9921503 C20.3655089,53.2298349 11.5439923,52.898979 10.9928473,52.74039 C10.4417024,52.581801 9.70799411,52.0814112 9.69077217,50.2825335 C9.67355023,48.4836558 10.280321,47.8593439 10.3334961,47.2042707 Z"/>
      <path fill="#C1A8A7" d="M9.72566118,12.8930328 C9.65254753,12.9400043 9.58632849,12.9980841 9.52700404,13.0672724 C9.13659763,13.5225911 8.56989638,25.0836843 8.27289202,27.1003787 C7.97588766,29.117073 7.34286391,36.2715477 7.06985119,38.5838842 C6.83695793,40.5564208 6.84917047,42.8403742 6.57672177,43.8940865 C6.21832719,45.199455 3.54321145,46.4078597 1.89079199,44.521524 C1.65300993,43.8940865 1.61684474,39.8198404 1.89079199,31.6098208 C1.99873496,28.3748405 2.27776658,25.1998138 2.27641761,22.133524 C2.27439721,17.5410806 1.95222473,13.4365012 1.97522638,11.8045764 C2.03585418,7.50314528 0.282206545,4.96826145 1.04414364,3.12641965 C2.37414902,-0.0886220098 13.4169787,-1.1731205 17.3430967,2.48066755 C18.102517,3.18741165 18.4961147,6.46459419 18.5238898,12.3122152 L18.5239434,12.3122149 C18.5239943,12.3229148 18.5237806,12.3336143 18.5233027,12.3443037 C18.1263821,21.2224772 17.7329801,27.9593534 17.3430967,32.5549322 C16.7579438,39.4521646 15.9367936,47.2612038 15.6926539,47.3528651 C15.5258357,47.4154964 12.9394846,49.7178655 10.6339609,46.8653543 C10.2508165,46.3913086 10.562048,44.1632324 10.6339609,41.8135855 C10.7556969,37.8360365 10.9302395,32.7979595 11.0431034,31.1287898 C11.1612369,29.3816884 11.1612369,26.2466688 11.0431035,21.723731 L11.043056,21.7237322 C11.0429877,21.7211164 11.0429036,21.7185011 11.0428036,21.7158864 L10.7255173,13.4145497 L10.7255121,13.4145499 C10.7118151,13.056188 10.4102018,12.7767818 10.0518398,12.7904788 C9.93590424,12.79491 9.82327319,12.8303224 9.72566118,12.8930328 Z"/>
    </g>
    <path fill="#D3BDBC" d="M4.20292734,23.144256 C4.21810079,23.144256 3.89115934,36.5018648 3.48923652,43.3561258 C3.2831457,46.8707315 8.6241936,48.8831808 8.72215467,49.7262235 C9.05701956,47.6053433 10.0339813,41.2868286 10.0339813,42.4487538 C10.0339813,46.3681714 9.57340587,49.8741109 10.6471433,49.9634187 C17.7695685,50.5558243 23.524526,50.3862867 25.9133143,47.0896329 C26.7772467,45.8973605 25.4567125,25.6496305 25.3466586,25.1579768 C25.1193437,24.1424728 25.4195176,27.020462 26.0841828,28.6953116 C26.5220622,29.7986976 27.7961611,29.9492659 28.1374518,30.0678212 C31.7832169,31.3342623 31.4130022,27.7535165 31.2291185,25.9260791 C31.2113268,25.7492654 31.2119193,25.757806 31.0957211,25.1579768 C30.6696816,22.958707 27.37946,10.2347727 27.0529648,9.62764948 C26.7264697,9.02052626 20.8475471,5.91052224 20.7318207,5.73722819 C19.6406854,4.10331122 19.3269547,3.43195905 16.5749295,1.81256673 C15.1794615,0.991422279 12.8336671,0.108497841 11.9609455,0.527396756 C10.8899193,1.04148023 10.3759992,1.46597771 10.0339813,1.70096096 C9.69196339,1.93594421 4.91661816,1.85058123 4.20292734,2.71212271 C3.7701558,3.2345487 1.85614487,6.84868804 1.02654262,12.1422571 C0.62763598,14.6876213 0.385029998,19.2524018 0.213558973,21.39979 C0.0498362802,23.4501432 4.12646455,23.144256 4.20292734,23.144256 Z" transform="translate(0 20.09)"/>
  </g>
</svg>
