<svg xmlns="http://www.w3.org/2000/svg" width="375" height="253" viewBox="0 0 375 253" xmlns:xlink="http://www.w3.org/1999/xlink">
  <defs>
    <path id="a" d="M45.0226339,95.1775818 C70.8875855,99.1233977 92.759516,81.036809 93.7904424,55.1702668 C94.8021464,29.3962283 74.4845955,5.25964476 48.499074,1.17595218 C22.5929008,-2.9077404 0.924173219,14.6878159 0.0287798468,40.4767271 C-0.866613526,66.2656383 19.2406063,90.8932542 45.0226339,95.1775818 Z"/>
  </defs>
  <g fill="none" fill-rule="evenodd">
    <g transform="translate(254.126 164.049)">
      <path fill="#43BC60" d="M22.0369134,31.1935083 C23.3674551,31.4047874 24.3919504,32.6832883 24.325117,34.0497877 L22.4449771,72.4207698 C22.3778271,73.7886846 21.2439831,74.6972554 19.9125646,74.4487766 L6.6589014,72.6250437 C5.32858381,72.360828 4.30477527,71.0510163 4.37206811,69.7008403 L6.26065738,31.0974654 C6.32795022,29.7486259 7.46045982,28.833097 8.79025145,29.0519114 L22.0369134,31.1935083 Z M33.481745,20.4650647 L46.7352521,22.4034517 C48.0664131,22.5954583 49.0923403,23.871736 49.0266508,25.2545815 L46.5696874,75.8913329 C46.5029922,77.2761589 45.3681102,78.2194503 44.034965,77.9968929 L30.7637652,75.7025149 C29.4316517,75.4642825 28.4062079,74.1571448 28.4732719,72.7842831 L30.952209,22.5898491 C31.0187136,21.2188756 32.1511965,20.2677912 33.481745,20.4650647 Z M58.4656532,5.12527761 L71.7176031,6.91496675 C73.0485279,7.09371103 74.0758342,8.36631922 74.0120805,9.75762721 L70.7240309,79.6367378 C70.6580746,81.0308664 69.5224706,82.0026025 68.1877052,81.8058353 L54.900058,79.7687213 C53.566261,79.5563628 52.5390319,78.2580436 52.6055684,76.870183 L55.9390397,7.30601233 C56.004005,5.92086803 57.1351793,4.94461051 58.4656532,5.12527761 Z M81.7021823,27.2835425 L94.9749258,29.0463577 C96.307991,29.2206677 97.3379084,30.4914308 97.2752118,31.885185 L94.9062018,82.9304212 C94.8412527,84.3263597 93.7052224,85.3203287 92.3689344,85.1491839 L79.0658377,83.3677743 C77.73046,83.1811442 76.7013029,81.8976728 76.767032,80.5023941 L79.1737471,29.4802918 C79.2376953,28.0871289 80.3696744,27.1038319 81.7021823,27.2835425 Z M105.274381,43.0616013 L118.565347,44.7025041 C119.900264,44.8634465 120.932671,46.1190835 120.871176,47.5077336 L119.114541,86.5046798 C119.050854,87.8950649 117.914677,88.9051295 116.576956,88.759402 L103.259325,86.5026603 C101.922461,86.3415762 100.891238,85.0788551 100.955895,83.68362 L102.744731,45.2790047 C102.807551,43.8854605 103.940065,42.8930013 105.274381,43.0616013 Z" opacity=".2"/>
      <path fill="#43BC60" d="M19.124292,26.0897619 C20.4548338,26.301041 21.4793291,27.5795419 21.4124956,28.9460413 L19.5323558,67.3170234 C19.4652057,68.6849382 18.3313617,69.593509 16.9999432,69.3450302 L3.74628004,67.5212973 C2.41596245,67.2570816 1.39215391,65.9472699 1.45944675,64.5970939 L3.34803602,25.993719 C3.41532886,24.6448795 4.54783846,23.7293506 5.87763009,23.948165 L19.124292,26.0897619 Z M30.5691237,15.3613183 L43.8226307,17.2997053 C45.1537917,17.4917119 46.1797189,18.7679896 46.1140295,20.1508351 L43.6570661,70.7875865 C43.5903708,72.1724125 42.4554889,73.1157039 41.1223437,72.8931465 L27.8511438,70.5987685 C26.5190304,70.3605361 25.4935865,69.0533984 25.5606506,67.6805367 L28.0395876,17.4861027 C28.1060923,16.1151292 29.2385752,15.1640448 30.5691237,15.3613183 Z M55.5530319,0.0215312112 L68.8049817,1.81122036 C70.1359065,1.98996463 71.1632128,3.26257282 71.0994591,4.65388081 L67.8114095,74.5329914 C67.7454533,75.92712 66.6098492,76.8988561 65.2750838,76.7020889 L51.9874367,74.6649749 C50.6536397,74.4526164 49.6264105,73.1542972 49.692947,71.7664366 L53.0264183,2.20226593 C53.0913836,0.81712163 54.2225579,-0.159135886 55.5530319,0.0215312112 Z M78.7895609,22.1797961 L92.0623044,23.9426113 C93.3953696,24.1169213 94.425287,25.3876844 94.3625905,26.7814386 L91.9935805,77.8266748 C91.9286313,79.2226133 90.792601,80.2165823 89.456313,80.0454375 L76.1532163,78.2640279 C74.8178386,78.0773978 73.7886816,76.7939264 73.8544106,75.3986477 L76.2611258,24.3765455 C76.325074,22.9833825 77.4570531,22.0000855 78.7895609,22.1797961 Z M102.361759,37.9578549 L115.652726,39.5987577 C116.987643,39.7597001 118.02005,41.0153371 117.958554,42.4039872 L116.20192,81.4009334 C116.138233,82.7913185 115.002056,83.8013831 113.664334,83.6556556 L100.346703,81.3989139 C99.0098394,81.2378298 97.9786168,79.9751087 98.0432738,78.5798736 L99.8321095,40.1752583 C99.8949294,38.7817141 101.027444,37.7892549 102.361759,37.9578549 Z"/>
      <path fill="#8AD4A0" d="M17.6679813,26.8188685 C18.9985231,27.0301477 20.0230184,28.3086485 19.9561849,29.6751479 L18.0760451,68.04613 C18.008895,69.4140449 16.875051,70.3226156 15.5436326,70.0741368 L2.28996936,68.2504039 C0.959651767,67.9861882 -0.0641567673,66.6763765 0.00313607449,65.3262005 L1.89172534,26.7228256 C1.95901818,25.3739862 3.09152778,24.4584573 4.42131942,24.6772716 L17.6679813,26.8188685 Z M29.112813,16.0904249 L42.36632,18.0288119 C43.6974811,18.2208185 44.7234082,19.4970962 44.6577188,20.8799417 L42.2007554,71.5166931 C42.1340601,72.9015191 40.9991782,73.8448105 39.666033,73.6222531 L26.3948332,71.3278751 C25.0627197,71.0896427 24.0372758,69.7825051 24.1043399,68.4096433 L26.5832769,18.2152093 C26.6497816,16.8442359 27.7822645,15.8931515 29.112813,16.0904249 Z M54.0967212,0.750637839 L67.348671,2.54032698 C68.6795958,2.71907126 69.7069022,3.99167945 69.6431484,5.38298744 L66.3550988,75.262098 C66.2891426,76.6562266 65.1535385,77.6279627 63.8187731,77.4311955 L50.531126,75.3940815 C49.197329,75.181723 48.1700999,73.8834039 48.2366363,72.4955432 L51.5701076,2.93137256 C51.635073,1.54622826 52.7662473,0.569970743 54.0967212,0.750637839 Z M77.3332503,22.9089028 L90.6059938,24.6717179 C91.9390589,24.846028 92.9689763,26.116791 92.9062798,27.5105452 L90.5372698,78.5557814 C90.4723206,79.95172 89.3362903,80.9456889 88.0000023,80.7745442 L74.6969056,78.9931345 C73.361528,78.8065044 72.3323709,77.523033 72.3981,76.1277543 L74.8048151,25.1056521 C74.8687633,23.7124892 76.0007424,22.7291921 77.3332503,22.9089028 Z M100.905448,38.6869615 L114.196415,40.3278643 C115.531332,40.4888067 116.563739,41.7444437 116.502244,43.1330938 L114.745609,82.13004 C114.681922,83.5204251 113.545745,84.5304897 112.208024,84.3847622 L98.8903927,82.1280205 C97.5535287,81.9669364 96.5223061,80.7042154 96.5869631,79.3089802 L98.3757988,40.9043649 C98.4386187,39.5108207 99.5711332,38.5183615 100.905448,38.6869615 Z"/>
    </g>
    <g transform="translate(329.854 44.476)">
      <path fill="#43BC60" d="M9.29967665,80.2127098 L38.3126636,83.6184845 C39.20826,83.7243501 39.9027972,84.5470455 39.8640015,85.4559914 L39.4460389,95.2484554 C39.4072432,96.1574014 38.6523578,96.8098414 37.7599058,96.7057209 L8.846189,93.3358049 C7.95195939,93.2316844 7.25183223,92.4081864 7.28252521,91.4964707 L7.61788594,81.6741663 C7.64944998,80.7624505 8.40246223,80.1081186 9.29967665,80.2127098 Z" opacity=".2"/>
      <path fill="#43BC60" d="M4.29278737,75.1094541 L34.6024821,78.6674467 C35.5381063,78.7780439 36.2636852,79.6375089 36.2231556,80.5870793 L35.7865125,90.8172081 C35.7459829,91.7667785 34.9573586,92.4483787 34.0250193,92.3396047 L3.81903152,88.8190735 C2.88483516,88.7102994 2.1534165,87.849996 2.18548126,86.897532 L2.53583063,76.636229 C2.56880539,75.683765 3.35547281,75.0001884 4.29278737,75.1094541 Z" opacity=".585"/>
      <path fill="#AEDFBF" d="M4.20258927,75.83807 L33.2155762,79.2438447 C34.1111726,79.3497103 34.8057098,80.1724057 34.7669141,81.0813517 L34.3489515,90.8738156 C34.3101558,91.7827616 33.5552704,92.4352016 32.6628184,92.3310811 L3.74910163,88.9611651 C2.85487201,88.8570447 2.15474485,88.0335467 2.18543783,87.1218309 L2.52079857,77.2995265 C2.55236261,76.3878107 3.30537486,75.7334789 4.20258927,75.83807 Z"/>
      <path fill="#43BC60" d="M10.0592227,56.8814699 L39.226883,60.352937 C40.1274179,60.4620361 40.8261663,61.2874056 40.7876185,62.1963516 L40.3723261,71.9888155 C40.3337782,72.8977615 39.5744162,73.5475273 38.6762021,73.4401735 L9.58100604,70.004565 C8.68133266,69.8996185 7.9782773,69.0755039 8.01079261,68.1637881 L8.36578614,58.3414837 C8.39917251,57.4297679 9.15739463,56.7760527 10.0592227,56.8814699 Z" opacity=".2"/>
      <path fill="#67C780" d="M2.14056886,49.5908991 L32.6040777,53.2165951 C33.5446212,53.3305412 34.2744133,54.1925799 34.2341528,55.1419081 L33.80041,65.3694275 C33.7601495,66.3187557 32.967051,66.9973891 32.0289313,66.8852657 L1.64110623,63.2970215 C0.701462544,63.1874125 -0.0328278567,62.3266845 0.00113202971,61.3744634 L0.371897054,51.1157778 C0.406766704,50.1635567 1.19867479,49.4807985 2.14056886,49.5908991 Z" opacity=".841"/>
      <path fill="#A0DCB0" d="M2.04951393,50.3195102 L31.2171743,53.7909774 C32.1177092,53.9000764 32.8164576,54.7254459 32.7779097,55.6343919 L32.3626173,65.4268559 C32.3240695,66.3358018 31.5647075,66.9855677 30.6664934,66.8782138 L1.5712973,63.4426053 C0.671623921,63.3376589 -0.0314314342,62.5135442 0.00108387573,61.6018285 L0.356077398,51.7795241 C0.389463772,50.8678083 1.14768589,50.2140931 2.04951393,50.3195102 Z"/>
      <path fill="#43BC60" d="M10.815359,29.9046986 L40.0832084,33.441929 C40.9870008,33.5542637 41.688574,34.3823091 41.6502445,35.2912551 L41.2373046,45.083719 C41.1989751,45.992665 40.4364941,46.6397549 39.5342224,46.5291655 L10.3127964,43.0277937 C9.40938367,42.9220191 8.70475753,42.097286 8.73906559,41.1855702 L9.1133732,31.3632658 C9.14855232,30.4515501 9.91059812,29.7984533 10.815359,29.9046986 Z" opacity=".2"/>
      <path fill="#40B45C" d="M6.49238748,24.8012028 L36.4077309,28.4166875 C37.331518,28.5315073 38.0486121,29.3778717 38.0094346,30.3069263 L37.5873592,40.3160294 C37.5481818,41.245084 36.7688324,41.9064896 35.8465997,41.7934535 L5.97870662,38.2146208 C5.05530769,38.1065061 4.33509307,37.2635274 4.37016013,36.3316417 L4.75274856,26.292038 C4.78870596,25.3601523 5.56761053,24.692607 6.49238748,24.8012028 Z"/>
      <path fill="#80CF95" d="M5.71827162,25.5300588 L34.986121,29.0672892 C35.8899134,29.1796239 36.5914866,30.0076693 36.5531571,30.9166153 L36.1402172,40.7090793 C36.1018877,41.6180252 35.3394067,42.2651151 34.437135,42.1545257 L5.21570898,38.653154 C4.31229629,38.5473793 3.60767015,37.7226463 3.64197821,36.8109305 L4.01628582,26.9886261 C4.05146494,26.0769103 4.81351074,25.4238135 5.71827162,25.5300588 Z"/>
      <path fill="#43BC60" d="M12.3066934,5.11524902 L41.6224436,8.71831262 C42.5278831,8.83388501 43.2303401,9.66460814 43.1914446,10.5735541 L42.772406,20.3660181 C42.7335104,21.274964 41.9685783,21.9193763 41.063858,21.8055491 L11.7684592,18.2383441 C10.8629224,18.1317391 10.1586725,17.3063859 10.1955602,16.3946701 L10.5976587,6.57236572 C10.6354174,5.66064993 11.4006153,5.00817335 12.3066934,5.11524902 Z" opacity=".2"/>
      <path fill="#3EA965" d="M7.98437647,0.0117564365 L37.9470112,3.69432563 C38.8724302,3.81244826 39.5903877,4.66150221 39.5506339,5.59050508 L39.1223488,15.5990506 C39.0825949,16.5280535 38.3007837,17.1866854 37.3760998,17.0703465 L7.43426554,13.4244272 C6.50874705,13.3154698 5.78895708,12.4719043 5.82665869,11.5400705 L6.23763001,1.50102604 C6.27622191,0.56919223 7.05830471,-0.0976819778 7.98437647,0.0117564365 Z"/>
      <path fill="#67C780" d="M7.20960606,0.740609247 L36.5253563,4.34367285 C37.4307957,4.45924524 38.1332528,5.28996837 38.0943572,6.19891433 L37.6753186,15.9913783 C37.6364231,16.9003243 36.871491,17.5447365 35.9667707,17.4309093 L6.67137186,13.8637044 C5.76583505,13.7570994 5.06158514,12.9317461 5.09847278,12.0200303 L5.50057135,2.19772595 C5.53833006,1.28601016 6.30352792,0.633533576 7.20960606,0.740609247 Z"/>
    </g>
    <g transform="translate(259.951 86.764)">
      <path fill="#43BC60" d="M11.9007342,29.9467852 L26.403222,31.7406262 C30.4004383,32.2446115 33.5151757,35.9196434 33.3600962,39.9472735 C33.2050509,43.9740182 29.8384955,46.8359452 25.8393109,46.3394004 L11.3314605,44.5381048 C7.33282604,44.0416342 4.21743843,40.3790626 4.37462823,36.3555466 C4.53346353,32.3329151 7.90307613,29.4618664 11.9007342,29.9467852 Z" opacity=".2"/>
      <path fill="#7ECE95" d="M8.25995749,25.5721454 L22.7624453,27.3659864 C26.7596616,27.8699717 29.874399,31.5450036 29.7193195,35.5726337 C29.5642742,39.5993784 26.1977188,42.4613055 22.1985342,41.9647606 L7.69068378,40.163465 C3.69204934,39.6669945 0.576661728,36.0044229 0.733851535,31.9809069 C0.892686834,27.9582753 4.26229943,25.0872266 8.25995749,25.5721454 Z"/>
      <path fill="#AEDFBF" d="M7.53180215,26.301252 L22.0342899,28.095093 C26.0315063,28.5990783 29.1462436,32.2741103 28.9911642,36.3017404 C28.8361188,40.3284851 25.4695635,43.1904121 21.4703789,42.6938672 L6.96252844,40.8925716 C2.963894,40.3961011 -0.151493612,36.7335295 0.005696195,32.7100135 C0.164531494,28.6873819 3.53414409,25.8163333 7.53180215,26.301252 Z"/>
      <path fill="#F9FAFF" d="M20.9522538,40.8230271 C24.1364481,41.2192887 26.8160913,38.9431119 26.937475,35.7388052 C27.0589124,32.5344985 24.5767605,29.6102552 21.3933877,29.2094735 C18.2100222,28.8110648 15.5297532,31.0902455 15.4072666,34.2980176 C15.2852633,37.5057897 17.7680403,40.4270291 20.9522538,40.8230271 Z"/>
      <path fill="#B9BBC2" d="M12.6282294,4.42434301 L27.0948128,6.21943815 C31.0823062,6.74099408 34.1903702,10.4357327 34.0366878,14.4633628 C33.8830392,18.4901075 30.521104,21.332331 26.5263051,20.8182124 L12.0350123,19.0156626 C8.0410844,18.5360713 4.93704021,14.892646 5.10347993,10.86913 C5.27156311,6.84649841 8.6405663,3.95630659 12.6282294,4.42434301 Z" opacity=".2"/>
      <path fill="#B9BBC2" d="M8.98745273,0.0497032432 L23.4540361,1.84479838 C27.4415295,2.36635431 30.5495935,6.06109292 30.3959111,10.088723 C30.2422625,14.1154677 26.8803273,16.9576913 22.8855284,16.4435726 L8.39423555,14.6410228 C4.4003077,14.1614316 1.29626351,10.5180062 1.46270323,6.49449018 C1.63078641,2.47185864 4.9997896,-0.418333179 8.98745273,0.0497032432 Z"/>
      <path fill="#D5D7DE" d="M8.25929739,0.778809871 L22.7258807,2.57390501 C26.7133742,3.09546094 29.8214381,6.79019955 29.6677557,10.8178296 C29.5141071,14.8445744 26.152172,17.6867979 22.1573731,17.1726792 L7.66608021,15.3701294 C3.67215236,14.8905382 0.568108168,11.2471128 0.734547888,7.22359681 C0.902631067,3.20096527 4.27163426,0.310773449 8.25929739,0.778809871 Z"/>
      <path fill="#F9FAFF" d="M7.73877121,13.9003932 C10.9363274,14.2881446 13.6325483,11.9913701 13.7614446,8.76584275 C13.890935,5.54031536 11.4078081,2.61001907 8.21473922,2.22732435 C5.02172237,1.85178894 2.32377067,4.16245917 2.18957826,7.3818692 C2.05640803,10.6012792 4.54126176,13.5176797 7.73877121,13.9003932 Z"/>
    </g>
    <g transform="translate(261.408 35.726)">
      <path fill="#43BC60" d="M11.8785796,30.6735719 L26.3669061,32.4283022 C30.3589055,32.9211287 33.4630345,36.5869945 33.3006069,40.6146246 C33.138215,44.6413693 29.7771434,47.5142923 25.7915686,47.0313161 L11.3283843,45.2792432 C7.34076078,44.7963394 4.22624137,41.140244 4.373978,37.1111474 C4.52334195,33.0829364 7.88353928,30.1990552 11.8785796,30.6735719 Z" opacity=".2"/>
      <path fill="#3EA965" d="M8.23780289,26.2989321 L22.7261294,28.0536624 C26.7181288,28.5464889 29.8222578,32.2123547 29.6598302,36.2399848 C29.4974383,40.2667295 26.1363667,43.1396525 22.1507919,42.6566763 L7.68760759,40.9046034 C3.69998408,40.4216996 0.585464669,36.7656042 0.7332013,32.7365076 C0.882565251,28.7082967 4.24276258,25.8244155 8.23780289,26.2989321 Z"/>
      <path fill="#67C780" d="M7.50964755,27.0280388 L21.997974,28.782769 C25.9899735,29.2755956 29.0941025,32.9414613 28.9316749,36.9690914 C28.769283,40.9958361 25.4082114,43.8687591 21.4226365,43.385783 L6.95945225,41.6337101 C2.97182874,41.1508062 -0.142690671,37.4947109 0.0050459604,33.4656142 C0.154409911,29.4374033 3.51460724,26.5535221 7.50964755,27.0280388 Z"/>
      <path fill="#FFFFFF" d="M21.5783573,41.6192396 C24.7701841,42.0071354 27.4623944,39.7093814 27.5919681,36.4868318 C27.721595,33.2642823 25.2358849,30.330812 22.0396031,29.9368175 C18.8429659,29.5451149 16.1493192,31.8457701 16.0239242,35.0733997 C15.8990087,38.3010294 18.3861568,41.2315985 21.5783573,41.6192396 Z"/>
      <path fill="#8F9197" d="M13.3609603,4.42321555 L27.8671485,6.19603511 C31.8642395,6.71038999 34.9737764,10.3989544 34.8128578,14.4265844 C34.6519745,18.4533292 31.2835718,21.3035573 27.2874965,20.7990491 L12.7868175,19.0288868 C8.78904473,18.5575398 5.67389451,14.9160595 5.83092827,10.8869629 C5.98958731,6.85875197 9.36114686,3.96025793 13.3609603,4.42321555 Z" opacity=".2"/>
      <path fill="#8F9197" d="M9.72018361,0.0485757779 L24.2263718,1.82139534 C28.2234628,2.33575022 31.3329997,6.02431459 31.1720811,10.0519447 C31.0111978,14.0786894 27.6427951,16.9289175 23.6467198,16.4244093 L9.14604081,14.6542471 C5.14826803,14.1829 2.03311781,10.5414198 2.19015157,6.51232314 C2.34881061,2.4841122 5.72037016,-0.414381838 9.72018361,0.0485757779 Z"/>
      <path fill="#A6A8AD" d="M8.99202827,0.777682406 L23.4982164,2.55050197 C27.4953074,3.06485685 30.6048443,6.75342122 30.4439257,10.7810513 C30.2830425,14.807796 26.9146398,17.6580242 22.9185645,17.1535159 L8.41788547,15.3833537 C4.42011269,14.9120067 1.30496247,11.2705264 1.46199623,7.24142976 C1.62065527,3.21321883 4.99221482,0.31472479 8.99202827,0.777682406 Z"/>
      <path fill="#FFFFFF" d="M8.48708997,13.9109153 C11.6882785,14.292136 14.3856411,11.9881215 14.5126249,8.76037457 C14.6401948,5.53262762 12.1484151,2.60446691 8.94628737,2.22636936 C5.74387558,1.8551475 3.04403011,4.17250725 2.9171811,7.39611245 C2.79134179,10.6197177 5.28560275,13.5345331 8.48708997,13.9109153 Z"/>
    </g>
    <g transform="translate(121.602 129.781)">
      <path fill="#43BC60" d="M106.363942,37.0191416 L106.971726,22.3694036 C107.102487,19.9378978 105.863727,18.404819 103.0536,18.0205016 L12.4337491,4.83627466 C9.44362758,4.5219405 7.08532642,4.85437593 6.90608964,7.28480482 L6.32400397,22.1604936 L3.77144082,87.3933916 C3.73143105,88.415875 4.46965262,89.3036398 5.48228128,89.4508009 L5.48228128,89.4508009 L99.2090964,103.071725 C99.3448361,103.091451 99.4815007,103.104183 99.6185485,103.109868 C101.825789,103.201442 103.689345,101.486355 103.780919,99.2791146 L103.780919,99.2791146 L106.363942,37.0191416 Z" opacity=".2"/>
      <path fill="#43BC60" d="M8.79297241,0.46163489 L99.4128238,13.6458619 C102.22295,14.0301793 103.461711,15.5632581 103.330949,17.9947638 L102.701394,33.169256 L2.66933333,18.1409253 L3.26531295,2.91016505 C3.44454972,0.479736159 5.80285088,0.147300726 8.79297241,0.46163489 Z"/>
      <path fill="#5FC57A" d="M102.744936,32.1197477 L100.140142,94.9044748 L100.140142,94.9044748 C100.048569,97.111715 98.185012,98.8268019 95.9777718,98.7352286 C95.840724,98.7295428 95.7040594,98.7168114 95.5683197,98.6970849 L1.84150458,85.0761611 L1.84150458,85.0761611 C0.828875922,84.9290001 0.090654349,84.0412353 0.130664124,83.0187518 L2.69712122,17.4307824 L102.744936,32.1197477 Z"/>
      <path fill="#67C780" d="M6.72077535,1.49333454 L98.7462588,14.9494602 C101.514592,15.3280618 102.027419,16.3320134 101.898602,18.7273566 L101.360948,31.9166385 L2.75518237,17.5721295 L3.29785262,4.3246328 C3.47442369,1.93035046 3.7751244,1.18367531 6.72077535,1.49333454 Z"/>
      <path fill="#8AD4A0" d="M2.56395407,17.4656051 L101.170741,31.8101141 L100.499846,48.2967165 L1.89456732,34.024976 L2.56395407,17.4656051 Z M1.87240424,34.576955 L100.477483,48.8462699 L99.8065882,65.3328723 L1.21200602,51.1363259 L1.87240424,34.576955 Z M1.19014255,51.6883049 L99.784225,65.8824257 L99.1133301,82.3690281 L0.538732859,68.2476758 L1.19014255,51.6883049 Z M0.517169012,68.7996548 L99.0909669,82.9185815 L98.5542509,96.1078634 C98.3912647,98.8284217 97.6596339,99.3265066 95.1335983,99.0035923 L3.15800284,85.8938447 C0.304383867,85.373152 0.00253619472,84.6782186 0.00253619472,82.0471515 L0.517169012,68.7996548 Z"/>
      <path fill="#FFFFFF" d="M19.692303,26.3130398 C20.2973227,26.4031754 20.7676948,26.9719156 20.7429157,27.5833954 L20.6980736,28.6905774 C20.6733215,29.3020572 20.1628032,29.7245409 19.557792,29.6341771 L8.60340154,27.9895461 C7.99842459,27.898249 7.52801955,27.3294292 7.55273092,26.7190958 L7.59750322,25.6139893 C7.62224596,25.0036559 8.13275035,24.5826456 8.73773814,24.6735978 L19.692303,26.3130398 Z M27.3608174,27.4523119 L94.1961032,37.0896386 C94.8012891,37.1745118 95.2718088,37.7361261 95.2470378,38.344078 L95.2021878,39.4448723 C95.1774187,40.0528241 94.6667323,40.4773235 94.0615383,40.3929738 L27.2262089,30.7758904 C26.6211775,30.6860969 26.150774,30.1173064 26.1755398,29.5055057 L26.220405,28.3977424 C26.245196,27.7859417 26.755779,27.3626753 27.3608174,27.4523119 Z M19.000426,43.4722492 C19.6053794,43.563564 20.0759172,44.1332371 20.0514081,44.7447168 L20.0070549,45.8518989 C19.9825728,46.4633786 19.4723355,46.8849295 18.8674013,46.7933865 L7.91451525,45.1219461 C7.3096273,45.0288669 6.83904097,44.4585794 6.86343913,43.8482459 L6.9076443,42.7431395 C6.93207383,42.132806 7.44226037,41.7132635 8.04716986,41.8059977 L19.000426,43.4722492 Z M26.6681483,44.6241341 L93.5010998,54.1568703 C94.1063043,54.2390386 94.5768544,54.7984371 94.5521018,55.406389 L94.5072848,56.5071832 C94.482534,57.1151351 93.9718557,57.5418503 93.3666541,57.4602055 L26.5348876,47.9477126 C25.929926,47.857108 25.4593753,47.287637 25.4838893,46.6758363 L25.5282987,45.568073 C25.5528379,44.9562723 26.0631687,44.5336865 26.6681483,44.6241341 Z M18.3162286,60.6314585 C18.9210596,60.7239526 19.3917174,61.2945585 19.3674783,61.9060383 L19.323614,63.0132203 C19.2994019,63.6247 18.7894912,64.0453182 18.1846904,63.9525958 L7.23431923,62.254346 C6.62957561,62.1594848 6.15885279,61.5877295 6.18293773,60.9773961 L6.22657578,59.8722896 C6.25069209,59.2619562 6.76051598,58.8438814 7.36529185,58.9383976 L18.3162286,60.6314585 Z M25.9824427,61.7959563 L92.8067124,71.224102 C93.4118786,71.3035655 93.8824131,71.860748 93.8576787,72.4686999 L93.8128949,73.5694942 C93.7881623,74.177446 93.2775383,74.6063771 92.672386,74.5274372 L25.8505298,65.1195348 C25.2456946,65.0281192 24.7750428,64.4579677 24.799305,63.8461669 L24.8432585,62.7384036 C24.8675459,62.1266029 25.3775786,61.7046977 25.9824427,61.7959563 Z M17.639711,77.7906678 C18.2443632,77.8843412 18.7150954,78.45588 18.6911263,79.0673597 L18.6477509,80.1745417 C18.6238088,80.7860215 18.1142703,81.2057068 17.5096591,81.1118051 L6.56281349,79.3867459 C5.95826952,79.2901028 5.487455,78.7168797 5.51122673,78.1065462 L5.55429766,77.0014398 C5.57810076,76.3911063 6.08751719,75.9744993 6.69210412,76.0707975 L17.639711,77.7906678 Z M25.3037006,78.9677784 L92.1129411,88.2913337 C92.7180121,88.3680923 93.1884849,88.923059 93.1637688,89.5310108 L93.119018,90.6318051 C93.0943038,91.239757 92.58378,91.6709039 91.9787339,91.5946689 L25.1731354,82.2913569 C24.5684834,82.1991304 24.0977764,81.6282983 24.1217869,81.0164975 L24.1652845,79.9087342 C24.1893202,79.2969335 24.6990087,78.8757089 25.3037006,78.9677784 Z"/>
    </g>
    <g transform="translate(129.612 14.582)">
      <path fill="#43BC60" d="M49.7180918,99.3040069 C75.7571344,103.276381 97.7762798,85.0680559 98.8141451,59.0274119 C99.8326587,33.0798943 79.3783551,8.78085298 53.217931,4.66967401 C27.1373893,0.558495031 5.32281454,18.2724829 4.42139448,44.2349734 C3.51997442,70.1974638 23.7625313,94.9908425 49.7180918,99.3040069 Z" opacity=".2"/>
      <path fill="#37A461" d="M18.7155115,7.5000307 C27.1769886,1.51738434 38.1492342,-1.19687968 50.0176948,0.673992714 C75.8049821,4.72653227 96.2197099,28.7425198 95.2157239,54.3199374 C94.6085099,69.5552903 86.6267386,82.048499 74.8716225,88.8689119 C85.5390083,81.8296943 92.6429035,69.8444513 93.2177227,55.4219021 C94.2217088,29.8444845 74.0591532,5.89203023 48.2718659,1.83949067 C37.2038773,0.0947998395 26.9152894,2.33761074 18.7155115,7.5000307 Z"/>
      <path fill="#3DB359" d="M93.5566755,54.9697105 C94.5606615,29.3922928 74.0591532,5.89203023 48.2718659,1.83949067 C37.2038773,0.0947998395 26.9152894,2.33761074 18.7155115,7.5000307 C27.1769886,1.51738434 38.1492342,-1.19687968 50.0176948,0.673992714 C75.8049821,4.72653227 96.26452,27.3810036 95.2605339,52.9584213 L93.5566755,54.9697105 Z"/>
      <mask id="b" fill="white">
        <use xlink:href="#a"/>
      </mask>
      <use fill="#67C780" opacity=".947" xlink:href="#a"/>
      <path fill="#FFFFFF" d="M25.4112999,-8.27358833 C0.977247953,1.3146401 -9.82005503,10.0782736 -9.82005503,40.5899681 L47.4175128,51.9697358 L25.4112999,-8.27358833 Z" opacity=".259" mask="url(#b)"/>
      <path fill="#FFFFFF" d="M25.4112999,-8.27358833 C87.4397263,-21.6195199 110.883739,25.8356971 110.883739,56.3473916 L47.4175128,51.9697358 L25.4112999,-8.27358833 Z" opacity=".133" mask="url(#b)"/>
      <path fill="#FFFFFF" d="M30.7349044,97.0777558 C-2.73426278,90.1220276 -9.82005503,61.1329623 -9.82005503,40.5899681 L47.4175128,51.9697358 L30.7349044,97.0777558 Z" opacity=".352" mask="url(#b)"/>
    </g>
    <g transform="translate(0 132.697)">
      <path fill="#43BC60" d="M9.43529795,7.34813673 L93.6043027,19.9830982 C94.5887239,20.2107717 95.4593942,21.427414 95.4355917,22.5842214 L93.2403222,77.3745146 L93.2403222,77.3745146 C93.1739907,79.0300406 91.7781494,80.3183372 90.1226234,80.2520056 C90.012157,80.2475796 89.9020197,80.2370506 89.7927155,80.2204669 L8.57160377,67.8975499 L8.57160377,67.8975499 C7.06384848,67.6687923 5.96762365,66.345279 6.02364018,64.821298 L8.09414795,8.49122959 C8.11932006,7.88274372 8.83093091,7.25732297 9.43529795,7.34813673 Z" opacity=".22"/>
      <path fill="#43BC60" d="M5.25456606,0.61030063 L89.4487979,12.729469 C90.2128501,12.8947851 91.189451,13.8724444 91.1627212,14.4785593 L89.3443552,58.6180022 L2.15237722,45.3127479 L2.85509238,1.53733993 C2.88026449,0.92885406 4.41517223,0.597460116 5.25456606,0.61030063 Z"/>
      <path fill="#5FC57A" d="M2.09036485,43.7463977 L89.4487979,56.7293072 L88.7914504,72.329043 C88.7914504,73.3255402 87.283107,74.7681912 86.568912,74.581999 L2.85509238,61.0990581 C2.09036485,60.9908244 1.44419532,60.3995401 1.4564831,59.6059927 L2.09036485,43.7463977 Z"/>
      <path fill="#67C780" d="M3.61005524,1.5152837 L88.4489079,14.252105 C89.2129601,14.4174211 89.7331403,15.3306576 89.7064105,15.9367725 L87.8880446,60.0762155 L0.69606654,46.7709612 L2.26890523,2.65837656 C2.29407734,2.04989069 3.00568819,1.42446995 3.61005524,1.5152837 Z"/>
      <path fill="#8AD4A0" d="M0.634054173,45.204611 L87.9924872,58.1875204 L87.3351397,73.7872562 C87.3083804,74.3933711 86.5263024,75.2018571 85.8121074,75.015665 L1.39878171,62.5572713 C0.634054173,62.4490376 -0.0121153594,61.8577533 0.00017242218,61.064206 L0.634054173,45.204611 Z"/>
    </g>
    <g transform="translate(2.913 91.867)">
      <path fill="#CEECDC" d="M8.68196021,6.89228422 L91.1800939,19.1528727 L91.1800939,19.1528727 C92.6843438,19.3764292 93.7833575,20.6901878 93.7377378,22.2102746 L93.2352358,38.9540572 C93.1899365,39.8668973 92.4743485,40.8626585 91.1596061,40.6725425 L7.22402442,28.2892598 C6.45929689,28.1810261 5.81312736,27.5897418 5.82541514,26.7961945 L6.38893686,8.80793295 L6.38893686,8.80793295 C6.42352295,7.70390506 7.34655196,6.83695119 8.45057985,6.87153728 C8.52804347,6.873964 8.60530055,6.88089133 8.68196021,6.89228422 Z"/>
      <path fill="#5FC57A" d="M4.00518501,0.369232918 L85.883634,11.7579151 L85.883634,11.7579151 C87.9104961,12.0398365 89.3977134,13.8060736 89.3304046,15.8513411 L88.7914504,32.2281784 C88.7646911,32.8342933 87.9826131,33.6427793 87.2684181,33.4565872 L2.85509238,20.9981935 C2.09036485,20.8899598 0.850497723,20.9045637 0.862785504,20.1110164 C0.755941511,11.8859705 0.755941511,5.93860938 0.862785504,2.26893292 C0.862785504,2.26893292 0.862785504,2.26893292 0.862785504,2.26893292 L0.862785504,2.26893292 C1.32897637,0.972069288 2.64021488,0.179375743 4.00518501,0.369232918 Z"/>
      <path fill="#8AD4A0" d="M2.8567175,1.0594312 L86.2289299,13.4499223 L86.2289299,13.4499223 C87.233949,13.5992848 87.9672636,14.4784705 87.9338437,15.4939781 L87.3351397,33.6863917 C87.3083804,34.2925066 86.5263024,35.1009926 85.8121074,34.9148004 L1.39878171,22.4564068 C0.634054173,22.3481731 -0.0121153594,21.7568888 0.00017242218,20.9633414 L0.563694137,2.97507992 L0.563694137,2.97507992 C0.598280231,1.87105203 1.52130924,1.00409816 2.62533713,1.03868425 C2.70280075,1.04111097 2.78005783,1.0480383 2.8567175,1.0594312 Z"/>
      <path fill="#FFFFFF" d="M78.9047648 25.5006164C80.3108114 25.6680586 81.4955644 24.6560745 81.5513391 23.2383626 81.6073712 21.8206508 80.5129156 20.5345252 79.1064564 20.3684547 77.6998724 20.2054042 76.5140289 21.2232499 76.4583134 22.6391426 76.4030415 24.0550353 77.4985869 25.3352994 78.9047648 25.5006164zM9.19592106 10.9485742L70.2059641 19.8567943C70.8111501 19.9416675 71.2816697 20.5032818 71.2568988 21.1112337L71.2120487 22.2120279C71.1872796 22.8199798 70.6765932 23.2444791 70.0713993 23.1601295L9.06131262 14.2721527C8.45628122 14.1823592 7.98587766 13.6135687 8.01064345 13.001768L8.0555087 11.8940047C8.08029971 11.282204 8.59088271 10.8589376 9.19592106 10.9485742z"/>
    </g>
    <g transform="translate(4.369)">
      <path fill="#43BC60" d="M13.3947256,8.76427152 L95.8720714,18.5130258 C97.4677277,18.7293815 98.6891715,20.2411266 98.6002507,21.8885876 L94.8939493,88.9533348 C94.8009394,90.59817 93.4416252,91.7460782 91.857852,91.5174586 L10.024188,79.928628 C8.43639263,79.7081029 7.20989143,78.2320014 7.28481092,76.6314685 L10.3587535,11.3743919 C10.4347399,9.77132581 11.7940353,8.60230282 13.3947256,8.76427152 Z" opacity=".2"/>
      <path fill="#5FC57A" d="M8.29600811,0.655645089 L89.8994506,10.0385679 C91.4951069,10.2549236 92.8639288,12.2209537 92.775008,13.8684147 L89.0687066,80.9331618 C88.9756967,82.5779971 86.7089405,84.1878158 85.1251673,83.9591962 L4.19894523,71.9084551 C2.61114991,71.68793 1.38464871,70.2118285 1.45956821,68.6112956 L3.53289335,3.31256852 C3.60887977,1.7095024 6.69531778,0.493676382 8.29600811,0.655645089 Z"/>
      <path fill="#8AD4A0" d="M6.11317225,1.47320524 L88.590518,11.2219595 C90.1861743,11.4383152 91.4076182,12.9500603 91.3186973,14.5975213 L87.6123959,81.6622685 C87.519386,83.3071037 86.1600718,84.4550119 84.5762986,84.2263923 L2.74263455,72.6375617 C1.15483923,72.4170366 -0.0716619671,70.9409351 0.00325752671,69.3404023 L3.07720006,4.08332564 C3.15318648,2.48025953 4.51248192,1.31123653 6.11317225,1.47320524 Z"/>
      <path fill="#FFFFFF" d="M50.1376208 53.1519757C54.9001885 53.8695411 58.568051 54.4055431 61.1412081 54.7599816 63.7266758 55.1161159 59.2510423 55.014267 61.2678573 57.2000661 64.05599 60.2218098 61.3632326 59.9249154 58.8329811 59.573394 57.4401787 59.444503 58.780889 61.316091 56.8870339 61.2597485 54.9931788 61.2034061 56.3728972 59.2484495 55.1078442 59.0558704 53.7993352 58.8111525 54.6542754 60.192378 53.0349473 59.9353977 51.4156192 59.6784175 52.0132677 58.5483952 51.103014 58.4994896 50.8937149 58.4704122 50.4825644 58.4132922 49.8695626 58.3281294 49.074782 58.2198088 48.4646728 57.4702586 48.5068551 56.6538538L48.6213698 54.436427C48.6635139 53.6199638 49.342367 53.0448405 50.1376208 53.1519757zM8.85694246 59.9072804L39.1220791 63.8162712C39.917634 63.9213841 40.5288961 64.6670566 40.4873829 65.4816554L40.3745944 67.6940189C40.3330524 68.5085595 39.6548467 69.0824673 38.859768 68.9759854L8.61294543 65.0034185C7.81709261 64.9009391 7.2030027 64.1665393 7.24135821 63.3629847L7.34555111 61.180461C7.38392114 60.3768496 8.06060356 59.8067736 8.85694246 59.9072804zM9.5850978 47.5124677L39.8502344 51.4214585C40.6457894 51.5265714 41.2570515 52.2722439 41.2155382 53.0868427L41.1027497 55.2992062C41.0612078 56.1137469 40.3830021 56.6876546 39.5879234 56.5811727L9.34110077 52.6086058C8.54524795 52.5061264 7.93115804 51.7717266 7.96951355 50.968172L8.07370645 48.7856484C8.11207648 47.982037 8.7887589 47.4119609 9.5850978 47.5124677zM43.7098646 33.1648954L69.6770811 36.5396364C70.4734336 36.6461535 71.0834681 37.3982261 71.0396361 38.2192623L70.9205009 40.449056C70.8766019 41.2700343 70.1957891 41.8484436 69.3998583 41.7411301L43.446606 38.3317287C42.6499245 38.2298105 42.0376634 37.4867091 42.0790952 36.6718071L42.1915814 34.4585166C42.2329842 33.643557 42.9127484 33.0643058 43.7098646 33.1648954zM44.2469816 25.2540929L82.0033377 29.9553684C82.7999266 30.0643118 83.409532 30.8196543 83.3649322 31.6422738L83.2436879 33.8764223C83.199006 34.6989843 82.5173455 35.2768799 81.7211544 35.1673729L43.9839989 30.421467C43.1866818 30.3209223 42.5738736 29.5788902 42.6152665 28.7639112L42.7276499 26.5503583C42.7690137 25.735322 43.4492477 25.1548769 44.2469816 25.2540929zM44.8183874 16.2802006L64.7830306 18.6553008C65.5808652 18.7579953 66.1928803 19.5065063 66.1500124 20.3269252L65.9946411 23.2977973C65.9516998 24.1181458 65.2704828 24.6988943 64.4730928 24.5951409L44.5194471 22.1885204C43.7214615 22.0901175 43.107938 21.3495374 43.1491176 20.5341855L43.2981758 17.5814072C43.3393188 16.7659847 44.0199469 16.1833166 44.8183874 16.2802006zM22.5103539 38.1788148C30.0809405 39.1244938 36.5318841 33.637493 36.9201654 25.9097909 37.3079236 18.1807019 31.4685726 11.2011667 23.8762608 10.3409057 16.2819744 9.50163898 9.82687989 15.0309865 9.46047184 22.6708829 9.09441504 30.3094027 14.9379237 37.2465617 22.5103539 38.1788148z"/>
    </g>
  </g>
</svg>
