<svg xmlns="http://www.w3.org/2000/svg" width="697" height="435" viewBox="0 0 697 435" xmlns:xlink="http://www.w3.org/1999/xlink">
  <defs>
    <linearGradient id="a" x1="11.197%" x2="24.209%" y1="27.436%" y2="58.363%">
      <stop stop-color="#BDD5C6" stop-opacity="0" offset="0%"/>
      <stop stop-color="#BDD6C6" stop-opacity=".939" offset="19.431%"/>
      <stop stop-color="#BAD4C3" offset="100%"/>
    </linearGradient>
    <linearGradient id="b" x1="0%" x2="98.904%" y1="23.166%" y2="88.436%">
      <stop stop-color="#283555" offset="0%"/>
      <stop stop-color="#132244" offset="100%"/>
    </linearGradient>
    <linearGradient id="d" x1="1.31%" x2="96.094%" y1="-2.161%" y2="98.566%">
      <stop stop-color="#323F5E" offset="0%"/>
      <stop stop-color="#132244" offset="100%"/>
    </linearGradient>
    <path id="c" d="M22.3225982,1.39925229 L449.922282,52.5782958 C455.886579,53.4638931 460.523341,59.0242146 460.27875,64.9974774 L447.126822,337.153024 L0.485596708,271.719177 L11.0676411,10.6405911 C11.3217412,4.65838043 16.3607434,0.520824874 22.3225982,1.39925229 Z"/>
    <linearGradient id="e" x1="100%" x2="0%" y1="59.345%" y2="50%">
      <stop stop-color="#D6DFD8" offset="0%"/>
      <stop stop-color="#D4E3D8" offset="32.166%"/>
      <stop stop-color="#DDE8E0" offset="33.892%"/>
      <stop stop-color="#D9E1DB" offset="35.945%"/>
      <stop stop-color="#DCE5DE" offset="100%"/>
    </linearGradient>
    <path id="f" d="M278.641972,5.67732867 L244.67163,0.664925728 C236.514542,-0.538671535 224.902962,0.309532298 218.736439,2.55944201 L4.20596928,80.8327586 C-1.96055347,83.0826683 -0.299393507,85.8738853 7.91627391,87.0671162 L431.132265,148.534357 C439.347933,149.727588 450.938838,148.883043 457.021276,146.648013 L668.626477,68.8923561 C674.708915,66.6573262 673.027079,63.869768 664.869991,62.6661708 L630.161164,57.5448026 L626.298171,58.9631659 L274.737303,7.1030672 L278.641972,5.67732867 Z"/>
    <linearGradient id="g" x1="14.973%" x2="84.187%" y1="0%" y2="100%">
      <stop stop-color="#323F5D" offset="0%"/>
      <stop stop-color="#132244" offset="100%"/>
    </linearGradient>
    <linearGradient id="h" x1="14.973%" x2="84.187%" y1="0%" y2="100%">
      <stop stop-color="#4F5A75" offset="0%"/>
      <stop stop-color="#253250" offset="100%"/>
    </linearGradient>
    <linearGradient id="i" x1="98.703%" x2="0%" y1="100%" y2="0%">
      <stop stop-color="#192744" offset="0%"/>
      <stop stop-color="#404C69" offset="100%"/>
    </linearGradient>
    <linearGradient id="j" x1="46.675%" x2="45.053%" y1="34.605%" y2="95.045%">
      <stop stop-color="#DBE8DE" offset="0%"/>
      <stop stop-color="#B4C1B7" offset="100%"/>
    </linearGradient>
    <path id="k" d="M189.727789,112.280528 L256.770789,121.847218 L256.770789,121.847218 C257.182525,121.90597 257.468674,122.287376 257.409922,122.699112 C257.381678,122.89704 257.275886,123.075614 257.115862,123.195472 L257.115862,123.195472 L257.115862,123.195472 C256.183015,123.894175 255.011022,124.194135 253.857209,124.029492 L186.814208,114.462802 L186.814208,114.462802 C186.402473,114.40405 186.116324,114.022644 186.175076,113.610908 C186.20332,113.41298 186.309112,113.234406 186.469136,113.114548 L186.469136,113.114548 L186.469136,113.114548 C187.401983,112.415845 188.573976,112.115885 189.727789,112.280528 Z"/>
    <filter id="l" width="111.2%" height="167.6%" x="-5.6%" y="-33.8%" filterUnits="objectBoundingBox">
      <feGaussianBlur stdDeviation="2.5" in="SourceAlpha" result="shadowBlurInner1"/>
      <feOffset dx="3" dy="3" in="shadowBlurInner1" result="shadowOffsetInner1"/>
      <feComposite in="shadowOffsetInner1" in2="SourceAlpha" operator="arithmetic" k2="-1" k3="1" result="shadowInnerInner1"/>
      <feColorMatrix values="0 0 0 0 0.1056637 0 0 0 0 0.133583121 0 0 0 0 0.117081833 0 0 0 0.0171535326 0" in="shadowInnerInner1"/>
    </filter>
  </defs>
  <g fill="none" fill-rule="evenodd" opacity=".9">
    <path fill="url(#a)" d="M327.526702,434.565488 C321.096812,434.291197 313.533571,432.191773 304.836979,428.267217 L6.55555556,327.096967 L521.837528,277.148829 L766.775118,370.549172 L352.576623,432.531792 C342.306565,434.161881 333.956591,434.83978 327.526702,434.565488 Z" transform="matrix(-1 0 0 1 773.33 0)"/>
    <g transform="translate(227.988)">
      <path fill="#DEDEDE" d="M24.8733096,0.182823943 C307.666793,33.6343524 450.497025,50.7517629 453.364005,51.5350554 C457.664474,52.7099943 461.890189,57.8026585 461.837841,64.2932339 L448.753538,337.800993 C448.465286,345.256677 442.39904,351.380584 434.931627,351.09299 C434.389279,351.072106 433.848683,351.018672 433.312767,350.932978 L1.89738565,281.424344 L11.8602618,8.07023352 C12.1142302,2.08844962 21.781333,-0.239756434 24.8733096,0.182823943 Z"/>
      <path fill="url(#b)" d="M1.48759622,242.016687 L448.54549,309.09124 L446.852498,341.233066 C446.607907,347.205252 441.569386,351.332455 435.598676,350.451312 L10.4538252,287.357429 C4.48549998,286.466752 -0.146770518,280.850204 0.107329558,274.812636 L1.48759622,242.016687 Z"/>
      <use fill="#F5FBFF" xlink:href="#c"/>
      <path stroke="url(#d)" stroke-width="19.89" d="M20.9960172,11.2563321 L10.7851715,263.176759 L437.722371,325.723926 L450.34191,64.5905866 C450.376935,63.7352218 449.461951,62.6153 448.533865,62.4282664 L21.0065676,11.2578866 L20.9960172,11.2563321 Z"/>
    </g>
    <g transform="translate(0 280.786)">
      <path fill="url(#e)" d="M239.877268,7.46150802 L672.406112,66.433609 L671.815403,72.3062911 L671.815403,72.3062911 C671.581649,74.6302205 670.020535,76.6072956 667.814181,77.3736453 L459.071456,149.87785 C452.259336,153.137575 439.937408,153.794579 431.215508,152.144403 L6.06690539,89.5047609 C0.248614587,88.413725 -1.41561983,83.5065137 3.18612732,81.8232466 L221.009512,9.13713848 C225.557994,7.47633517 234.006178,6.72526805 239.877268,7.46150802 Z"/>
      <use fill="#F8F8F8" xlink:href="#f"/>
      <path fill="#E8E8E8" d="M222.992628,67.7081397 L415.057359,95.7891209 C417.514681,96.1483958 418.021856,96.9841988 416.190166,97.6559392 L329.899243,129.30163 C328.067553,129.973371 324.584976,130.227673 322.12069,129.869631 L129.511712,101.88496 C127.047426,101.526918 126.543706,100.690503 128.386621,100.016776 L215.206359,68.2775054 C217.049274,67.6037785 220.535306,67.3488648 222.992628,67.7081397 Z"/>
      <path fill="#F0F0F0" d="M223.138403,68.7745622 L413.733104,96.3512364 C416.129075,96.7015412 416.623587,97.5164769 414.837629,98.171446 L330.266692,129.20356 C328.480733,129.858529 325.085106,130.106483 322.682345,129.757379 L131.629389,102.058298 C129.226628,101.709194 128.735484,100.893663 130.532388,100.236757 L215.546532,69.3297125 C217.343436,68.6728066 220.742432,68.4242573 223.138403,68.7745622 Z"/>
      <path fill="#E9E9E9" d="M238.556389,7.53368444 L641.216241,66.8869988 C643.664493,67.2478788 644.169092,68.0841377 642.343294,68.7548355 L530.968303,109.66788 C529.142505,110.338577 525.670512,110.591007 523.21339,110.231696 L119.09473,51.1365347 C116.637608,50.7772243 116.144522,49.9389281 117.993392,49.2641475 L230.775762,8.10205164 C232.624632,7.42727113 236.108137,7.17280447 238.556389,7.53368444 Z"/>
      <path fill="url(#g)" d="M162.293519,46.6440644 C163.930553,46.8837899 164.259318,47.4426469 163.027836,47.8923063 L148.52189,53.1889612 C147.290408,53.6386206 144.964255,53.8089405 143.326281,53.5693812 L122.565585,50.5330582 C121.594833,50.3626885 121.056871,49.7510323 120.951698,48.6980896 L136.349022,43.9860717 C137.581498,43.5362364 139.907696,43.3659087 141.54473,43.6056342 L162.293519,46.6440644 Z M457.222727,89.8331791 C458.859761,90.0729046 459.197435,90.6301849 457.976944,91.0778995 L443.600456,96.3516452 C442.379965,96.7993598 440.062721,96.9681029 438.424747,96.7285437 L417.664051,93.6922207 C416.967793,93.3764466 416.873272,92.8109025 417.380489,91.9955884 L431.29813,87.1716649 C432.519616,86.7237744 434.836904,86.5550234 436.473938,86.7947489 L457.222727,89.8331791 Z M190.452589,50.7676482 C192.089623,51.0073738 192.419239,51.5660801 191.188806,52.0155539 L176.69522,57.3100215 C175.464788,57.7594952 173.139485,57.9296645 171.501511,57.6901052 L150.740815,54.6537823 C149.977598,54.4214051 149.758899,53.9331314 150.084717,53.1889612 L164.509992,48.1093193 C165.741419,47.6596697 168.066766,47.4894925 169.7038,47.7292181 L190.452589,50.7676482 Z M485.381797,93.9567629 C487.018831,94.1964884 487.357356,94.7536182 486.137914,95.201147 L471.773787,100.472705 C470.554344,100.920234 468.237951,101.088827 466.599977,100.849268 L445.839281,97.8129447 C445.230943,97.6037803 445.087606,97.0201705 445.409269,96.0621154 L459.4591,91.2949125 C460.679536,90.8472077 462.995974,90.6786072 464.633008,90.9183327 L485.381797,93.9567629 Z M218.611659,54.8912321 C220.248693,55.1309576 220.579159,55.6895134 219.349776,56.1388015 L204.868551,61.4310818 C203.639168,61.8803698 201.314715,62.0503886 199.676742,61.8108293 L178.916046,58.7745063 C178.010161,58.5355287 177.764154,58.1196664 178.178027,57.5269194 L192.670962,52.2325669 C193.90134,51.783103 196.225836,51.6130764 197.86287,51.8528019 L218.611659,54.8912321 Z M514.281895,98.1888621 C515.918929,98.4285876 516.258327,98.9855629 515.039962,99.4329012 L500.688521,104.702215 C499.470155,105.149553 497.154635,105.317991 495.516661,105.078432 L474.014512,101.933669 C473.307356,101.781086 473.051656,101.294098 473.24741,100.472705 L487.62007,95.4181601 C488.839457,94.970641 491.155044,94.802191 492.792078,95.0419165 L514.281895,98.1888621 Z M508.41611,101.864932 L480.990663,97.8511743 L479.886,98.2565892 L507.312373,102.270183 L508.41611,101.864932 Z M542.440965,102.312446 C544.077999,102.552171 544.418248,103.108996 543.200932,103.556149 L528.861851,108.823275 C527.644535,109.270428 525.329865,109.438715 523.691892,109.199156 L502.931195,106.162833 C502.207502,105.920059 502.017539,105.360281 502.361309,104.483497 L516.522118,99.6499142 C517.740428,99.2025857 520.055142,99.0342902 521.692176,99.2740157 L542.440965,102.312446 Z M253.439982,59.9914541 C255.077017,60.2311797 255.408535,60.7895493 254.18045,61.2386077 L239.714512,66.5281826 C238.486427,66.977241 236.163027,67.1470736 234.525053,66.9075143 L207.091276,62.8952304 C206.301696,62.6295313 206.154313,62.0773237 206.649127,61.2386077 L220.831932,56.3558145 C222.061261,55.9065362 224.384906,55.7366602 226.021941,55.9763857 L253.439982,59.9914541 Z M429.063656,85.7095953 C430.700691,85.9493208 431.037514,86.5067516 429.815973,86.9546519 L415.427126,92.2305849 C414.205585,92.6784852 411.88749,92.8473789 410.249516,92.6078196 L382.815739,88.5955357 C381.997461,88.3638896 381.846031,87.7636273 382.361448,86.7947489 L396.467456,82.0718587 C397.69024,81.6237385 400.00858,81.4548013 401.645614,81.6945268 L429.063656,85.7095953 Z M394.235333,80.6093732 C395.872367,80.8490987 396.208139,81.4067157 394.9853,81.8548456 L380.581164,87.133484 C379.358326,87.581614 377.039179,87.7506939 375.401205,87.5111346 L241.939587,67.9919154 C240.847605,67.8322092 240.65152,67.2118887 241.351334,66.1309538 L255.662606,61.4556207 C256.890636,61.0065721 259.21323,60.8368822 260.850264,61.0766078 L394.235333,80.6093732 Z M245.882392,48.3384574 C247.518404,48.5783639 247.848243,49.1370308 246.619108,49.5862748 L232.140811,54.8780371 C230.911676,55.3272811 228.588254,55.4971176 226.951303,55.2573774 L206.203565,52.2187613 C204.566613,51.9790211 204.236819,51.4203464 205.466948,50.9709264 L219.956955,45.677092 C221.187084,45.227672 223.51055,45.0578277 225.146562,45.2977342 L245.882392,48.3384574 Z M217.740909,44.2117616 C219.37692,44.451668 219.705909,45.0104854 218.475725,45.4599152 L203.985066,50.7538647 C202.754882,51.2032945 200.43061,51.3732814 198.793658,51.1335412 L143.326281,42.8739486 C142.251752,42.51264 141.54473,41.5375422 142.116511,41.3752506 L157.004649,36.4470769 C158.237125,35.9972416 160.562494,35.8270606 162.198506,36.066967 L217.740909,44.2117616 Z M274.023876,52.4651533 C275.659888,52.7050598 275.990578,53.2635761 274.762492,53.7126345 L260.296555,59.0022094 C259.068469,59.4512678 256.745898,59.6209537 255.108947,59.3812135 L234.361209,56.3425974 C232.724258,56.1028572 232.393612,55.5443331 233.622692,55.0950988 L248.100339,49.8034517 C249.329419,49.3542174 251.652034,49.1845236 253.288046,49.4244301 L274.023876,52.4651533 Z M302.16536,56.5918492 C303.801372,56.8317557 304.132912,57.3901215 302.905876,57.8389942 L288.452299,63.1263818 C287.225263,63.5752545 284.903542,63.7447899 283.266591,63.5050497 L262.518853,60.4664336 C260.881902,60.2266934 260.550406,59.6683197 261.778436,59.2192711 L276.243723,53.9298113 C277.471753,53.4807627 279.793518,53.3112195 281.42953,53.551126 L302.16536,56.5918492 Z M330.306844,60.7185451 C331.942856,60.9584516 332.275247,61.5166669 331.04926,61.9653538 L316.608043,67.2505542 C315.382056,67.6992412 313.061186,67.868626 311.424235,67.6288858 L290.676497,64.5902697 C289.039546,64.3505295 288.707199,63.7923064 289.93418,63.3434435 L304.387107,58.056171 C305.614088,57.6073081 307.935002,57.4379154 309.571014,57.6778219 L330.306844,60.7185451 Z M358.448328,64.845241 C360.08434,65.0851475 360.417581,65.6432122 359.192644,66.0917135 L344.763787,71.3747265 C343.53885,71.8232278 341.218831,71.9924622 339.581879,71.752722 L318.834142,68.7141059 C317.19719,68.4743657 316.863993,67.9162931 318.089925,67.4676159 L332.530491,62.1825307 C333.756422,61.7338535 336.076486,61.5646113 337.712498,61.8045178 L358.448328,64.845241 Z M386.589812,68.9719369 C388.225823,69.2118434 388.559916,69.7697576 387.336027,70.2180732 L372.919532,75.4988989 C371.695643,75.9472145 369.376475,76.1162983 367.739524,75.8765581 L346.991786,72.837942 C345.354834,72.5982018 345.020786,72.0402798 346.245669,71.5917882 L360.673874,66.3088903 C361.898757,65.8603988 364.21797,65.6913072 365.853981,65.9312136 L386.589812,68.9719369 Z M414.731295,73.0986328 C416.367307,73.3385393 416.70225,73.896303 415.479411,74.3444329 L401.075276,79.6230713 C399.852437,80.0712012 397.534119,80.2401344 395.897168,80.0003942 L375.14943,76.9617781 C373.512479,76.722038 373.17758,76.1642664 374.401413,75.7159606 L388.817258,70.43525 C390.041091,69.9869442 392.359453,69.8180031 393.995465,70.0579095 L414.731295,73.0986328 Z M442.872779,77.2253287 C444.508791,77.4652352 444.844585,78.0228483 443.622795,78.4707925 L429.23102,83.7472436 C428.009231,84.1951879 425.691763,84.3639706 424.054812,84.1242304 L403.307074,81.0856143 C401.670123,80.8458741 401.334373,80.2882531 402.557157,79.840133 L416.960642,74.5616097 C418.183426,74.1134896 420.500937,73.944699 422.136949,74.1846054 L442.872779,77.2253287 Z M471.014263,81.3520246 C472.650275,81.5919311 472.986919,82.1493937 471.766179,82.5971522 L457.386764,87.871416 C456.166024,88.3191745 453.849407,88.4878067 452.212456,88.2480665 L431.464718,85.2094504 C429.827767,84.9697102 429.491167,84.4122398 430.712901,83.9643053 L445.104026,78.6879694 C446.32576,78.2400349 448.642421,78.0713949 450.278433,78.3113013 L471.014263,81.3520246 Z M499.155747,85.4787205 C500.791759,85.718627 501.129254,86.2759391 499.909563,86.7235119 L485.542508,91.9955884 C484.322818,92.4431612 482.007052,92.6116429 480.3701,92.3719027 L459.622362,89.3332866 C457.985411,89.0935464 457.647961,88.5362265 458.868645,88.0884777 L473.24741,82.814329 C474.468095,82.3665803 476.783905,82.1980908 478.419917,82.4379972 L499.155747,85.4787205 Z M280.545821,42.8739486 C282.180811,43.1140359 282.510246,43.6727742 281.281636,44.1219254 L266.809518,49.412594 C265.580908,49.8617452 263.258741,50.0313597 261.622812,49.7914386 L240.888032,46.7505294 C239.252103,46.5106083 238.922712,45.9518622 240.152316,45.5025351 L254.636144,40.2097943 C255.865748,39.7604671 258.18796,39.5908448 259.822949,39.8309322 L280.545821,42.8739486 Z M252.421924,38.7441406 C254.056913,38.9842279 254.385498,39.5431168 253.155838,39.9924537 L238.671361,45.2853096 C237.441701,45.7346465 235.118683,45.9044115 233.482754,45.6644904 L212.747974,42.6235812 C211.112045,42.3836601 210.783505,41.8247634 212.014158,41.3752506 L226.510346,36.0803225 C227.741,35.6308097 230.064062,35.4610368 231.699052,35.7011242 L252.421924,38.7441406 Z M224.298026,34.6143326 C225.933015,34.85442 226.26075,35.4134593 225.030041,35.8629819 L210.533203,41.1580251 C209.302494,41.6075477 206.978625,41.7774633 205.342696,41.5375422 L163.92266,35.445301 C162.691848,34.9653592 161.917497,33.6636453 163.027836,33.4208538 L177.660277,28.9080821 C178.892753,28.4582467 181.217293,28.2882124 182.852282,28.5282998 L224.298026,34.6143326 Z M308.669719,47.0037566 C310.304708,47.2438439 310.634994,47.8024317 309.407434,48.2513972 L294.947676,53.5398785 C293.720116,53.988844 291.398798,54.158308 289.76287,53.9183869 L269.02809,50.8774776 C267.392161,50.6375565 267.061919,50.078961 268.290474,49.6298195 L282.761941,44.339266 C283.990496,43.8901246 286.311857,43.7206528 287.946847,43.9607401 L308.669719,47.0037566 Z M336.793616,51.1335645 C338.428606,51.3736519 338.759743,51.9320891 337.533231,52.3808689 L323.085834,57.6671629 C321.859323,58.1159428 319.538856,58.2852562 317.902927,58.0453351 L297.168148,55.0044259 C295.532219,54.7645048 295.201127,54.2060597 296.428632,53.757104 L310.887739,48.4687378 C312.115244,48.019782 314.435755,47.8504608 316.070745,48.0905481 L336.793616,51.1335645 Z M364.917514,55.2633725 C366.552503,55.5034599 366.884491,56.0617466 365.659029,56.5103407 L351.223992,61.7944474 C349.99853,62.2430415 347.678914,62.4122044 346.042985,62.1722833 L325.308206,59.1313741 C323.672277,58.891453 323.340334,58.3331585 324.56679,57.8843884 L339.013536,52.5982096 C340.239993,52.1494395 342.559653,51.9802687 344.194642,52.2203561 L364.917514,55.2633725 Z M393.041412,59.3931805 C394.676401,59.6332679 395.009239,60.191404 393.784826,60.6398125 L379.36215,65.9217318 C378.137737,66.3701403 375.818972,66.5391527 374.183043,66.2992315 L353.448264,63.2583223 C351.812335,63.0184012 351.479541,62.4602572 352.704948,62.0116729 L367.139334,56.7276813 C368.364741,56.279097 370.68355,56.1100767 372.31854,56.3501641 L393.041412,59.3931805 Z M421.165309,63.5229885 C422.800299,63.7630759 423.133987,64.3210615 421.910624,64.7692842 L407.500308,70.0490163 C406.276945,70.497239 403.95903,70.6661009 402.323101,70.4261798 L381.588322,67.3852706 C379.952393,67.1453494 379.618748,66.587356 380.843106,66.1389573 L395.265131,60.8571531 C396.489489,60.4087544 398.807448,60.2398847 400.442437,60.4799721 L421.165309,63.5229885 Z M449.289207,67.6527965 C450.924196,67.8928838 451.258736,68.4507189 450.036421,68.898756 L435.638466,74.1763007 C434.416152,74.6243378 432.099088,74.7930491 430.463159,74.553128 L409.72838,71.5122188 C408.092451,71.2722977 407.757956,70.7144548 408.981264,70.2662418 L423.390929,64.9866248 C424.614237,64.5384119 426.931345,64.3696927 428.566335,64.6097801 L449.289207,67.6527965 Z M477.413104,71.7826045 C479.048094,72.0226918 479.383484,72.5803764 478.162219,73.0282277 L463.776624,78.3035852 C462.555359,78.7514366 460.239146,78.9199974 458.603217,78.6800762 L437.868438,75.639167 C436.232509,75.3992459 435.897163,74.8415535 437.119422,74.3935262 L451.516727,69.1160966 C452.738986,68.6680693 455.055243,68.4995007 456.690232,68.7395881 L477.413104,71.7826045 Z M505.537002,75.9124124 C507.171991,76.1524998 507.508232,76.7100338 506.288017,77.1576995 L491.914782,82.4308696 C490.694567,82.8785353 488.379204,83.0469456 486.743275,82.8070245 L466.008496,79.7661152 C464.372567,79.5261941 464.03637,78.9686523 465.25758,78.5208107 L479.642524,73.2455684 C480.863734,72.7977268 483.179141,72.6293087 484.81413,72.869396 L505.537002,75.9124124 Z M533.6609,80.0422204 C535.295889,80.2823078 535.63298,80.8396913 534.413814,81.2871713 L520.05294,86.5581541 C518.833774,87.0056341 516.519262,87.1738938 514.883333,86.9339727 L494.148553,83.8930635 C492.512625,83.6531424 492.175577,83.0957511 493.395738,82.6480951 L507.768322,77.3750401 C508.988482,76.9273842 511.303038,76.7591167 512.938028,76.999204 L533.6609,80.0422204 Z M583.247772,87.323724 C584.882761,87.5638114 585.221352,88.1209294 584.004036,88.568082 L569.664955,93.8352083 C568.447639,94.2823609 566.134627,94.4503552 564.498698,94.2104341 L522.288611,88.0200117 C520.652682,87.7800906 520.314785,87.2228498 521.533896,86.7753796 L535.894119,81.5045119 C537.11323,81.0570417 539.426936,80.8889246 541.061925,81.129012 L583.247772,87.323724 Z M294.48175,34.3672422 C296.115717,34.6075105 296.444122,35.1664311 295.215264,35.6156263 L280.740219,40.906813 C279.51136,41.3560082 277.18982,41.5255117 275.554913,41.2854096 L254.833092,38.2422073 C253.198185,38.0021052 252.869824,37.4431768 254.099677,36.9938057 L268.586432,31.7005469 C269.816285,31.2511758 272.13787,31.0816644 273.771837,31.3219327 L294.48175,34.3672422 Z M266.375439,30.2343222 C268.009406,30.4745905 268.33696,31.0336616 267.107052,31.4830425 L252.619647,36.7764164 C251.389739,37.2257973 249.067348,37.3954513 247.432441,37.1553493 L226.71062,34.112147 C225.075714,33.8720449 224.748203,33.312966 225.979106,32.8634092 L240.478221,27.567963 C241.709123,27.1184062 244.031558,26.9487444 245.665525,27.1890127 L266.375439,30.2343222 Z M238.269128,26.1014021 C239.903095,26.3416704 240.229798,26.900892 238.998841,27.3504586 L224.499075,32.6460199 C223.268118,33.0955865 220.944876,33.265391 219.30997,33.025289 L184.507643,27.866086 C183.278943,27.5570571 183.278943,26.7065774 183.278943,26.2371802 L198.315904,21.3690873 C199.54838,20.9192519 201.872091,20.7493643 203.506058,20.9896325 L238.269128,26.1014021 Z M322.588062,38.5001623 C324.222029,38.7404306 324.551284,39.2992007 323.323475,39.7482102 L308.860791,45.0372095 C307.632981,45.486219 305.312291,45.655572 303.677385,45.4154699 L282.955564,42.3722676 C281.320657,42.1321656 280.991445,41.5733877 282.220249,41.1242022 L296.694643,35.8331307 C297.923447,35.3839453 300.244181,35.2145845 301.878148,35.4548528 L322.588062,38.5001623 Z M350.694373,42.6330824 C352.32834,42.8733507 352.658446,43.4319702 351.431686,43.880794 L336.981362,49.167606 C335.754602,49.6164299 333.434763,49.7856323 331.799857,49.5455303 L311.078035,46.5023279 C309.443129,46.2622259 309.113066,45.7035985 310.340821,45.2545988 L324.802855,39.9657146 C326.030609,39.5167148 328.350492,39.3475046 329.984459,39.5877729 L350.694373,42.6330824 Z M378.800684,46.7660025 C380.434651,47.0062707 380.765608,47.5647397 379.539898,48.0133779 L365.101934,53.2980026 C363.876223,53.7466407 361.557235,53.9156926 359.922328,53.6755906 L339.200507,50.6323882 C337.5656,50.3922862 337.234687,49.8338094 338.461392,49.3849953 L352.911066,44.0982984 C354.137771,43.6494844 356.456804,43.4804246 358.090771,43.7206929 L378.800684,46.7660025 Z M406.906996,50.8989225 C408.540963,51.1391908 408.87277,51.6975093 407.648109,52.1459617 L393.222506,57.4283991 C391.997844,57.8768515 389.679706,58.0457529 388.0448,57.8056509 L367.322979,54.7624485 C365.688072,54.5223465 365.356309,53.9640202 366.581964,53.5153919 L381.019277,48.2308823 C382.244933,47.7822539 384.563115,47.6133447 386.197082,47.853613 L406.906996,50.8989225 Z M435.013307,55.0318426 C436.647274,55.2721109 436.979932,55.8302788 435.75632,56.2785456 L421.343077,61.5587957 C420.119465,62.0070624 417.802178,62.1758132 416.167272,61.9357112 L395.44545,58.8925089 C393.810544,58.6524068 393.47793,58.0942311 394.702536,57.6457884 L409.127489,52.3634661 C410.352095,51.9150235 412.669426,51.7462648 414.303393,51.9865331 L435.013307,55.0318426 Z M463.119618,59.1647627 C464.753585,59.405031 465.087094,59.9630484 463.864532,60.4111294 L449.463649,65.6891922 C448.241086,66.1372732 445.92465,66.3058736 444.289743,66.0657715 L423.567922,63.0225692 C421.933015,62.7824671 421.599551,62.2244419 422.823107,61.7761849 L437.2357,56.49605 C438.459257,56.047793 440.775738,55.8791849 442.409705,56.1194532 L463.119618,59.1647627 Z M491.22593,63.2976827 C492.859897,63.537951 493.194256,64.0958179 491.972743,64.5437133 L477.584221,69.8195887 C476.362707,70.2674841 474.047121,70.4359339 472.412215,70.1958318 L451.690394,67.1526295 C450.055487,66.9125275 449.721172,66.3546528 450.943679,65.9065815 L465.343911,60.6286338 C466.566419,60.1805625 468.882049,60.0121049 470.516016,60.2523732 L491.22593,63.2976827 Z M519.332241,67.4306028 C520.966208,67.6708711 521.301418,68.2285874 520.080954,68.6762971 L505.704792,73.9499853 C504.484328,74.3976949 502.169593,74.5659942 500.534687,74.3258921 L479.812865,71.2826898 C478.177959,71.0425878 477.842793,70.4848636 479.064251,70.036978 L493.452123,64.7612177 C494.673581,64.3133321 496.98836,64.145025 498.622327,64.3852933 L519.332241,67.4306028 Z M547.438552,71.5635229 C549.072519,71.8037912 549.40858,72.361357 548.189166,72.8088809 L533.825364,78.0803818 C532.605949,78.5279058 530.292065,78.6960545 528.657158,78.4559525 L507.935337,75.4127501 C506.30043,75.1726481 505.964414,74.6150745 507.184822,74.1673746 L521.560334,68.8938015 C522.780743,68.4461016 525.094672,68.2779451 526.728639,68.5182134 L547.438552,71.5635229 Z M575.544864,75.696443 C577.178831,75.9367112 577.515742,76.4941265 576.297377,76.9414648 L561.945936,82.2107784 C560.72757,82.6581166 558.414537,82.8261148 556.77963,82.5860128 L536.057809,79.5428104 C534.422902,79.3027084 534.086035,78.7452853 535.305394,78.2977711 L549.668545,73.0263854 C550.887905,72.5788712 553.200983,72.4108651 554.83495,72.6511334 L575.544864,75.696443 Z M603.651175,79.829363 C605.285142,80.0696313 605.622904,80.626896 604.405588,81.0740486 L590.066507,86.3411749 C588.849191,86.7883275 586.537008,86.9561751 584.902102,86.7160731 L564.18028,83.6728708 C562.545374,83.4327687 562.207656,82.8754962 563.425966,82.4281677 L577.776757,77.1589692 C578.995067,76.7116407 581.307294,76.5437852 582.941261,76.7840535 L603.651175,79.829363 Z M553.832766,61.9949217 C555.46571,62.2353709 555.800517,62.7931586 554.580578,63.2407754 L540.210596,68.51337 C538.990657,68.9609868 536.677176,69.1290641 535.043291,68.8887811 L514.334428,65.8432857 C512.700544,65.6030027 512.365782,65.0452072 513.586715,64.5974144 L527.968407,59.3227477 C529.18934,58.874955 531.502866,58.7068698 533.13581,58.947319 L553.832766,61.9949217 Z M581.921491,66.1309538 C583.554435,66.3714031 583.890093,66.9290402 582.671203,67.3764714 L568.313581,72.6468786 C567.094691,73.0943097 564.782061,73.2622365 563.148177,73.0219535 L542.439314,69.9764581 C540.80543,69.7361751 540.469816,69.1785301 541.689701,68.7309231 L556.059032,63.4584436 C557.278916,63.0108366 559.591591,62.842902 561.224535,63.0833512 L581.921491,66.1309538 Z M624.054578,72.3350021 C625.687523,72.5754513 626.024457,73.1328627 624.807141,73.5800153 L610.46806,78.8471415 C609.250744,79.2942941 606.939389,79.4619951 605.305505,79.2217121 L570.544199,74.1096305 C568.910315,73.8693475 568.573851,73.311853 569.792686,72.8644317 L584.149657,67.5941396 C585.368492,67.1467182 587.680316,66.9789341 589.31326,67.2193834 L624.054578,72.3350021 Z M525.74404,57.8588895 C527.376985,58.0993387 527.710941,58.657277 526.489953,59.1050795 L512.107611,64.3798613 C510.886622,64.8276639 508.57229,64.9958917 506.938406,64.7556087 L486.229543,61.7101133 C484.595659,61.4698303 484.261747,60.9118842 485.48373,60.4639058 L499.877782,55.1870518 C501.099764,54.7390734 503.41414,54.5708377 505.047085,54.8112869 L525.74404,57.8588895 Z M497.655315,53.7228574 C499.28826,53.9633066 499.621366,54.5213954 498.399328,54.9693836 L484.004625,60.2463527 C482.782587,60.6943409 480.467405,60.8627193 478.833521,60.6224363 L458.124658,57.5769409 C456.490773,57.3366579 456.157712,56.7785613 457.380744,56.3303972 L471.787157,51.0513558 C473.010189,50.6031917 475.325415,50.4348055 476.95836,50.6752547 L497.655315,53.7228574 Z M469.56659,49.5868252 C471.199535,49.8272744 471.53179,50.3855137 470.308703,50.8336876 L455.90164,56.1128441 C454.678552,56.561018 452.362519,56.7295469 450.728635,56.4892639 L430.019772,53.4437685 C428.385888,53.2034855 428.053677,52.6452384 429.277759,52.1968885 L443.696532,46.9156599 C444.920613,46.4673101 447.23669,46.2987734 448.869635,46.5392226 L469.56659,49.5868252 Z M441.477865,45.4507931 C443.11081,45.6912423 443.442214,46.2496321 442.218078,46.6979917 L427.798654,51.9793355 C426.574518,52.427695 424.257634,52.5963745 422.62375,52.3560915 L401.914887,49.3105961 C400.281003,49.0703131 399.949642,48.5119154 401.174773,48.0633799 L415.605906,42.779964 C416.831037,42.3314285 419.147965,42.1627412 420.78091,42.4031904 L441.477865,45.4507931 Z M413.38914,41.3147609 C415.022085,41.5552101 415.352638,42.1137505 414.127452,42.5622958 L399.695669,47.8458268 C398.470483,48.2943721 396.152748,48.4632021 394.518864,48.2229191 L373.810001,45.1774237 C372.176117,44.9371407 371.845608,44.3785925 373.071788,43.9298713 L387.515281,38.644268 C388.741461,38.1955469 391.05924,38.026709 392.692185,38.2671583 L413.38914,41.3147609 Z M385.300415,37.1787287 C386.93336,37.4191779 387.263063,37.9778689 386.036827,38.4265998 L371.592683,43.7123182 C370.366448,44.1610492 368.047863,44.3300297 366.413979,44.0897467 L345.705116,41.0442513 C344.071232,40.8039683 343.741573,40.2452696 344.968802,39.7963627 L359.424656,34.5085721 C360.651886,34.0596652 362.970515,33.8906769 364.60346,34.1311261 L385.300415,37.1787287 Z M329.122965,28.9066644 C330.75591,29.1471136 331.083911,29.7061056 329.855577,30.155208 L315.386712,35.445301 C314.158378,35.8944033 311.838092,36.0636849 310.204208,35.8234019 L289.495345,32.7779065 C287.861461,32.5376235 287.533503,31.9786237 288.762831,31.5293454 L303.243406,26.2371802 C304.472734,25.787902 306.793065,25.6186126 308.426009,25.8590618 L329.122965,28.9066644 Z M301.03424,24.7706323 C302.667184,25.0110815 302.994336,25.570224 301.764952,26.019512 L287.283727,31.3117923 C286.054344,31.7610804 283.733207,31.9305125 282.099323,31.6902295 L261.39046,28.6447341 C259.756575,28.4044511 259.429469,27.8453007 260.659846,27.3958368 L275.152781,22.1014843 C276.383158,21.6520204 278.70434,21.4825804 280.337284,21.7230296 L301.03424,24.7706323 Z M272.945515,20.6346001 C274.578459,20.8750493 274.90476,21.4343424 273.674327,21.8838161 L259.180742,27.1782837 C257.950309,27.6277574 255.628321,27.7973401 253.994437,27.5570571 L233.285574,24.5115617 C231.65169,24.2712787 231.325434,23.7119778 232.556861,23.2623282 L247.062156,17.9657884 C248.293583,17.5161387 250.615615,17.3465483 252.248559,17.5869975 L272.945515,20.6346001 Z M244.85679,16.498568 C246.489734,16.7390172 246.815184,17.2984607 245.583702,17.7481202 L231.077756,23.0447751 C229.846274,23.4944345 227.523436,23.6641677 225.889552,23.4238847 L205.342696,20.1708063 C203.985066,19.6563708 203.985066,18.8157751 204.532601,18.4373729 L218.971531,13.8300924 C220.204007,13.3802571 222.52689,13.2105161 224.159834,13.4509653 L244.85679,16.498568 Z"/>
      <path fill="url(#h)" d="M162.293519,45.1892149 C163.930553,45.4289404 164.259318,45.9877974 163.027836,46.4374568 L148.52189,51.7341117 C147.290408,52.1837711 144.964255,52.354091 143.326281,52.1145317 L122.565585,49.0782087 C120.927611,48.8386494 120.59889,48.2797847 121.831366,47.8299493 L136.349022,42.5312222 C137.581498,42.0813869 139.907696,41.9110592 141.54473,42.1507847 L162.293519,45.1892149 Z M457.222727,88.3783296 C458.859761,88.6180551 459.197435,89.1753354 457.976944,89.62305 L443.600456,94.8967957 C442.379965,95.3445103 440.062721,95.5132535 438.424747,95.2736942 L417.664051,92.2373712 C416.026077,91.9978119 415.688447,91.4405238 416.909933,90.9926333 L431.29813,85.7168154 C432.519616,85.2689249 434.836904,85.1001739 436.473938,85.3398994 L457.222727,88.3783296 Z M190.452589,49.3127987 C192.089623,49.5525243 192.419239,50.1112306 191.188806,50.5607044 L176.69522,55.855172 C175.464788,56.3046457 173.139485,56.474815 171.501511,56.2352557 L150.740815,53.1989328 C149.102841,52.9593735 148.77327,52.4006593 150.004697,51.9510096 L164.509992,46.6544698 C165.741419,46.2048202 168.066766,46.034643 169.7038,46.2743686 L190.452589,49.3127987 Z M485.381797,92.5019134 C487.018831,92.7416389 487.357356,93.2987687 486.137914,93.7462975 L471.773787,99.017856 C470.554344,99.4653848 468.237951,99.6339775 466.599977,99.3944182 L445.839281,96.3580953 C444.201308,96.118536 443.862827,95.5613984 445.083263,95.1136936 L459.4591,89.840063 C460.679536,89.3923582 462.995974,89.2237577 464.633008,89.4634832 L485.381797,92.5019134 Z M218.611659,53.4363826 C220.248693,53.6761081 220.579159,54.2346639 219.349776,54.683952 L204.868551,59.9762323 C203.639168,60.4255203 201.314715,60.5955391 199.676742,60.3559798 L178.916046,57.3196568 C177.278072,57.0800975 176.94765,56.5215339 178.178027,56.0720699 L192.670962,50.7777174 C193.90134,50.3282535 196.225836,50.1582269 197.86287,50.3979524 L218.611659,53.4363826 Z M514.281895,96.7340126 C515.918929,96.9737381 516.258327,97.5307134 515.039962,97.9780517 L500.688521,103.247365 C499.470155,103.694704 497.154635,103.863142 495.516661,103.623582 L474.014512,100.478819 C472.376538,100.23926 472.037206,99.682273 473.256594,99.2347539 L487.62007,93.9633106 C488.839457,93.5157915 491.155044,93.3473415 492.792078,93.587067 L514.281895,96.7340126 Z M508.41611,100.410083 L480.990663,96.3963248 L479.886,96.8017397 L507.312373,100.815334 L508.41611,100.410083 Z M542.440965,100.857596 C544.077999,101.097322 544.418248,101.654147 543.200932,102.101299 L528.861851,107.368425 C527.644535,107.815578 525.329865,107.983866 523.691892,107.744306 L502.931195,104.707983 C501.293222,104.468424 500.953017,103.911592 502.171327,103.464263 L516.522118,98.1950647 C517.740428,97.7477362 520.055142,97.5794407 521.692176,97.8191662 L542.440965,100.857596 Z M253.439982,58.5366046 C255.077017,58.7763302 255.408535,59.3346998 254.18045,59.7837582 L239.714512,65.0733331 C238.486427,65.5223915 236.163027,65.6922241 234.525053,65.4526648 L207.091276,61.4403809 C205.453302,61.2008216 205.12203,60.6424084 206.351358,60.1931302 L220.831932,54.900965 C222.061261,54.4516867 224.384906,54.2818107 226.021941,54.5215362 L253.439982,58.5366046 Z M429.063656,84.2547458 C430.700691,84.4944713 431.037514,85.0519021 429.815973,85.4998024 L415.427126,90.7757354 C414.205585,91.2236357 411.88749,91.3925294 410.249516,91.1529701 L382.815739,87.1406862 C381.177766,86.9011269 380.841188,86.3436526 382.063971,85.8955325 L396.467456,80.6170092 C397.69024,80.168889 400.00858,79.9999518 401.645614,80.2396773 L429.063656,84.2547458 Z M394.235333,79.1545237 C395.872367,79.3942492 396.208139,79.9518662 394.9853,80.3999961 L380.581164,85.6786345 C379.358326,86.1267645 377.039179,86.2958444 375.401205,86.0562851 L241.939587,66.5370659 C240.301614,66.2975066 239.969289,65.7392796 241.197319,65.290231 L255.662606,60.0007712 C256.890636,59.5517226 259.21323,59.3820327 260.850264,59.6217583 L394.235333,79.1545237 Z M245.882392,46.883608 C247.518404,47.1235144 247.848243,47.6821813 246.619108,48.1314253 L232.140811,53.4231876 C230.911676,53.8724316 228.588254,54.0422681 226.951303,53.8025279 L206.203565,50.7639118 C204.566613,50.5241716 204.236819,49.9654969 205.466948,49.5160769 L219.956955,44.2222425 C221.187084,43.7728225 223.51055,43.6029782 225.146562,43.8428847 L245.882392,46.883608 Z M217.740909,42.7569121 C219.37692,42.9968185 219.705909,43.5556359 218.475725,44.0050657 L203.985066,49.2990152 C202.754882,49.748445 200.43061,49.9184319 198.793658,49.6786917 L143.219361,41.5395415 C141.582409,41.2998013 141.254517,40.7407898 142.486994,40.2909545 L157.004649,34.9922274 C158.237125,34.5423921 160.562494,34.3722111 162.198506,34.6121175 L217.740909,42.7569121 Z M274.023876,51.0103038 C275.659888,51.2502103 275.990578,51.8087266 274.762492,52.257785 L260.296555,57.5473599 C259.068469,57.9964183 256.745898,58.1661042 255.108947,57.926364 L234.361209,54.8877479 C232.724258,54.6480077 232.393612,54.0894836 233.622692,53.6402493 L248.100339,48.3486022 C249.329419,47.8993679 251.652034,47.7296741 253.288046,47.9695806 L274.023876,51.0103038 Z M302.16536,55.1369997 C303.801372,55.3769062 304.132912,55.935272 302.905876,56.3841447 L288.452299,61.6715323 C287.225263,62.120405 284.903542,62.2899404 283.266591,62.0502002 L262.518853,59.0115841 C260.881902,58.7718439 260.550406,58.2134702 261.778436,57.7644216 L276.243723,52.4749618 C277.471753,52.0259132 279.793518,51.85637 281.42953,52.0962765 L302.16536,55.1369997 Z M330.306844,59.2636956 C331.942856,59.5036021 332.275247,60.0618174 331.04926,60.5105044 L316.608043,65.7957047 C315.382056,66.2443917 313.061186,66.4137765 311.424235,66.1740363 L290.676497,63.1354202 C289.039546,62.89568 288.707199,62.3374569 289.93418,61.888594 L304.387107,56.6013215 C305.614088,56.1524586 307.935002,55.9830659 309.571014,56.2229724 L330.306844,59.2636956 Z M358.448328,63.3903915 C360.08434,63.630298 360.417581,64.1883627 359.192644,64.636864 L344.763787,69.919877 C343.53885,70.3683783 341.218831,70.5376127 339.581879,70.2978725 L318.834142,67.2592564 C317.19719,67.0195162 316.863993,66.4614436 318.089925,66.0127664 L332.530491,60.7276812 C333.756422,60.279004 336.076486,60.1097618 337.712498,60.3496683 L358.448328,63.3903915 Z M386.589812,67.5170874 C388.225823,67.7569939 388.559916,68.3149081 387.336027,68.7632237 L372.919532,74.0440494 C371.695643,74.492365 369.376475,74.6614488 367.739524,74.4217086 L346.991786,71.3830925 C345.354834,71.1433523 345.020786,70.5854303 346.245669,70.1369387 L360.673874,64.8540409 C361.898757,64.4055493 364.21797,64.2364577 365.853981,64.4763642 L386.589812,67.5170874 Z M414.731295,71.6437833 C416.367307,71.8836898 416.70225,72.4414535 415.479411,72.8895834 L401.075276,78.1682218 C399.852437,78.6163517 397.534119,78.7852849 395.897168,78.5455448 L375.14943,75.5069286 C373.512479,75.2671885 373.17758,74.7094169 374.401413,74.2611111 L388.817258,68.9804005 C390.041091,68.5320947 392.359453,68.3631536 393.995465,68.60306 L414.731295,71.6437833 Z M442.872779,75.7704792 C444.508791,76.0103857 444.844585,76.5679988 443.622795,77.0159431 L429.23102,82.2923941 C428.009231,82.7403384 425.691763,82.9091211 424.054812,82.6693809 L403.307074,79.6307648 C401.670123,79.3910246 401.334373,78.8334036 402.557157,78.3852835 L416.960642,73.1067602 C418.183426,72.6586401 420.500937,72.4898495 422.136949,72.7297559 L442.872779,75.7704792 Z M471.014263,79.8971751 C472.650275,80.1370816 472.986919,80.6945442 471.766179,81.1423027 L457.386764,86.4165665 C456.166024,86.864325 453.849407,87.0329572 452.212456,86.793217 L431.464718,83.7546009 C429.827767,83.5148607 429.491167,82.9573903 430.712901,82.5094558 L445.104026,77.2331199 C446.32576,76.7851854 448.642421,76.6165454 450.278433,76.8564518 L471.014263,79.8971751 Z M499.155747,84.023871 C500.791759,84.2637775 501.129254,84.8210896 499.909563,85.2686624 L485.542508,90.5407389 C484.322818,90.9883117 482.007052,91.1567934 480.3701,90.9170532 L459.622362,87.8784371 C457.985411,87.6386969 457.647961,87.081377 458.868645,86.6336282 L473.24741,81.3594796 C474.468095,80.9117308 476.783905,80.7432413 478.419917,80.9831477 L499.155747,84.023871 Z M280.545821,41.4190991 C282.180811,41.6591864 282.510246,42.2179247 281.281636,42.6670759 L266.809518,47.9577445 C265.580908,48.4068957 263.258741,48.5765102 261.622812,48.3365891 L240.888032,45.2956799 C239.252103,45.0557588 238.922712,44.4970127 240.152316,44.0476856 L254.636144,38.7549448 C255.865748,38.3056176 258.18796,38.1359953 259.822949,38.3760827 L280.545821,41.4190991 Z M252.421924,37.2892911 C254.056913,37.5293785 254.385498,38.0882673 253.155838,38.5376042 L238.671361,43.8304601 C237.441701,44.279797 235.118683,44.449562 233.482754,44.2096409 L212.747974,41.1687317 C211.112045,40.9288106 210.783505,40.3699139 212.014158,39.9204011 L226.510346,34.625473 C227.741,34.1759602 230.064062,34.0061873 231.699052,34.2462747 L252.421924,37.2892911 Z M224.298026,33.1594831 C225.933015,33.3995705 226.26075,33.9586098 225.030041,34.4081324 L210.533203,39.7031756 C209.302494,40.1526982 206.978625,40.3226138 205.342696,40.0826927 L163.873137,34.0008742 C162.237208,33.7609531 161.910145,33.201795 163.142621,32.7519597 L177.660277,27.4532326 C178.892753,27.0033972 181.217293,26.8333629 182.852282,27.0734503 L224.298026,33.1594831 Z M308.669719,45.5489071 C310.304708,45.7889944 310.634994,46.3475822 309.407434,46.7965477 L294.947676,52.085029 C293.720116,52.5339945 291.398798,52.7034585 289.76287,52.4635374 L269.02809,49.4226281 C267.392161,49.182707 267.061919,48.6241115 268.290474,48.17497 L282.761941,42.8844165 C283.990496,42.4352751 286.311857,42.2658033 287.946847,42.5058906 L308.669719,45.5489071 Z M336.793616,49.678715 C338.428606,49.9188024 338.759743,50.4772396 337.533231,50.9260194 L323.085834,56.2123134 C321.859323,56.6610933 319.538856,56.8304067 317.902927,56.5904856 L297.168148,53.5495764 C295.532219,53.3096553 295.201127,52.7512102 296.428632,52.3022545 L310.887739,47.0138883 C312.115244,46.5649325 314.435755,46.3956113 316.070745,46.6356986 L336.793616,49.678715 Z M364.917514,53.808523 C366.552503,54.0486104 366.884491,54.6068971 365.659029,55.0554912 L351.223992,60.3395979 C349.99853,60.788192 347.678914,60.9573549 346.042985,60.7174338 L325.308206,57.6765246 C323.672277,57.4366035 323.340334,56.878309 324.56679,56.4295389 L339.013536,51.1433601 C340.239993,50.69459 342.559653,50.5254193 344.194642,50.7655066 L364.917514,53.808523 Z M393.041412,57.938331 C394.676401,58.1784184 395.009239,58.7365545 393.784826,59.184963 L379.36215,64.4668823 C378.137737,64.9152908 375.818972,65.0843032 374.183043,64.8443821 L353.448264,61.8034728 C351.812335,61.5635517 351.479541,61.0054077 352.704948,60.5568234 L367.139334,55.2728318 C368.364741,54.8242475 370.68355,54.6552272 372.31854,54.8953146 L393.041412,57.938331 Z M421.165309,62.068139 C422.800299,62.3082264 423.133987,62.866212 421.910624,63.3144347 L407.500308,68.5941668 C406.276945,69.0423895 403.95903,69.2112514 402.323101,68.9713303 L381.588322,65.9304211 C379.952393,65.6904999 379.618748,65.1325065 380.843106,64.6841078 L395.265131,59.4023036 C396.489489,58.9539049 398.807448,58.7850352 400.442437,59.0251226 L421.165309,62.068139 Z M449.289207,66.197947 C450.924196,66.4380343 451.258736,66.9958694 450.036421,67.4439065 L435.638466,72.7214512 C434.416152,73.1694883 432.099088,73.3381996 430.463159,73.0982785 L409.72838,70.0573693 C408.092451,69.8174482 407.757956,69.2596053 408.981264,68.8113923 L423.390929,63.5317753 C424.614237,63.0835624 426.931345,62.9148432 428.566335,63.1549306 L449.289207,66.197947 Z M477.413104,70.327755 C479.048094,70.5678423 479.383484,71.1255269 478.162219,71.5733782 L463.776624,76.8487357 C462.555359,77.2965871 460.239146,77.4651479 458.603217,77.2252267 L437.868438,74.1843175 C436.232509,73.9443964 435.897163,73.386704 437.119422,72.9386767 L451.516727,67.6612471 C452.738986,67.2132198 455.055243,67.0446512 456.690232,67.2847386 L477.413104,70.327755 Z M505.537002,74.457563 C507.171991,74.6976503 507.508232,75.2551843 506.288017,75.70285 L491.914782,80.9760201 C490.694567,81.4236858 488.379204,81.5920961 486.743275,81.352175 L466.008496,78.3112657 C464.372567,78.0713446 464.03637,77.5138028 465.25758,77.0659612 L479.642524,71.7907189 C480.863734,71.3428773 483.179141,71.1744592 484.81413,71.4145465 L505.537002,74.457563 Z M533.6609,78.5873709 C535.295889,78.8274583 535.63298,79.3848418 534.413814,79.8323218 L520.05294,85.1033046 C518.833774,85.5507846 516.519262,85.7190443 514.883333,85.4791232 L494.148553,82.438214 C492.512625,82.1982929 492.175577,81.6409016 493.395738,81.1932456 L507.768322,75.9201906 C508.988482,75.4725347 511.303038,75.3042672 512.938028,75.5443545 L533.6609,78.5873709 Z M583.247772,85.8688745 C584.882761,86.1089619 585.221352,86.6660799 584.004036,87.1132325 L569.664955,92.3803588 C568.447639,92.8275114 566.134627,92.9955057 564.498698,92.7555846 L522.288611,86.5651622 C520.652682,86.3252411 520.314785,85.7680003 521.533896,85.3205301 L535.894119,80.0496624 C537.11323,79.6021922 539.426936,79.4340751 541.061925,79.6741625 L583.247772,85.8688745 Z M294.48175,32.9123928 C296.115717,33.152661 296.444122,33.7115816 295.215264,34.1607768 L280.740219,39.4519635 C279.51136,39.9011587 277.18982,40.0706622 275.554913,39.8305601 L254.833092,36.7873578 C253.198185,36.5472557 252.869824,35.9883273 254.099677,35.5389562 L268.586432,30.2456974 C269.816285,29.7963263 272.13787,29.6268149 273.771837,29.8670832 L294.48175,32.9123928 Z M266.375439,28.7794727 C268.009406,29.019741 268.33696,29.5788121 267.107052,30.028193 L252.619647,35.3215669 C251.389739,35.7709478 249.067348,35.9406018 247.432441,35.7004998 L226.71062,32.6572975 C225.075714,32.4171954 224.748203,31.8581165 225.979106,31.4085597 L240.478221,26.1131135 C241.709123,25.6635567 244.031558,25.4938949 245.665525,25.7341632 L266.375439,28.7794727 Z M238.269128,24.6465526 C239.903095,24.8868209 240.229798,25.4460425 238.998841,25.8956091 L224.499075,31.1911704 C223.268118,31.640737 220.944876,31.8105415 219.30997,31.5704395 L184.526913,26.462207 C182.892006,26.222105 182.565772,25.6628002 183.798248,25.2129649 L198.315904,19.9142378 C199.54838,19.4644024 201.872091,19.2945148 203.506058,19.534783 L238.269128,24.6465526 Z M322.588062,37.0453128 C324.222029,37.2855811 324.551284,37.8443512 323.323475,38.2933607 L308.860791,43.58236 C307.632981,44.0313695 305.312291,44.2007225 303.677385,43.9606204 L282.955564,40.9174181 C281.320657,40.6773161 280.991445,40.1185382 282.220249,39.6693527 L296.694643,34.3782812 C297.923447,33.9290958 300.244181,33.759735 301.878148,34.0000033 L322.588062,37.0453128 Z M350.694373,41.1782329 C352.32834,41.4185012 352.658446,41.9771207 351.431686,42.4259445 L336.981362,47.7127565 C335.754602,48.1615804 333.434763,48.3307828 331.799857,48.0906808 L311.078035,45.0474784 C309.443129,44.8073764 309.113066,44.248749 310.340821,43.7997493 L324.802855,38.5108651 C326.030609,38.0618653 328.350492,37.8926551 329.984459,38.1329234 L350.694373,41.1782329 Z M378.800684,45.311153 C380.434651,45.5514213 380.765608,46.1098902 379.539898,46.5585284 L365.101934,51.8431531 C363.876223,52.2917912 361.557235,52.4608431 359.922328,52.2207411 L339.200507,49.1775387 C337.5656,48.9374367 337.234687,48.3789599 338.461392,47.9301458 L352.911066,42.6434489 C354.137771,42.1946349 356.456804,42.0255752 358.090771,42.2658434 L378.800684,45.311153 Z M406.906996,49.444073 C408.540963,49.6843413 408.87277,50.2426598 407.648109,50.6911122 L393.222506,55.9735496 C391.997844,56.4220021 389.679706,56.5909034 388.0448,56.3508014 L367.322979,53.307599 C365.688072,53.067497 365.356309,52.5091707 366.581964,52.0605424 L381.019277,46.7760328 C382.244933,46.3274044 384.563115,46.1584952 386.197082,46.3987635 L406.906996,49.444073 Z M435.013307,53.5769931 C436.647274,53.8172614 436.979932,54.3754293 435.75632,54.8236961 L421.343077,60.1039462 C420.119465,60.5522129 417.802178,60.7209637 416.167272,60.4808617 L395.44545,57.4376594 C393.810544,57.1975573 393.47793,56.6393816 394.702536,56.1909389 L409.127489,50.9086166 C410.352095,50.460174 412.669426,50.2914153 414.303393,50.5316836 L435.013307,53.5769931 Z M463.119618,57.7099132 C464.753585,57.9501815 465.087094,58.5081989 463.864532,58.9562799 L449.463649,64.2343427 C448.241086,64.6824237 445.92465,64.8510241 444.289743,64.610922 L423.567922,61.5677197 C421.933015,61.3276176 421.599551,60.7695924 422.823107,60.3213355 L437.2357,55.0412005 C438.459257,54.5929435 440.775738,54.4243354 442.409705,54.6646037 L463.119618,57.7099132 Z M491.22593,61.8428332 C492.859897,62.0831015 493.194256,62.6409684 491.972743,63.0888638 L477.584221,68.3647392 C476.362707,68.8126346 474.047121,68.9810844 472.412215,68.7409823 L451.690394,65.69778 C450.055487,65.457678 449.721172,64.8998033 450.943679,64.451732 L465.343911,59.1737843 C466.566419,58.725713 468.882049,58.5572554 470.516016,58.7975237 L491.22593,61.8428332 Z M519.332241,65.9757533 C520.966208,66.2160216 521.301418,66.7737379 520.080954,67.2214476 L505.704792,72.4951358 C504.484328,72.9428454 502.169593,73.1111447 500.534687,72.8710427 L479.812865,69.8278403 C478.177959,69.5877383 477.842793,69.0300141 479.064251,68.5821285 L493.452123,63.3063682 C494.673581,62.8584826 496.98836,62.6901755 498.622327,62.9304438 L519.332241,65.9757533 Z M547.438552,70.1086734 C549.072519,70.3489417 549.40858,70.9065075 548.189166,71.3540314 L533.825364,76.6255323 C532.605949,77.0730563 530.292065,77.241205 528.657158,77.001103 L507.935337,73.9579006 C506.30043,73.7177986 505.964414,73.160225 507.184822,72.7125251 L521.560334,67.438952 C522.780743,66.9912521 525.094672,66.8230956 526.728639,67.0633639 L547.438552,70.1086734 Z M575.544864,74.2415935 C577.178831,74.4818618 577.515742,75.039277 576.297377,75.4866153 L561.945936,80.7559289 C560.72757,81.2032671 558.414537,81.3712653 556.77963,81.1311633 L536.057809,78.0879609 C534.422902,77.8478589 534.086035,77.2904358 535.305394,76.8429216 L549.668545,71.5715359 C550.887905,71.1240217 553.200983,70.9560156 554.83495,71.1962839 L575.544864,74.2415935 Z M603.651175,78.3745135 C605.285142,78.6147818 605.622904,79.1720466 604.405588,79.6191991 L590.066507,84.8863254 C588.849191,85.333478 586.537008,85.5013256 584.902102,85.2612236 L564.18028,82.2180213 C562.545374,81.9779192 562.207656,81.4206467 563.425966,80.9733182 L577.776757,75.7041197 C578.995067,75.2567912 581.307294,75.0889357 582.941261,75.329204 L603.651175,78.3745135 Z M553.832766,60.5400722 C555.46571,60.7805214 555.800517,61.3383091 554.580578,61.7859259 L540.210596,67.0585205 C538.990657,67.5061373 536.677176,67.6742146 535.043291,67.4339316 L514.334428,64.3884362 C512.700544,64.1481532 512.365782,63.5903577 513.586715,63.1425649 L527.968407,57.8678982 C529.18934,57.4201055 531.502866,57.2520203 533.13581,57.4924695 L553.832766,60.5400722 Z M581.921491,64.6761043 C583.554435,64.9165536 583.890093,65.4741907 582.671203,65.9216219 L568.313581,71.1920291 C567.094691,71.6394602 564.782061,71.807387 563.148177,71.567104 L542.439314,68.5216086 C540.80543,68.2813256 540.469816,67.7236806 541.689701,67.2760736 L556.059032,62.0035941 C557.278916,61.5559871 559.591591,61.3880525 561.224535,61.6285017 L581.921491,64.6761043 Z M624.054578,70.8801526 C625.687523,71.1206018 626.024457,71.6780132 624.807141,72.1251658 L610.46806,77.392292 C609.250744,77.8394446 606.939389,78.0071456 605.305505,77.7668626 L570.544199,72.654781 C568.910315,72.414498 568.573851,71.8570035 569.792686,71.4095822 L584.149657,66.1392901 C585.368492,65.6918687 587.680316,65.5240847 589.31326,65.7645339 L624.054578,70.8801526 Z M525.74404,56.40404 C527.376985,56.6444892 527.710941,57.2024275 526.489953,57.65023 L512.107611,62.9250118 C510.886622,63.3728144 508.57229,63.5410422 506.938406,63.3007592 L486.229543,60.2552638 C484.595659,60.0149808 484.261747,59.4570347 485.48373,59.0090563 L499.877782,53.7322023 C501.099764,53.2842239 503.41414,53.1159882 505.047085,53.3564374 L525.74404,56.40404 Z M497.655315,52.2680079 C499.28826,52.5084571 499.621366,53.0665459 498.399328,53.5145341 L484.004625,58.7915032 C482.782587,59.2394914 480.467405,59.4078698 478.833521,59.1675868 L458.124658,56.1220914 C456.490773,55.8818084 456.157712,55.3237118 457.380744,54.8755477 L471.787157,49.5965063 C473.010189,49.1483422 475.325415,48.979956 476.95836,49.2204052 L497.655315,52.2680079 Z M469.56659,48.1319757 C471.199535,48.3724249 471.53179,48.9306642 470.308703,49.3788381 L455.90164,54.6579946 C454.678552,55.1061685 452.362519,55.2746974 450.728635,55.0344144 L430.019772,51.988919 C428.385888,51.748636 428.053677,51.1903889 429.277759,50.742039 L443.696532,45.4608104 C444.920613,45.0124606 447.23669,44.8439239 448.869635,45.0843731 L469.56659,48.1319757 Z M441.477865,43.9959436 C443.11081,44.2363928 443.442214,44.7947826 442.218078,45.2431422 L427.798654,50.524486 C426.574518,50.9728455 424.257634,51.141525 422.62375,50.901242 L401.914887,47.8557466 C400.281003,47.6154636 399.949642,47.0570659 401.174773,46.6085304 L415.605906,41.3251145 C416.831037,40.876579 419.147965,40.7078917 420.78091,40.9483409 L441.477865,43.9959436 Z M413.38914,39.8599114 C415.022085,40.1003606 415.352638,40.658901 414.127452,41.1074463 L399.695669,46.3909773 C398.470483,46.8395226 396.152748,47.0083526 394.518864,46.7680696 L373.810001,43.7225742 C372.176117,43.4822912 371.845608,42.923743 373.071788,42.4750218 L387.515281,37.1894185 C388.741461,36.7406974 391.05924,36.5718595 392.692185,36.8123088 L413.38914,39.8599114 Z M385.300415,35.7238792 C386.93336,35.9643285 387.263063,36.5230194 386.036827,36.9717503 L371.592683,42.2574687 C370.366448,42.7061997 368.047863,42.8751802 366.413979,42.6348972 L345.705116,39.5894018 C344.071232,39.3491188 343.741573,38.7904201 344.968802,38.3415132 L359.424656,33.0537226 C360.651886,32.6048157 362.970515,32.4358274 364.60346,32.6762766 L385.300415,35.7238792 Z M329.122965,27.4518149 C330.75591,27.6922641 331.083911,28.2512561 329.855577,28.7003585 L315.386712,33.9904515 C314.158378,34.4395538 311.838092,34.6088354 310.204208,34.3685524 L289.495345,31.323057 C287.861461,31.082774 287.533503,30.5237742 288.762831,30.0744959 L303.243406,24.7823307 C304.472734,24.3330525 306.793065,24.1637631 308.426009,24.4042123 L329.122965,27.4518149 Z M301.03424,23.3157828 C302.667184,23.556232 302.994336,24.1153745 301.764952,24.5646625 L287.283727,29.8569428 C286.054344,30.3062309 283.733207,30.475663 282.099323,30.23538 L261.39046,27.1898846 C259.756575,26.9496016 259.429469,26.3904513 260.659846,25.9409873 L275.152781,20.6466348 C276.383158,20.1971709 278.70434,20.0277309 280.337284,20.2681801 L301.03424,23.3157828 Z M272.945515,19.1797506 C274.578459,19.4201998 274.90476,19.9794929 273.674327,20.4289666 L259.180742,25.7234342 C257.950309,26.1729079 255.628321,26.3424906 253.994437,26.1022076 L233.285574,23.0567122 C231.65169,22.8164292 231.325434,22.2571283 232.556861,21.8074787 L247.062156,16.5109389 C248.293583,16.0612892 250.615615,15.8916988 252.248559,16.132148 L272.945515,19.1797506 Z M244.85679,15.0437185 C246.489734,15.2841677 246.815184,15.8436112 245.583702,16.2932707 L231.077756,21.5899256 C229.846274,22.039585 227.523436,22.2093182 225.889552,21.9690352 L205.180689,18.9235398 C203.546805,18.6832568 203.221399,18.1238054 204.453875,17.67397 L218.971531,12.3752429 C220.204007,11.9254076 222.52689,11.7556666 224.159834,11.9961158 L244.85679,15.0437185 Z"/>
      <path fill="url(#i)" d="M237.7574,8.48782805 L637.48731,67.4010342 C639.119581,67.6416025 639.455969,68.1991105 638.238653,68.6462631 L631.067685,71.2803506 C629.850369,71.7275032 627.539851,71.895056 625.907,71.6545904 L226.034987,12.7665311 C224.402135,12.5260654 224.077566,11.9664659 225.310042,11.5166306 L232.570316,8.86673952 C233.802792,8.41690417 236.125129,8.24725973 237.7574,8.48782805 Z"/>
      <use fill="url(#j)" xlink:href="#k"/>
      <use fill="black" filter="url(#l)" xlink:href="#k"/>
    </g>
  </g>
</svg>
