<svg xmlns="http://www.w3.org/2000/svg" width="58" height="222" viewBox="0 0 58 222">
  <defs>
    <linearGradient id="a" x1="59.759%" x2="57.533%" y1="23.315%" y2="83.539%">
      <stop stop-color="#4778A0" offset="0%"/>
      <stop stop-color="#1E3851" offset="100%"/>
    </linearGradient>
    <linearGradient id="b" x1="0%" y1="39.81%" y2="39.81%">
      <stop stop-color="#C2EEFF" offset="0%"/>
      <stop stop-color="#C2EEFF" stop-opacity=".203" offset="57.504%"/>
      <stop stop-color="#C2EEFF" offset="100%"/>
    </linearGradient>
  </defs>
  <g fill="none" fill-rule="evenodd" transform="translate(-20 -9)">
    <g transform="translate(27 105)">
      <g transform="translate(0 3.642)">
        <path fill="url(#a)" d="M10.0130593,120.525033 L7.84343222,120.203219 C8.03811986,119.874808 7.53543245,119.557487 6.41740555,119.391671 L0.0403795844,118.445891 C0.128156941,118.297732 0.357837404,118.147307 0.736940041,118.007504 L15.0995193,112.710989 C16.3188303,112.261341 18.6213753,112.091994 20.2423975,112.33274 L40.7882408,115.384109 C42.4092631,115.624855 42.7357145,116.184387 41.5173904,116.633859 L27.1664354,121.928299 C26.7882144,122.067835 26.3055055,122.180372 25.7711076,122.262029 L13.7598009,120.480626 C12.6417187,120.314803 11.2001065,120.343781 10.0130593,120.525033 Z"/>
        <path fill="url(#b)" d="M0.915832545,117.941534 L0.736940041,118.007504 C0.357837404,118.147307 0.128156941,118.297732 0.0403795844,118.445891 L6.41740555,119.391671 C7.53543245,119.557487 8.03811986,119.874808 7.84343222,120.203219 L10.0130593,120.525033 C11.2001065,120.343781 12.6417187,120.314803 13.7598009,120.480626 L25.7711076,122.262029 C26.3055055,122.180372 26.7882144,122.067835 27.1664354,121.928299 L41.5173904,116.633859 C42.2182919,116.375278 42.4079194,116.08027 42.1339136,115.830491 L42.6615385,115.803468 L47,0 L4.33846154,2.9132948 L0,117.988439 L0.915832545,117.941534 Z" opacity=".257"/>
      </g>
      <g fill="#FFFFFF" transform="translate(7.954 26.22)">
        <ellipse cx="30.008" cy="59.358" opacity=".441" rx="1" ry="1"/>
        <ellipse cx="27.115" cy="71.74" opacity=".441" rx="1" ry="1"/>
        <ellipse cx="4.7" cy="66.642" opacity=".441" rx="1" ry="1"/>
        <ellipse cx="14.823" cy="62.272" opacity=".441" rx="1" ry="1"/>
        <ellipse cx="6.146" cy="94.318" opacity=".441" rx="1" ry="1"/>
        <ellipse cx="19.162" cy="94.318" opacity=".441" rx="1" ry="1"/>
        <ellipse cx=".362" cy="59.358" opacity=".441" rx="1" ry="1"/>
        <ellipse cx="5.423" cy="1.821" opacity=".8" rx="1" ry="1"/>
        <ellipse cx="20.608" cy=".364" opacity=".8" rx="1" ry="1"/>
      </g>
      <path fill="#24314F" d="M45.1272705,3.1609017 C46.7482928,3.40164806 47.0747442,3.96118013 45.8564201,4.41065156 L31.5054651,9.70509202 C30.287141,10.1545634 27.98464,10.3239035 26.3626851,10.0833236 L5.80502114,7.03406453 C4.18306624,6.79348463 3.8566588,6.23394471 5.07596972,5.78429715 L19.438549,0.48778194 C20.65786,0.0381343733 22.9604049,-0.131213518 24.5814272,0.109532837 L45.1272705,3.1609017 Z" opacity=".8"/>
    </g>
    <g transform="rotate(14 9.923 104.366)">
      <path fill="#43BC60" d="M46.75912,7.06922824 C46.6865504,7.01640377 46.611804,6.96235012 46.5347743,6.90696723 C46.1512203,6.6311993 45.1479449,6.02035225 42.808188,5.2617355 C41.9687622,4.98956941 41.3087218,4.63878386 40.1205983,5.18439045 C39.9691541,5.2539362 39.4335487,5.64997676 38.8500339,5.89228133 C38.2239787,6.15225079 37.5463539,6.25018959 37.3383396,6.03485448 C36.9364455,5.61881624 37.9585363,5.59932808 37.9432274,5.49039997 C37.8401785,4.75716899 34.7621129,4.98392196 34.6739043,4.05696631 C34.5856957,3.13001066 35.5441252,2.3951502 35.696644,2.31240072 C36.2870423,1.99207861 38.0529108,1.25398659 38.7459908,1.55425674 C39.5529467,1.90386252 40.0889788,1.78728391 40.8841894,1.93732212 C42.6901744,2.27807055 44.4994088,3.07146578 46.3558306,3.63415558 C49.9527462,4.72439689 51.5913854,5.9462625 52.5296666,6.6832431 C53.1475404,7.16855703 53.4941778,7.5414742 54.9681041,11.7886948 C55.3624076,12.9249076 55.7070437,13.9254604 55.9960922,14.8560336 C56.2798986,14.7585561 56.4622295,14.7202204 56.4769915,14.7790505 C57.0521419,17.0711653 58.2820547,19.5100164 58.858721,22.1621574 C59.2662778,24.0365487 60.0558161,29.6976138 60.4467142,31.7437428 C61.2028722,35.7018004 61.7385792,38.8103528 62.5856782,42.0738744 L62.6794054,42.0580284 C62.7378047,42.3905372 62.7941949,42.7227245 62.848576,43.0545902 C62.9353114,43.3680238 63.025325,43.6837518 63.1190709,44.0026315 C63.2060105,44.2983593 63.2069309,44.6040471 63.1330844,44.9165653 C63.4611182,47.2316602 63.6906654,49.5309946 63.8217259,51.8145684 C64.0990042,56.6458092 64.4430019,62.1426645 64.8666064,64.9331434 C65.2902108,67.7236223 66.0740283,69.9690114 67.7028169,76.2361354 C68.3429359,78.6991351 69.9579483,83.9476912 70.1292776,86.0237893 C70.1329645,86.0684656 70.1357976,86.1122468 70.1378068,86.1551519 C70.3100772,86.4413952 70.4344792,86.7765843 70.5007189,87.1522484 C70.5018983,87.1589373 70.5030573,87.1656274 70.5041958,87.1723186 C70.6111473,87.1796045 70.7325277,87.312406 70.8930847,87.6350624 C71.6912903,89.2391426 72.3937693,90.4095538 72.7264744,91.5061178 C70.616312,92.0334796 66.2723329,93.1191064 64.4730108,93.5477645 C60.9380932,94.3898989 59.9787422,94.562392 59.802799,93.3093722 C59.7041324,92.606695 61.1940083,91.6619653 62.7012583,90.7686513 C63.5974814,90.2374796 63.8476656,89.4738802 64.2212999,88.5831745 C64.3824037,88.1991194 64.85628,87.6250834 65.3805702,88.1613804 C65.4036049,88.1849427 65.4264958,88.2080765 65.4492457,88.230788 C65.4450623,88.210236 65.4411396,88.1895863 65.4374816,88.1688411 C65.3724134,87.7998211 65.3974013,87.4360872 65.4938456,87.0947317 C65.3308554,86.834069 65.1737694,86.5253463 65.0258293,86.1607826 C64.5774986,85.0559769 63.3537466,80.2320015 62.5900779,77.4208285 C61.501365,73.4131221 60.7479918,71.3035927 59.7323031,68.2706649 C58.4757917,64.5186214 57.3150815,56.2529251 57.0988578,55.9385847 C56.8887247,55.6330987 56.8017006,55.4558589 55.8458962,56.2489941 C55.6786833,56.3877488 55.0363847,58.3025516 54.7456228,62.4592949 C54.5109636,65.8139914 54.2472817,70.1498752 54.0417652,71.9835193 C53.8362487,73.8171634 57.5580556,88.0695541 58.0695647,91.128029 C58.0915892,91.2597208 58.0823028,91.3986021 58.0451499,91.5395891 C58.0732917,91.6272259 58.0973177,91.717095 58.1169548,91.8089975 C58.213899,91.6615207 58.2934467,91.5968743 58.3674442,91.6677431 C58.4195791,91.7176736 58.3422551,91.7962761 58.1354722,91.9035508 C58.1357686,91.905214 58.1360635,91.9068778 58.136357,91.9085423 C58.3924194,93.3607443 57.4653063,94.7380635 56.0655919,94.984871 C54.9038354,95.18972 53.7816503,94.5513834 53.2872629,93.4980862 C53.1545255,93.5361852 53.019195,93.5748586 52.8812713,93.6141062 C52.9275364,93.2115418 52.9842922,92.9070963 53.0515388,92.7007697 C53.0257233,92.514984 53.019109,92.3308362 53.0301954,92.1505555 C52.7062394,91.3116638 51.7969837,88.0105274 50.9801898,83.9049973 C50.4878072,81.4300866 48.8349963,75.4334484 48.2035097,71.4754791 C47.9232235,69.7187287 47.6772,66.595465 47.4654393,62.1056878 L46.9607025,53.5442878 C46.7800208,52.4031765 46.2848984,44.7207042 45.4771097,41.690109 C44.5202816,38.10036 43.5968491,36.7561928 43.0293224,35.0915844 C42.9287657,34.7966421 41.731516,36.5615919 41.4863854,36.4409849 C41.4545415,36.4253173 41.422851,36.4094827 41.3913156,36.3934849 C41.2067056,36.9877686 40.5575057,37.8309702 39.1721812,39.4299387 C37.4084235,41.4657023 36.8625501,41.9587116 35.9484939,42.0844408 C33.6590523,41.4290975 31.9939272,40.5719516 30.058964,39.2120788 C29.5808291,38.8760504 28.9302668,38.3977847 28.230594,37.8696953 C28.1724836,37.9203326 28.1032867,37.9714181 28.0205892,38.0237589 C25.896186,39.3683335 20.6536962,37.850934 16.4620898,35.7111823 C11.2930025,33.0724414 6.59253866,28.856597 7.94745128,26.1974313 C9.30236389,23.5382656 15.7758616,24.1159855 21.2065691,26.6833268 C25.3274612,28.6314591 29.2748569,30.4374383 30.3211599,32.9414983 C30.4461021,33.2405158 30.3112053,33.7569777 30.1327924,34.071467 C29.9676438,34.3625753 29.8133293,34.5167566 29.5109615,34.7177765 C30.5191011,35.2524812 31.3021518,35.6178988 32.653784,36.292273 C33.6348203,36.7817446 34.1196387,37.4168701 34.8206095,37.4168701 C36.071929,37.4168701 36.9713282,34.4612982 38.0284556,33.2691061 C37.9633502,33.1474107 37.905247,33.0267731 37.8544084,32.9078343 C37.7435795,32.6485461 38.5661988,31.6350333 38.6783065,31.4731124 C40.142865,29.2156942 41.9250717,26.8310237 42.564203,26.1989701 C43.2033342,25.5669165 44.8480518,25.0076102 45.6843105,24.615276 C45.7665323,24.5767014 45.8485739,24.5359134 45.9303967,24.4930941 C45.8966378,24.4787958 45.8646884,24.4628325 45.834691,24.4451172 C45.5445115,24.2737485 46.1567522,24.0262277 46.4197741,23.6963438 C46.6827961,23.36646 46.7741858,22.8771106 46.7601838,22.7983353 C46.6395944,22.1198982 45.7905208,21.6714757 45.5704192,21.5287847 C44.2433514,20.6684522 41.5483252,21.5379859 41.1159877,20.7235052 C40.6836502,19.9090244 41.030084,18.3696159 40.3983198,17.4729337 C40.1606821,17.1356473 39.5761321,17.4639689 39.3916037,17.0673493 C39.1467985,16.5411725 40.1561249,15.2131029 40.0872992,14.7162463 C39.968754,14.7042265 39.8449663,14.6257977 39.7865326,14.539722 C39.712413,14.43054 39.6508921,14.2061222 39.6789599,14.0295899 C39.4863267,13.4694684 40.1533376,12.6969296 40.3983198,12.515333 C40.5150331,12.4288176 40.6866085,12.3884812 40.8814532,12.3736686 C40.8692959,12.3710679 40.8572932,12.3682864 40.8454548,12.3653151 C40.225746,12.2097719 39.5926884,11.3409625 39.6612272,10.5454318 C39.730196,9.74491026 39.9560346,8.91022302 40.4513632,8.38414259 C40.7730071,8.04252978 41.843184,8.38162944 42.1239007,8.24328941 C42.6142477,8.00164138 42.7012263,7.41101024 43.1022539,7.19425463 C43.5818853,6.93501363 45.40989,7.80210535 45.5915749,7.76836286 C45.8917076,7.71262223 46.0629458,7.34239589 46.2681105,7.19425463 C46.3790575,7.11414418 46.5187663,7.05286609 46.75912,7.06922824 Z M51.5754316,15.9894682 C51.4500438,16.1959782 51.3146662,16.3986259 51.1700736,16.5956186 C50.5083925,17.4970912 50.0037269,18.328892 49.5399869,18.8497398 C49.6302768,19.2562669 49.7032215,19.728352 49.7528937,20.2804968 C49.769079,20.4604088 50.1864312,20.6027285 50.5190035,20.7257001 C50.8326399,20.4611997 51.1117456,20.2586934 51.3490201,20.1526479 C51.4824878,20.092997 51.5689899,20.0477465 51.6245671,20.0025869 C51.7875756,18.9605973 51.7449638,17.4740264 51.5754316,15.9894682 Z M42.5579365,12.4532933 C42.3980007,12.435111 42.2570987,12.4268118 42.1404556,12.4268118 C41.9944666,12.4268118 41.8066868,12.4092377 41.6061601,12.3930782 C42.003952,12.3674905 42.3885366,12.3254619 42.5579365,12.4532933 Z M22.5270626,33.9832763 C22.8127926,34.2724983 23.419104,34.5000301 23.9440284,34.6015808 C24.0396693,34.6200833 24.1337917,34.6387899 24.2263864,34.6576816 C24.2252621,34.6566292 24.2241404,34.6555786 24.2230213,34.6545299 C23.976073,34.4230974 23.4689099,34.1814325 22.963885,34.055857 C22.7919082,34.0130946 22.6504647,33.991153 22.5270626,33.9832763 Z" opacity=".2"/>
      <g transform="translate(39.671 42.867)">
        <path fill="#FBD2CF" d="M22.8486333,48.9703793 C24.2699405,48.9703793 25.2309188,47.6094512 25.2309188,46.1348466 C25.2309188,44.660242 24.2699405,43.6303638 22.8486333,43.6303638 C21.4273261,43.6303638 20.068074,44.7821685 20.068074,46.2567731 C20.068074,47.7313777 21.4273261,48.9703793 22.8486333,48.9703793 Z" transform="rotate(-10 22.65 46.3)"/>
        <ellipse cx="10.264" cy="50.892" fill="#FBD2CF" transform="rotate(-10 10.264 50.892)" rx="2.574" ry="2.67"/>
        <path fill="#FFFFFF" d="M19.5165908,53.5810993 C20.4035468,53.2886112 20.6040249,52.6668344 22.3592714,52.3651844 C25.8241408,51.7697251 27.2828049,50.9840481 27.0412191,49.7420131 C26.9057409,49.0454961 25.1894617,48.6372927 23.4734941,48.2833604 C22.453166,48.0729093 21.9680085,47.432364 21.324745,46.7118285 C21.0473822,46.4011476 20.4124356,46.012665 20.0913107,46.6904359 C19.1104595,48.7606353 18.1125511,48.6469438 16.8892,48.5660078 C15.5710093,48.4787973 14.909327,46.4472717 14.7077734,47.9874917 C14.4752926,49.7640496 14.1902163,51.079097 14.2326439,52.2242367 C14.2795505,53.4902684 15.802897,53.8638773 16.7942757,53.9695879 C17.8564373,54.0828462 18.6296348,53.8735873 19.5165908,53.5810993 Z" transform="scale(-1 1) rotate(19 0 -73.227)"/>
        <path fill="#FFFFFF" d="M7.54351046,52.1509598 C7.63552782,51.3502932 7.76904437,50.937764 7.94406013,50.9133723 C8.8251712,50.7905732 7.37400034,53.137596 10.4606675,52.7074119 C12.2240051,52.4616582 12.6865247,49.8759475 13.0296834,50.2045967 C13.3397705,50.5015727 13.4568791,51.3050116 13.6575521,52.261867 C13.8436891,53.1494113 14.0050658,53.6808426 14.1899422,54.4889195 C14.622835,56.3810526 14.7317293,57.0224122 13.1416412,57.4874312 C12.4707919,57.6836201 8.49104542,58.602801 6.03752026,58.944745 C2.71251527,59.408146 0.723262092,59.2359846 0.251367197,57.9153457 C-0.0953801077,56.9449432 1.05298447,56.27563 3.93435658,54.4986373 C4.56104629,54.1121468 5.76409758,53.3295876 7.54351046,52.1509598 Z"/>
        <path fill="#AEA3B2" d="M1.10757899,3.33950529 L17.3416446,0.594881974 C17.9183395,3.8784148 18.299113,7.13059481 18.4839651,10.351422 C18.7612434,15.1826628 19.1052411,20.6795181 19.5288456,23.469997 C19.95245,26.2604759 20.7362675,28.505865 22.3650561,34.772989 C23.0051751,37.2359887 24.6201875,42.4845448 24.7915168,44.5606429 C24.9661813,46.6771556 23.2247341,46.7848486 22.7374617,46.8900254 C21.889684,47.0730166 20.6109287,46.9718082 19.6880685,44.6976362 C19.2397378,43.5928306 18.0159858,38.7688551 17.2523171,35.9576821 C16.1636042,31.9499757 15.410231,29.8404463 14.3945423,26.8075185 C13.1380309,23.055475 11.9773207,14.7897787 11.761097,14.4754383 C11.5509639,14.1699524 11.4639398,13.9927125 10.5081354,14.7858477 C10.3409225,14.9246024 9.69862387,16.8394053 9.40786198,20.9961485 C9.17320282,24.350845 8.90952088,28.6867289 8.70400437,30.5203729 C8.49848786,32.354017 12.2202948,46.6064077 12.7318039,49.6648826 C12.8659749,50.4671339 11.838163,51.5361973 10.4270625,51.7227084 C9.59680929,51.8324465 8.77583296,51.770738 7.7906756,50.8891062 C7.61851365,50.7350359 6.57075307,47.1079763 5.64242904,42.4418509 C5.15004642,39.9669402 3.49723554,33.970302 2.86574893,30.0123327 C2.5854627,28.2555823 2.33943922,25.1323186 2.1276785,20.6425414 L1.10757899,3.33950529 Z"/>
      </g>
      <g transform="translate(11.68)">
        <g>
          <g transform="rotate(-94 10.44 -1.614)">
            <path fill="#EEEADD" d="M0.417142857,2.90140845 L5.42285714,2.90140845 L5.42285714,3.41649899 L5.42285714,3.41649899 C5.42285714,4.04768157 4.91118257,4.55935614 4.28,4.55935614 L1.56,4.55935614 L1.56,4.55935614 C0.928817429,4.55935614 0.417142857,4.04768157 0.417142857,3.41649899 L0.417142857,2.90140845 Z"/>
            <polygon fill="#FFFFFF" points="0 0 5.84 0 5.423 2.901 .417 2.901"/>
            <path fill="#EEEADD" d="M1.66857143 4.55935614L4.17142857 4.55935614 4.17142857 4.94567404 4.17142857 4.94567404C4.17142857 5.41906097 3.78767264 5.8028169 3.31428571 5.8028169L2.52571429 5.8028169 2.52571429 5.8028169C2.05232736 5.8028169 1.66857143 5.41906097 1.66857143 4.94567404L1.66857143 4.55935614zM2.08571429 5.8028169L3.75428571 5.8028169C3.47619048 5.81518797 3.33714286 5.95614066 3.33714286 6.22567496 3.33714286 7.87994695 3.33714286 9.53421895 3.33714286 11.1884909L3.33714286 11.1884909C3.33714286 11.4188726 3.15038164 11.6056338 2.92 11.6056338L2.92 11.6056338 2.92 11.6056338C2.68961836 11.6056338 2.50285714 11.4188726 2.50285714 11.1884909 2.50285714 9.53421895 2.50285714 7.87994695 2.50285714 6.22567496 2.50285714 5.95514575 2.36380952 5.81419307 2.08571429 5.8028169z"/>
          </g>
          <path fill="#FBD2CF" d="M35.7159815,23.7738153 C36.3362977,23.7738153 38.4309358,23.0705496 38.3979815,21.0751203 C38.3650272,19.079691 37.9915345,17.1161078 37.4585907,14.4092916 C36.5901075,9.99827382 36.2987435,9.58074324 35.7544255,9.01416095 C34.9278434,8.15376909 33.4752022,6.71574009 30.0650237,5.13551503 C28.3049798,4.31993731 26.623772,3.28246659 24.8827857,2.69368976 C24.1161954,2.4344398 23.7145223,2.23551009 22.9640754,1.7770001 C22.31953,1.38319407 21.256008,1.33883077 20.6267751,1.57386795 C20.4642241,1.6345856 19.3216367,1.91978446 19.2867917,3.57520256 C19.2519467,5.23062065 21.4759522,5.06244965 21.4759522,5.80288651 C21.4759522,5.91288512 20.4610961,5.78993609 20.8011777,6.25785832 C20.9771988,6.5000478 21.6618594,6.49736927 22.3180026,6.32705985 C22.9295609,6.16832294 23.5150721,5.85067849 23.6747213,5.80288651 C24.9272159,5.42794457 25.5320128,5.86717615 26.3253912,6.25351904 C28.5367987,7.33038421 29.4452969,8.07491549 29.7867386,8.40138005 C30.9442216,9.50809054 31.510148,10.1492025 31.9257267,10.872773 C32.3219456,11.5626359 33.083343,13.1695155 33.2041579,13.70656 C33.6824811,15.8327942 33.6469439,20.2499344 32.9350559,22.2912556 C32.223168,24.3325768 35.0790165,23.7738153 35.7159815,23.7738153 Z" transform="rotate(-8 28.842 12.637)"/>
          <path fill="#FBD2CF" d="M18.6019669,43.4882693 C19.516023,43.3625401 20.0618964,42.8695308 21.8256542,40.8337672 C25.2590947,36.8708232 24.1707768,37.5502938 22.6945952,35.1558149 C20.5213627,31.6306665 19.4257815,38.8206986 17.4740825,38.8206986 C16.7731116,38.8206986 16.2882933,38.1855731 15.3072569,37.6961014 C13.3016016,36.6954134 12.5479,36.3750138 10.4529671,35.172321 C8.62492991,34.122852 7.54928333,33.1897324 7.37193442,32.8030696 C7.19458551,32.4164068 6.97372414,32.4788755 6.77307783,32.0090303 C6.57243152,31.539185 6.15061576,31.3199557 5.31699073,31.5600011 C4.92834304,31.6719137 2.8448989,31.8381945 2.36243965,31.9781684 C-0.0850712461,32.6882544 -0.00435660848,35.0943971 3.24509361,35.4957601 C4.64994187,35.6692831 4.61415428,35.2102367 5.61735797,35.4596855 C6.12238281,35.585261 6.62954601,35.8269259 6.87649427,36.0583583 C7.90865169,37.025665 11.1875012,39.5441977 12.712437,40.6159073 C14.6474002,41.9757801 16.3125252,42.832926 18.6019669,43.4882693 Z"/>
        </g>
        <path fill="#69A7FF" d="M29.6335339,55.0497432 C30.6417936,55.9113986 46.9259759,52.5582021 46.2787381,47.9985112 C45.6689158,43.702407 44.0033815,37.8752803 43.1001871,33.1475713 C42.7092891,31.1014422 41.9197507,25.4403771 41.5121939,23.5659859 C40.9355277,20.9138448 39.7056148,18.4749937 39.1304645,16.182879 C39.0567772,15.8892171 34.8077744,18.0166365 34.6040388,17.8357794 C34.3534656,17.6133442 34.5361438,19.7346042 34.4726237,20.0158769 C34.1785317,21.3181426 34.6594388,21.2628665 34.0024931,21.5564763 C32.8360641,22.0777903 30.6587173,24.9302291 28.3377834,26.0191045 C27.5015248,26.4114386 25.8568072,26.970745 25.2176759,27.6027986 C24.5785447,28.2348522 22.796338,30.6195227 21.3317795,32.8769408 C21.2196717,33.0388618 20.3970525,34.0523745 20.5078813,34.3116628 C21.0350219,35.5449277 22.3432153,36.9608451 24.1398584,37.8448134 C24.384989,37.9654203 25.5822386,36.2004706 25.6827954,36.4954129 C26.250322,38.1600213 27.1737546,39.5041885 28.1305826,43.0939374 C28.9692787,46.2404886 29.4709246,54.4017051 29.6335339,55.0497432 Z"/>
      </g>
      <g transform="translate(.525 18.493)">
        <path fill="#C4B4A3" d="M10.9274236,17.978214 C14.9996473,20.0261313 18.8530378,22.0248497 21.4704324,21.3076945 C21.7829835,21.2220568 22.1069103,20.797791 22.2448894,20.4635806 C22.3748439,20.1488071 22.3999968,19.9301473 22.3698453,19.5565336 C22.3396937,19.18292 21.6751965,18.3405113 21.1903746,17.9635636 C21.065366,17.8663698 20.7011355,17.4298984 17.933845,16.6538561 C17.2359722,16.4581489 16.7532798,15.2618895 17.0250177,14.7266031 C17.2804629,14.223411 18.2392197,14.7263743 18.8524411,15.2603974 C20.6196579,16.7993759 21.9388931,17.57316 22.5247472,17.6439572 C23.1106014,17.7147543 23.4033875,17.6367184 23.4683013,17.5661391 C23.8306455,17.1721705 24.1271754,17.0532416 24.0589357,16.365868 C23.8105618,13.8640126 19.3872356,10.6670787 15.1204776,8.68141047 C9.85871351,6.23268518 3.64268835,5.12420211 2.38140466,7.82903372 C1.12012097,10.5338653 5.56085365,15.2793712 10.9274236,17.978214 Z" transform="scale(1 -1) rotate(-52 -15.291 0)"/>
        <path fill="#FBD2CF" d="M18.3723397,17.6884241 C20.0832283,18.6264549 19.9780628,17.2089496 19.6077234,16.5876532 C19.237384,15.9663568 18.5624893,15.3439109 17.3242903,15.0794993 C16.0860913,14.8150878 15.0177578,14.5393992 14.827959,15.0223978 C14.7321431,15.2662296 15.3110867,15.8448511 16.4512799,16.1441544 C17.5914731,16.4434578 17.9104452,17.4351807 18.3723397,17.6884241 Z"/>
        <ellipse cx="8.76" cy="14.507" fill="#59FF81" rx="1.46" ry="1"/>
        <ellipse cx="6.57" cy="12.331" fill="#FFD962" rx="1.46" ry="1"/>
        <ellipse cx="5.84" cy="9.43" fill="#FFFFFF" rx="1.46" ry="1"/>
      </g>
      <g transform="translate(33.613 8.157)">
        <g transform="translate(0 5.34)">
          <path fill="#FBD2CF" d="M1.83627886,8.63044431 C2.26861636,9.44492502 4.96364256,8.57539138 6.29071032,9.43572388 C6.51081198,9.57841487 7.3598855,10.0268373 7.48047496,10.7052744 C7.49447696,10.7840498 7.40308719,11.2733992 7.14006525,11.603283 C6.87704332,11.9331668 6.26480261,12.1806877 6.55498211,12.3520563 C7.4393763,12.8743449 10.0205076,11.873843 10.6448394,11.5761316 C11.7134409,11.0665711 11.9943471,8.99746042 11.5399063,8.75721957 C11.2539817,8.60606507 10.4951214,8.43127806 10.4731848,8.18743598 C10.1170302,4.22850559 8.56443387,4.38546767 8.00027359,3.31273537 C6.7688703,0.971262353 3.88306527,0.333750972 2.86074675,0.333750972 C2.38996143,0.333750972 1.48457986,0.150992312 1.11861092,0.422272134 C0.870855136,0.605924723 0.191460194,1.39397645 0.406126374,1.95547097 C0.527048672,2.27176303 0.637851452,2.2332652 0.787201957,2.55140673 C0.986974114,2.9769548 -0.145890346,4.42021291 0.111894859,4.97428847 C0.296423251,5.3709081 0.880973253,5.04258647 1.11861092,5.37987284 C1.75037516,6.27655507 1.40394137,7.8159636 1.83627886,8.63044431 Z"/>
          <path fill="#F3B8B4" d="M6.6831646,9.34505663 C6.90326626,9.48774762 7.79686322,10.5215844 7.52139703,11.0052388 C5.31043938,14.887165 8.99066728,13.3718819 10.0988296,12.5484136 C14.3327232,9.40223467 10.9805747,9.18089539 10.5549894,8.38584866 C10.1294041,7.59080192 8.77808151,4.39401538 8.21392122,3.32128308 C7.99347787,2.90211726 7.60702913,5.25608753 7.01469902,5.71136294 C6.46476676,6.1340506 6.03764489,6.00233249 5.70975024,6.77470187 C5.51789691,7.2266203 5.26862928,8.67656788 4.29685187,8.94943534 C3.37598733,9.20800686 5.35609685,8.48472413 6.6831646,9.34505663 Z" opacity=".368"/>
          <path fill="#F3B8B4" d="M5.50516425,5.27901802 C5.89308116,5.31709482 6.30897383,4.84758129 6.3895622,4.46990895 C6.47015058,4.09223661 6.17379986,3.68104661 5.79544428,3.67151487 C5.4170887,3.66198313 5.15154672,3.92159767 5.07136306,4.27151293 C4.9911794,4.62142818 5.11724733,5.24094122 5.50516425,5.27901802 Z"/>
          <path fill="#C69E9B" d="M0.666812065,2.53090639 C0.880771297,2.49765727 1.091145,2.22549092 1.15181843,2.01513931 C1.21249185,1.80478769 0.973268412,1.55421936 0.768391314,1.59767801 C0.563514216,1.64113667 0.385672431,1.94266845 0.35908864,2.11381885 C0.332504849,2.28496925 0.452852834,2.56415551 0.666812065,2.53090639 Z" transform="rotate(-43 .855 2.093)"/>
        </g>
        <path fill="#B27957" d="M4.16347645,10.7205964 C4.56186251,10.5744682 4.38255047,9.76131632 4.55724544,9.40208568 C5.23773749,8.00276888 6.34272989,7.97153209 6.83662949,9.10207151 C9.30148277,14.7441369 9.84784535,12.6252966 11.8903647,9.84257327 C13.6859338,7.39629434 14.0604531,4.07796586 11.5302067,3.32030172 C10.6365476,3.0527019 11.4879877,2.25558236 10.0150428,1.40978477 C7.81046819,0.143869134 7.29185417,0.222098309 6.98840165,0.441209332 C6.78323699,0.589350594 6.61199877,0.959576938 6.311866,1.01531756 C6.13018114,1.04906006 4.30217642,0.181968334 3.82254501,0.441209332 C3.4215174,0.657964946 3.33453882,1.24859609 2.84419182,1.49024411 C2.56347517,1.62858415 1.49329823,1.28948449 1.1716543,1.6310973 C0.67632576,2.15717773 0.450487166,2.99186497 0.381518349,3.79238656 C0.312979527,4.58791719 0.946037096,5.45672657 1.56574592,5.61226977 C2.18545475,5.76781298 3.25561925,5.40301219 3.36017295,5.82402572 C3.45851948,6.22004443 2.84419182,6.39158049 2.84419182,6.93385708 C2.84419182,7.32611574 3.32554909,7.67033672 3.53813972,8.08619425 C4.08380726,9.15359759 3.36017295,10.5664428 4.16347645,10.7205964 Z"/>
      </g>
    </g>
  </g>
</svg>
