<svg xmlns="http://www.w3.org/2000/svg" width="156" height="262" viewBox="0 0 156 262">
  <defs>
    <linearGradient id="a" x1="59.759%" x2="57.533%" y1="23.315%" y2="83.539%">
      <stop stop-color="#4778A0" offset="0%"/>
      <stop stop-color="#1E3851" offset="100%"/>
    </linearGradient>
    <linearGradient id="b" x1="0%" y1="39.81%" y2="39.81%">
      <stop stop-color="#C2EEFF" offset="0%"/>
      <stop stop-color="#C2EEFF" stop-opacity=".203" offset="57.504%"/>
      <stop stop-color="#C2EEFF" offset="100%"/>
    </linearGradient>
  </defs>
  <g fill="none" fill-rule="evenodd" transform="translate(0 -4)">
    <g transform="translate(0 89)">
      <g transform="translate(0 153.691)">
        <path fill="url(#a)" d="M77.0658512,15.5495011 C78.7031588,15.7897276 79.0428477,16.3474419 77.8245675,16.795191 L63.4741297,22.0693431 C62.2558496,22.5170921 59.9401761,22.6854574 58.3019283,22.4453974 L1.94203733,14.1867235 C0.303789524,13.9466636 -0.0347796376,13.388751 1.18582194,12.9405909 L15.5636042,7.66159726 C16.7842058,7.21343719 19.1009989,7.04487369 20.7383065,7.28510014 L77.0658512,15.5495011 Z"/>
        <path fill="url(#b)" d="M31.8603999,18.6385844 L29.8659291,18.3463254 C30.175439,17.9950705 29.6735902,17.6450773 28.4649155,17.4679844 L6.95807859,14.3168412 C5.77380448,14.1433235 4.2346935,14.1833693 3.01160827,14.3881496 C2.74872214,14.3572302 2.48426186,14.3261739 2.21822745,14.2949806 C0.579979642,14.0549206 -0.417780422,13.5254779 0.802821157,13.0773179 L0.802821157,0.253492093 C0.824420845,0.24556148 0.863502828,0.239521963 0.919450683,0.235310426 C1.15025234,0.301593511 1.58810001,0.363138955 2.21822745,0.455474424 L58.5781184,8.71414829 C60.2163662,8.95420827 62.5320397,8.78584301 63.7503199,8.33809396 L78.1007576,3.06394188 C78.3080943,2.98774034 78.4703061,2.90835378 78.5886762,2.82788923 C79.0692629,11.9154189 78.9066234,16.6072718 78.1007576,16.9034481 L63.7503199,22.1776001 C62.5320397,22.6253492 60.2163662,22.7937144 58.5781184,22.5536545 L58.0477844,22.4759422 C58.3579729,22.1245593 57.8558029,21.7742847 56.6462881,21.5970687 L35.8810662,18.5545856 C34.6723388,18.377485 33.0944453,18.4227743 31.8603999,18.6385844 Z" opacity=".257"/>
        <g fill="#FFFFFF" transform="translate(13.121 6.556)" opacity=".441">
          <ellipse cx="63.056" cy=".364" rx="1" ry="1"/>
          <ellipse cx="60.14" cy="3.278" rx="1" ry="1"/>
          <ellipse cx="37.542" cy="9.105" rx="1" ry="1"/>
          <ellipse cx="48.477" cy="12.747" rx="1" ry="1"/>
          <ellipse cx="18.589" cy="8.377" rx="1" ry="1"/>
          <ellipse cx=".364" cy="5.463" rx="1" ry="1"/>
          <ellipse cx="10.57" cy="6.191" rx="1" ry="1"/>
        </g>
      </g>
      <g transform="translate(.729)">
        <path fill="#69A7FF" d="M76.6130694 155.50961C78.250377 155.749837 78.5900658 156.307551 77.3717856 156.7553L63.0213479 162.029452C61.8030677 162.477201 59.4873943 162.645566 57.8491465 162.405506L1.48925548 154.146832C-.14899232 153.906772-.487561481 153.34886.733040098 152.9007L15.1108224 147.621706C16.331424 147.173546 18.6482171 147.004983 20.2855247 147.245209L76.6130694 155.50961zM86.8186769 132.200968C88.4559845 132.441195 88.7956733 132.998909 87.5773931 133.446658L73.2269554 138.72081C72.0086752 139.168559 69.6930018 139.336924 68.054754 139.096864L33.5640218 134.480166C31.925774 134.240106 31.5872049 133.682193 32.8078065 133.234033L47.1855887 127.95504C48.4061903 127.506879 50.7229835 127.338316 52.360291 127.578542L86.8186769 132.200968zM95.5663404 111.077511C97.203648 111.317738 97.5433368 111.875452 96.3250567 112.323201L81.9746189 117.597353C80.7563388 118.045102 78.4406653 118.213468 76.8024175 117.973408L42.3116854 113.356709C40.6734376 113.116649 40.3348684 112.558736 41.55547 112.110576L55.9332523 106.831583C57.1538539 106.383423 59.470647 106.214859 61.1079546 106.455086L95.5663404 111.077511z"/>
        <path fill="#69A7FF" d="M105.042976 89.9540545C106.680284 90.194281 107.019972 90.7519953 105.801692 91.1997443L91.4512544 96.4738964C90.2329743 96.9216455 87.9173008 97.0900107 86.279053 96.8499508L51.7883209 92.2332522C50.1500731 91.9931922 49.8115039 91.4352796 51.0321055 90.9871196L65.4098878 85.7081259C66.6304894 85.2599659 68.9472825 85.0914024 70.5845901 85.3316288L105.042976 89.9540545zM113.790639 68.8305977C115.427947 69.0708242 115.767636 69.6285385 114.549356 70.0762876L100.198918 75.3504396C98.9806378 75.7981887 96.6649644 75.9665539 95.0267166 75.726494L60.5359845 71.1097954C58.8977367 70.8697354 58.5591675 70.3118228 59.7797691 69.8636628L74.1575514 64.5846691C75.3781529 64.1365091 77.6949461 63.9679456 79.3322536 64.208172L113.790639 68.8305977zM123.267275 47.7071409C124.904583 47.9473674 125.244271 48.5050817 124.025991 48.9528308L109.675554 54.2269829C108.457273 54.6747319 106.1416 54.8430972 104.503352 54.6030372L70.01262 49.9863386C68.3743722 49.7462786 68.035803 49.1883661 69.2564046 48.740206L83.6341869 43.4612123C84.8547885 43.0130523 87.1715816 42.8444888 88.8088892 43.0847152L123.267275 47.7071409zM132.014939 26.5836841C133.652246 26.8239106 133.991935 27.3816249 132.773655 27.829374L118.423217 33.1035261C117.204937 33.5512751 114.889263 33.7196404 113.251016 33.4795804L78.7602835 28.8628818C77.1220357 28.6228219 76.7834666 28.0649093 78.0040681 27.6167492L92.3818504 22.3377556C93.602452 21.8895955 95.9192451 21.721032 97.5565527 21.9612584L132.014939 26.5836841z" opacity=".838"/>
        <path fill="#253250" d="M153.155125,6.91701747 C154.792433,7.15724392 155.132122,7.71495826 153.913842,8.16270731 L139.563404,13.4368594 C138.345124,13.8846084 136.02945,14.0529737 134.391203,13.8129137 L78.0313116,7.01102998 C76.3930638,6.77097 76.0544946,6.21305741 77.2750962,5.76489734 L91.6528785,0.485903707 C92.87348,0.0377436335 95.1902732,-0.130819869 96.8275808,0.109406586 L153.155125,6.91701747 Z" opacity=".838"/>
      </g>
    </g>
    <g transform="rotate(-4 99.636 -1367.495)">
      <path fill="#43BC60" d="M25.2105886,16.4229247 C25.0115119,16.6804037 24.7933594,16.8546753 24.5539674,16.8546753 C24.1936149,16.8546753 23.3303474,16.9986133 22.6903305,16.9986133 C22.4929556,16.9986133 22.4470625,17.1402576 22.3234336,17.6618388 C22.265226,17.9074125 22.3838652,18.2367255 22.4772307,18.5700261 C23.3731003,19.1218436 24.413433,19.3617236 25.3362342,19.659314 C26.9015565,20.1641083 27.5878116,20.11683 28.5244944,21.2965709 C29.3683367,22.3593803 29.7295021,23.6470489 30.0390988,24.6892297 C30.3486955,25.7314105 30.4975234,26.0668983 30.7214227,26.5445445 C30.7631642,26.6335919 30.8211689,26.7567642 30.8873422,26.8992291 C30.9816764,26.8650622 31.0760001,26.8466397 31.1689671,26.8466397 C31.5985341,26.8466397 32.2166051,28.3859548 32.5766566,29.0568895 C33.0659351,29.9686312 33.6248741,31.1382929 33.961318,31.3584297 C34.6995809,31.8414785 36.0337398,32.8798339 38.3141277,34.353106 C40.0865401,35.4981944 39.5999661,35.3427013 40.3567928,35.5558321 C40.6551427,35.6398508 41.6099138,35.5962717 41.9790665,35.8445058 C42.6006735,36.2625011 42.7673257,37.1957108 42.586503,37.4847731 C42.4056803,37.7738355 42.0354855,36.8181145 42.1405342,37.1364763 C42.60222,38.5356674 42.1461057,38.8365174 42.0457307,38.9687401 C41.5491367,39.6228972 39.5294838,39.1759158 39.411529,38.3314727 C39.3433815,37.8436013 39.0875389,37.3951998 38.7200224,37.2348912 C36.2180347,36.1435388 33.0068866,34.8613187 32.566477,34.353106 C32.0208318,33.723456 30.4544608,31.5685107 29.7083349,30.4531106 C29.5004994,30.7117938 29.2206703,31.0984108 29.0652107,31.1208494 C28.9009033,31.144565 28.6255613,30.6124115 28.3380208,30.4531173 C28.2606897,30.4102768 27.9682426,32.6862637 27.9013978,33.3391378 C27.7671464,34.6503747 27.9917668,37.2250327 28.0808334,38.3808815 C28.1660947,39.4873483 28.47385,40.6960373 28.6519821,41.7890919 L29.1807244,41.9061845 C30.0020647,43.3970804 30.6695642,45.2295514 31.183223,47.4035976 C31.9537111,50.6646669 31.6847973,49.358468 32.9686267,55.1921045 C34.2524561,61.0257411 35.8106022,66.43411 35.9828346,68.7985299 C36.0332503,69.4906405 34.1108614,79.0433208 32.8879625,86.499493 C33.0300343,86.4400474 33.0812638,86.4367775 33.0672198,86.5763436 C33.0029633,87.2149111 32.96483,87.659716 32.8722089,88.2598045 C32.8244054,88.5695215 32.6882183,88.7528236 32.4980136,88.8561203 C32.5832898,89.0867976 32.6349527,89.3440785 32.6443414,89.6162715 C32.7200822,89.5605511 32.8021732,89.5444795 32.9080875,89.5926492 C33.3919071,89.8126897 33.8293206,90.1392185 34.1929523,90.5657084 C34.7904318,91.2664697 37.036208,92.8756789 37.0364977,93.0042653 C37.0369688,93.2133071 29.1377917,92.3400282 29.1326208,92.0437894 C29.1256646,91.6452671 29.1941652,89.7631837 29.4045297,89.4725358 C29.4580486,89.398592 29.5008588,89.3629386 29.5380614,89.3569112 C29.5255562,89.263727 29.5189824,89.1723985 29.5189824,89.0840471 C29.5189824,88.9373464 29.5371064,88.8065916 29.5704139,88.6901867 C29.4322177,88.5343886 29.34301,88.2640463 29.3290263,87.8017548 C29.2919775,87.4860036 29.3071301,87.0681543 29.3903714,86.5131733 C29.6319577,84.9024831 30.2132413,77.7309275 30.6047168,74.9547789 C31.1225081,71.2828605 31.337243,69.2575108 30.8293384,67.6776299 C30.6646927,67.1654852 29.533413,63.6402213 27.9207797,59.4236322 C27.0129474,57.0499024 25.9997807,54.2133798 24.9920113,51.7968787 C24.7169278,51.1372639 23.951699,51.6881181 23.8838574,52.6406135 C23.6830842,55.4594708 24.0378667,64.4172312 23.6387462,66.683026 C23.4412483,67.8042158 22.3240572,72.9145945 20.8738761,78.179022 C20.3147019,80.2089282 19.5385066,82.0700027 19.1365629,84.0514822 C19.1624252,84.0641725 19.184739,84.0853941 19.2034426,84.1163258 C19.5042712,84.6138294 19.3683454,84.7765164 19.2865528,85.4554051 C19.2047602,86.1342939 19.5538876,86.3795214 19.2866527,86.8952845 C19.2611345,86.9445346 19.2291354,86.9898184 19.1913794,87.031391 C19.2947328,87.141966 19.3540987,87.2695301 19.3540987,87.4165488 C19.3540987,87.4374958 19.3534177,87.4581208 19.3520643,87.4784398 C19.3681557,87.4375946 19.3836473,87.3958412 19.398515,87.3531603 C19.6347998,86.6748532 20.101996,87.0636431 20.3060806,87.3745698 C20.7793963,88.0956753 21.136377,88.7367273 21.8871383,88.9473449 C22.7288818,89.1834865 23.6178249,89.7968977 24.5539674,90.7875786 L16.0065254,89.745549 C15.4003048,90.0343825 15.0091408,89.9128847 14.756789,89.593192 L13.8440613,89.4819202 C14.0723164,89.3815341 14.3136708,89.3091848 14.5681246,89.2648723 C14.2851818,88.5976915 14.2987604,87.5845766 14.2987604,87.088325 C14.2987604,86.8840894 14.3462844,86.7335198 14.429822,86.6228603 C14.2970452,86.3475856 14.2463816,85.9837814 14.2994152,85.5017379 C14.4394904,84.2285404 15.9663873,76.1768766 16.5369415,73.3862316 C17.1074958,70.5955866 18.4757542,66.754662 18.5045746,65.2600317 C18.5710045,61.8149662 15.7993675,52.1807376 15.6274249,47.1700834 C15.5935477,46.1828521 15.5882989,45.6754959 15.5866272,45.1718658 C15.2184041,45.0189467 14.8814286,44.8488051 14.5908049,44.6586682 C14.4927108,44.5944915 14.4388408,41.4570012 14.3660435,39.8282944 C14.2841593,37.9962885 14.245471,36.8660133 14.0259923,33.9878667 C14.0160122,33.8569925 14.0019949,33.6955784 13.9850693,33.5047094 C13.8157326,33.524308 13.626689,33.4630262 13.4254651,33.3035946 C12.2593676,32.3796853 11.9344686,28.6961763 11.9816924,25.8314234 C11.8548894,25.4284187 11.8133019,24.7985113 11.9262494,23.818222 C12.0824571,22.4624712 12.5862647,20.4662011 13.1152478,19.4933508 C13.3382383,19.0832499 14.1453437,18.6575657 15.325847,18.0731134 C15.8006078,17.8380654 16.8424118,17.6863803 17.9440927,17.6167818 C17.9690707,17.3326372 18.0250785,17.004387 18.1151545,16.6237932 C16.1280619,13.8998562 14.3531304,10.3544796 14.5788585,8.8700948 C14.7069747,8.02760444 15.1129175,7.27383132 15.7690141,7.16001913 C15.7745886,7.15905213 15.780236,7.15812019 15.7859552,7.15722291 C15.514306,6.93370351 15.3804943,6.65283016 15.4356177,6.29560715 C15.6996642,4.58447465 20.4939322,3.59168522 21.5789985,3.50534866 C22.6640648,3.41901211 26.3240588,4.51813935 26.3240588,5.83459976 C26.3240588,6.29811658 26.1379586,6.77266546 25.775022,7.18012878 C25.9734193,7.39679173 26.1552127,7.66782868 26.3235722,7.99447849 C26.3860606,7.88139808 26.5188747,7.77776667 26.6904794,7.74104966 C26.9330746,7.6891433 27.1671023,7.73972144 27.1990858,7.88368149 C27.2310693,8.02764154 27.0281993,8.28392177 26.7826803,8.33331251 C26.6761538,8.35474232 26.5685472,8.3499137 26.4807256,8.32475396 C26.6702646,8.74920074 26.9232113,9.38782648 27.0369673,9.78494618 C27.1239851,10.0887238 26.4174168,10.605682 26.5077482,10.8273611 C26.5969687,11.0463141 27.3747229,11.3826885 27.3747229,11.7023513 C27.3747229,11.9969384 27.3046272,12.1594093 27.2004329,12.2765348 C27.4433012,12.8666077 27.2766056,13.8669143 27.1936308,14.5185218 C27.1300347,15.0179459 27.0330418,15.6532314 26.780269,15.9835894 C26.2554427,16.6695041 26.2213087,16.8733007 25.306298,16.466574 C25.2743683,16.4523811 25.2424457,16.437817 25.2105886,16.4229247 Z M18.9837134,88.1455976 C18.590881,88.4897825 17.9069342,88.7821158 17.0355318,89.2126006 C17.7278171,89.1098009 18.4705208,88.8290805 18.9837134,88.1455976 Z" opacity=".2"/>
      <g transform="rotate(3 -1595.642 63.337)">
        <path fill="#FBD2CF" d="M20.361083 6.67363273C21.4196732 6.67363273 22.2778302 5.81987111 22.2778302 4.76670279 22.2778302 3.71353446 21.4196732 2.85977284 20.361083 2.85977284 19.3024927 2.85977284 18.0350832 3.09111706 18.0350832 4.14428539 18.0350832 5.19745371 19.3024927 6.67363273 20.361083 6.67363273zM3.5805684 4.00928698C6.14779911 2.97058094 5.95842166 2.67238339 5.95842166 1.7508611 5.95842166.829338818 4.77148244.672159574 3.5805684.672159574 2.38965435.672159574 1.07687022.501115079 1.07687022 1.42263737 1.07687022 2.34415965 1.01333768 5.04799302 3.5805684 4.00928698z"/>
        <path fill="#FFFFFF" d="M18.1776434,10.9421776 C19.3447304,11.0578004 21.5851499,11.2907491 22.8799718,11.3718158 C24.1706981,11.4526262 25.9509395,11.6960871 27.5487239,11.3718158 C30.7493627,10.7222444 32.1690078,9.40394261 28.2935929,7.89785407 C28.0447099,7.80113158 25.2204633,6.34457768 24.4264914,5.63349561 C23.9432726,5.20072441 23.3575912,4.86661143 22.7064315,4.63816064 C22.026061,4.39946164 22.0473091,5.63349561 20.2560446,5.63349561 C18.1776434,5.63349561 18.5357685,3.88794068 17.9562003,4.45692004 C17.6639282,4.74385233 17.5540607,5.23491266 17.5540607,5.63349561 C17.5540607,5.92977959 17.6332481,6.7355306 17.4535259,7.27379182 C17.202583,8.02535624 16.7663986,8.79439505 16.7482825,9.50350072 C16.7273074,10.3245128 17.1939916,10.8447276 18.1776434,10.9421776 Z" transform="rotate(-1 23.691 7.94)"/>
        <path fill="#FFFFFF" d="M5.44490202,8.58358706 C6.33041652,8.29086759 6.53056872,7.66859895 8.28296255,7.36671031 C11.7422006,6.77077995 13.198494,5.98448146 12.9573008,4.74146391 C12.8220428,4.04439587 11.108553,3.63586959 9.39537436,3.28165721 C8.37670448,3.07103967 7.89233556,2.42998761 7.25011748,1.70888218 C6.97320549,1.39795549 6.33929078,1.00916552 6.01868784,1.68747266 C5.03943076,3.75930969 4.04314425,3.64552823 2.82178136,3.56452825 C1.50573309,3.4772488 0.845126271,1.44411606 0.643900243,2.98555447 C0.411797233,4.76351777 0.127184302,6.07960546 0.169542881,7.22565115 C0.216373234,8.49268435 1.73724398,8.86658876 2.72701142,8.97238305 C3.78744675,9.08573089 4.55938751,8.87630653 5.44490202,8.58358706 Z"/>
      </g>
      <g transform="rotate(3 -706.059 104.684)">
        <path fill="#24263C" d="M0.635179284,0.741682252 L16.1136411,3.54213813 C17.2632112,5.01847255 18.2121629,6.83901502 18.9604962,9.00376553 C20.0829962,12.2508913 19.6872451,10.9495845 21.5670848,16.7599266 C23.4469246,22.5702688 25.6888436,27.9506206 25.9784915,30.3116745 C26.0705831,31.0623555 23.2526896,42.3054989 21.8379643,49.9427139 C21.6592919,50.9072541 20.5305292,50.5197049 19.4104789,50.4476355 C18.2093277,50.3703477 17.0314648,50.4965008 17.4543633,48.1386742 C17.743968,46.524013 18.3627376,39.343405 18.8280898,36.560847 C19.4435955,32.8804511 19.6869531,30.8516622 18.9604962,29.2808861 C18.7250031,28.7716928 17.1067817,25.2667094 14.8191647,21.0789069 C13.5313502,18.7213824 12.0896755,15.9029741 10.6652692,13.504429 C10.2764594,12.8497156 9.25136179,13.4138409 9.18188044,14.3673753 C8.97625425,17.1893072 9.66968962,26.1395115 9.18188044,28.4119268 C8.94049641,29.5363927 7.60989318,34.229285 6.76085116,39.1559991 C6.30827687,41.7821403 5.89791049,43.5617299 5.52493807,45.9011299 C5.45916427,46.3136838 4.7583157,47.2788026 4.68369119,47.5343665 C4.44316807,48.3580775 3.46797958,48.6329259 2.33411693,48.4576565 C1.20025428,48.2823872 0.483211154,47.8265883 0.635179284,46.6142743 C0.795061533,45.3388261 1.22738539,38.0513739 1.71033719,34.2256382 C2.18399438,30.4735305 2.91429735,29.1131214 2.91800306,27.6182157 C2.92654458,24.1725155 1.16944593,14.0106558 0.817527584,9.00376553 C0.675853924,6.9881148 0.743768915,6.97350078 0.635179284,4.90254108 C0.587689087,3.99683505 0.587689087,2.60988211 0.635179284,0.741682252 Z" transform="rotate(1 13.29 25.663)"/>
        <path fill="#5C5E79" d="M21.883544,48.2177935 C21.8114924,48.8573852 21.7702922,49.3027878 21.6588488,49.9044014 C21.4801764,50.8689416 20.1155925,50.6287079 18.9955422,50.5566385 C17.794391,50.4793507 16.4461246,51.219946 16.9385754,48.1943712 C16.9828924,47.9220913 17.6952787,48.5825343 19.5322445,48.5349972 C21.3692102,48.4874602 21.9252637,47.847454 21.883544,48.2177935 Z" transform="rotate(1 19.36 49.37)"/>
        <path fill="#5C5E79" d="M5.30699648,44.9163409 C5.72689429,45.4085186 5.54634401,45.573553 5.45145698,46.2537658 C5.35656995,46.9339786 5.30699648,47.2969385 4.95666769,47.817287 C4.44529198,48.5768407 3.8348715,48.4108166 2.70100885,48.2355473 C1.5671462,48.0602779 0.114197367,47.6496054 0.266165496,46.4372915 C0.294609293,46.2103833 0.342791599,45.8562236 0.426332795,45.4085186 C0.590802221,44.5271118 0.445350021,46.2537658 2.70100885,46.2537658 C4.95666769,46.2537658 4.92012409,44.4628736 5.30699648,44.9163409 Z" transform="rotate(1 2.914 46.613)"/>
      </g>
      <g transform="translate(.714 15.808)">
        <g fill="#FBD2CF" transform="translate(.677 5.081)">
          <path d="M24.9356616 13.1279374C25.5332309 13.6361502 29.8902746 14.9183703 33.2850946 16.0097227 33.7837591 16.1700313 34.1308989 16.6184328 34.2233649 17.1063042 34.3834117 17.9507473 37.123776 18.3977287 37.7975792 17.7435716 37.9337729 17.6113489 38.5526513 17.3104989 37.9262132 15.9113078 37.783678 15.592946 38.2859765 16.548667 38.5313256 16.2596046 38.7766748 15.9705423 38.5505529 15.0373326 37.707126 14.6193373 37.2062415 14.3711032 35.910761 14.4146823 35.5059451 14.3306636 34.4790455 14.1175328 35.139253 14.2730259 32.7343567 13.1279374 29.6402142 11.6546654 27.8299619 10.61631 26.8282504 10.1332612 26.3717468 9.91312444 25.6133509 8.74346273 24.9494737 7.83172102 24.4609381 7.1607863 23.622309 5.62147116 23.0394513 5.62147116 21.6219555 5.62147116 19.9719942 7.94781166 20.6815823 8.80004473 21.3911703 9.65227781 24.082657 12.4024856 24.9356616 13.1279374zM.418106086 1.13810133C-.0110571964 3.73241841.0835108785 9.79020444 2.17779482 11.0131257 3.16231862 11.5880216 3.93194993 10.8867174 4.00786502 9.71889778 4.21351777 6.55529346 4.04069065 5.66519562 3.64090617 3.93936389 3.24112168 2.21353217.786217816-1.08715556.418106086 1.13810133z"/>
        </g>
        <path fill="#FFD962" d="M10.2623405,29.1997403 C12.8345112,29.4969147 14.1715324,29.532278 15.7334774,29.2703845 C18.178087,28.8604934 18.8236359,28.1018448 19.5685071,27.867256 C22.297864,27.0076758 20.3174076,23.800296 20.0424391,21.1704051 C19.9215892,20.0145563 19.6168132,17.4398983 19.7989721,16.1286614 C19.8896703,15.4757873 20.286477,13.1998004 20.3914036,13.2426409 C20.7815528,13.4019351 21.1551504,13.9340886 21.3780906,13.910373 C21.6010309,13.8866574 22.0124769,13.4561303 22.297864,13.1998004 C23.0883136,12.4898318 24.4046998,11.8516392 24.7463466,11.4234517 C24.8678244,11.2712031 23.9291182,9.81171434 23.6253206,9.33406813 C23.321523,8.85642192 23.1195859,8.52093412 22.6995099,7.47875329 C22.279434,6.43657246 21.789387,5.14890389 20.6444202,4.08609446 C19.3734829,2.90635354 18.4423382,2.95363188 16.3184319,2.44883755 C14.6210774,2.04542288 12.6306663,1.74806032 11.2327675,0.635904791 C10.6963663,0.209148896 7.30428133,0.278184796 5.7025164,0.862637031 C4.10075146,1.44708927 3.00563125,1.87277346 2.70306666,2.28287442 C1.98531648,3.25572468 1.30172551,5.25199481 1.08977524,6.60774558 C0.596740049,9.7614704 2.27389446,9.28875398 2.98942391,9.30111176 C3.81022998,9.31528777 3.27090361,7.51772022 3.4010849,10.6515166 C3.53126618,13.785313 3.85078201,15.9266287 3.93880964,16.7773903 C4.2366092,19.6555369 4.31400596,20.9562024 4.30847494,22.7932386 C4.30491639,23.9751493 3.92293101,27.4561132 4.05602989,27.52029 C6.14737259,28.5286807 7.69016982,28.902566 10.2623405,29.1997403 Z"/>
      </g>
      <g transform="rotate(-9 19.748 -31.776)">
        <g transform="translate(2.875 3.337)">
          <path fill="#FBD2CF" d="M7.93756857,10.8791747 C8.9260844,11.1954908 9.7998553,11.2349164 10.2275035,9.38990759 C10.6551518,7.54489875 10.6498007,7.60681234 10.7569693,7.10562584 C10.8244986,6.78981732 11.1599773,7.0902752 11.6039773,7.00806382 C12.0479772,6.92585244 11.4974,5.35265407 11.3105916,5.08010162 C11.1237833,4.80754918 10.7472118,4.5238318 10.626153,4.30487885 C10.5035869,4.08319972 11.4622936,3.56624152 11.3442234,3.26246389 C11.1541336,2.77338981 10.677594,1.91801778 10.4280893,1.54753374 C9.7248794,0.503352677 8.84788405,0 7.66698888,0 C5.54980836,0 3.83349444,2.13440404 3.83349444,4.76732486 C3.83349444,5.71623435 1.60217583,5.98548678 1.01687776,8.78962094 C0.934235765,9.18555468 0.856133496,9.55734183 0.745193139,9.8638299 C0.0973433739,11.6536044 0.3486236,12.4060603 1.15836718,12.8019365 C2.67374578,13.5427912 4.28695318,13.8522505 5.04317506,13.2369535 C5.67363595,12.7239814 4.86528333,11.7574436 4.94866912,11.1393566 C5.03205491,10.5212695 5.2598054,10.2470063 5.52529851,10.2055107 C6.50695106,10.0520823 7.46570522,10.7281827 7.93756857,10.8791747 Z"/>
          <path fill="#F3B8B4" d="M5.2138776 9.76470984C5.53951061 9.87088754 6.21834204 9.94353536 6.13197557 9.70182688 6.08808443 9.57899147 5.52325121 9.42472239 5.34326431 9.18266287 5.17758108 8.95983999 5.14342459 8.27207861 4.96923101 8.27207861 4.7927993 8.27207861 4.72056766 8.54413065 4.75253608 9.08823474 4.84300842 9.468433 4.99678892 9.6939247 5.2138776 9.76470984zM5.95968339 6.41694814C6.22433096 6.41694814 6.26569281 6.12162442 6.20338149 5.77500591 6.14107017 5.42838739 5.91391404 5.01817879 5.64926647 5.01817879 5.38461891 5.01817879 5.35462147 5.40572572 5.40470716 5.70513463 5.45479284 6.00454353 5.69503583 6.41694814 5.95968339 6.41694814z"/>
          <path fill="#C69E9B" d="M10.5530779,3.84259567 C10.8862101,3.79320492 11.161474,3.5369247 11.1180773,3.39296465 C11.0746805,3.24900459 10.7571403,3.19842646 10.4279751,3.25033281 C10.0988099,3.30223917 9.87483228,3.48787462 9.87693067,3.64488406 C9.87902906,3.8018935 10.2199457,3.89198641 10.5530779,3.84259567 Z" transform="rotate(-9 10.5 3.73)"/>
        </g>
        <path fill="#6B4630" d="M2.10409159,3.31360773 C2.07197365,3.16132944 2.07503509,2.98948912 2.11575193,2.79502218 C2.47402314,1.08388969 6.01245148,0.0911002572 7.48472283,0.00476369937 C8.95699418,-0.0815728585 13.923054,1.01755438 13.923054,2.33401479 C13.923054,3.48932413 12.3543399,4.71316991 9.41154131,4.79593701 C10.0147049,4.99341766 10.4074987,5.25158477 10.4074987,5.60184673 C10.4074987,6.12353594 10.2756464,6.51377207 9.81820242,6.72235508 C9.43637705,6.89645789 10.342695,9.67447052 9.76220552,9.74394372 C9.181716,9.81341692 9.07983183,7.08189449 8.6886482,7.12688734 C8.29746457,7.17188019 8.19036846,7.2365385 7.89543589,7.29070882 C7.1585191,7.42605848 7.76681853,8.24040822 6.82176199,8.54173649 C6.42185331,8.6692461 7.99204841,9.95101994 7.82315949,10.1847469 C6.20331352,12.426467 4.39495981,13.8392585 3.67394795,13.1277863 C0.886051473,10.3767761 -0.0952811369,6.57118277 0.219728808,5.04448308 C0.393563154,4.20199272 0.944366316,3.44821959 1.83459048,3.3344074 C1.93244554,3.32189696 2.02191906,3.31525438 2.10409159,3.31360773 Z"/>
      </g>
    </g>
  </g>
</svg>
