<svg xmlns="http://www.w3.org/2000/svg" width="260" height="309" viewBox="0 0 260 309">
  <defs>
    <linearGradient id="a" x1="11.048%" x2="74.065%" y1="50%" y2="83.645%">
      <stop stop-color="#BAD4C3" stop-opacity=".426" offset="0%"/>
      <stop stop-color="#BAD4C3" offset="100%"/>
    </linearGradient>
  </defs>
  <g fill="none" fill-rule="evenodd" transform="translate(-7 -11)">
    <path fill="url(#a)" d="M171.104629,307.494323 C175.734798,307.895693 179.692741,308.768688 181.866863,309.924875 C187.578129,309.75961 191.018211,309.603036 192.051953,309.549612 C201.245703,309.075435 208.109834,308.648711 213.928846,308.568599 C218.483103,308.506006 222.60568,308.588898 226.268296,308.750969 C228.422845,307.73287 233.909962,307.06223 239.745036,306.879747 C239.471248,307.150086 239.336864,307.670067 239.341894,308.43972 C242.290513,307.601986 243.921664,307.068239 244.235078,306.837693 C246.960039,306.87302 249.593869,307.022718 251.829834,307.301074 C253.173186,307.468195 254.507637,307.665678 255.792894,307.891296 C255.254278,308.025381 254.307128,308.413384 252.95154,309.055587 C257.486898,309.07072 260.141734,309.06316 260.916061,309.032954 C264.40283,310.024858 266.730144,311.28691 266.465163,312.742824 C265.247239,312.726912 263.089966,312.756831 259.993368,312.83265 C261.791374,313.212636 263.728825,313.543459 265.80573,313.825142 C264.039027,315.541351 258.386618,316.306374 252.380726,316.404835 C251.910899,316.075395 250.451946,315.495427 248.003691,314.664414 C247.668157,315.436578 247.558044,315.998692 247.673304,316.350616 C244.546176,316.229219 241.575474,315.94335 239.27392,315.534527 C231.534222,314.157215 223.325679,311.173863 225.60196,309.166452 C222.51307,309.058131 219.036774,308.989583 215.134443,308.983544 C211.274362,308.977546 201.395646,309.446702 192.272564,309.895609 C191.224843,309.947265 187.90275,310.096598 182.43008,310.257078 C182.732834,310.456803 182.983919,310.663824 183.178304,310.877297 C183.387828,311.107387 183.523885,311.336646 183.590398,311.563529 C185.743486,311.704328 187.931516,311.86777 190.154478,312.053822 C192.411803,310.435952 204.300093,309.344775 214.949835,310.50092 C214.057038,310.761888 213.390916,311.066277 212.951464,311.414067 C216.1089,311.260074 218.001913,311.11896 218.630466,310.990612 C226.518059,312.240667 231.145783,314.380018 230.866096,316.103908 C229.273038,316.078736 226.802891,316.130213 223.4557,316.258469 C226.05656,316.898801 228.083475,317.287014 229.513474,317.438834 C226.227646,319.190011 217.648726,320.493281 205.751397,318.995222 C204.748762,318.868664 203.797714,318.732239 202.896935,318.587408 C202.834674,318.131243 202.245997,317.521698 201.130832,316.758562 C200.591679,317.195653 200.281677,317.642884 200.200808,318.100199 C191.739755,316.384884 188.803725,313.897646 189.809999,312.403902 C187.770921,312.237212 185.713343,312.084261 183.637268,311.945061 C183.542143,313.932981 178.134081,315.669283 170.159548,316.060987 C169.087775,316.113722 168.015998,316.139811 166.954939,316.141044 C167.123446,315.81837 166.943859,315.445543 166.416153,315.022486 C163.932314,315.321934 162.565017,315.643319 162.314198,315.986456 C156.852277,315.611048 152.178238,314.578763 150.013265,313.180548 C151.759378,313.172331 153.344402,312.928915 154.768413,312.450522 C153.412973,312.221233 151.999777,312.083365 150.528847,312.036984 C150.294275,312.18202 149.997706,312.262578 149.636744,312.263785 C149.274322,312.264997 148.922118,312.185941 148.587966,312.041634 C144.716458,311.413162 140.20213,311.105168 135.045218,311.118343 C129.513277,311.13247 119.875568,314.297278 113.47075,314.888511 C111.213356,315.096893 118.161621,313.772548 121.857823,311.414067 C125.554024,309.055587 127.185093,305.736011 127.184616,305.746777 C127.184139,305.757543 131.030682,307.257135 133.725206,307.250828 C138.887036,307.238747 143.186141,306.906724 146.622761,306.255461 C146.856581,306.112589 147.151558,306.033495 147.510043,306.032741 C148.406946,306.030853 149.241311,306.520091 149.894259,307.272386 C150.45679,307.183631 150.837788,307.123319 150.993555,307.101776 C155.708301,306.450387 159.954605,306.301808 163.445395,306.298692 C166.915528,306.295588 169.638828,306.435538 171.367663,306.470176 C171.777173,306.478377 172.182128,306.48669 172.582545,306.495091 C174.9253,305.669354 176.847193,304.827645 178.348162,303.969777 C173.183908,303.423321 168.456409,301.223806 168.497633,298.98358 C169.502596,299.241364 170.87877,299.397806 172.62617,299.452947 C171.674011,298.732186 170.37009,298.314352 168.714439,298.199542 C168.76524,298.106502 168.825259,298.013732 168.894815,297.921349 C170.403925,295.918296 175.863135,294.791684 181.121912,294.589344 C181.593379,295.172398 182.628569,295.698715 184.227431,296.168142 C184.941646,295.505102 184.908098,294.980805 184.432116,294.586786 C184.953131,294.607152 185.462221,294.637698 185.954637,294.678478 C192.163997,295.192059 197.940758,297.515284 195.946238,300.143858 C195.886903,300.222124 195.821518,300.299606 195.750333,300.376269 C194.517322,300.440941 192.775051,300.671686 190.523609,301.068764 C191.811462,301.258407 193.109111,301.363201 194.416577,301.383206 C191.214106,303.217265 184.670131,304.345272 179.582342,304.068104 C178.163844,304.924653 176.34138,305.744604 174.114998,306.528101 C185.102381,306.770185 192.481615,307.057521 196.644253,306.844797 C192.41971,305.170154 195.0284,302.839245 202.458997,301.305125 C203.817471,301.025217 205.257025,300.808881 206.726718,300.651815 C206.629851,301.067031 206.905505,301.493693 207.553647,301.931705 C209.534704,301.247926 210.532815,300.729387 210.547828,300.375647 C214.807681,300.208021 218.95483,300.49682 221.784352,301.140883 C221.114024,301.379161 220.465432,301.821614 219.838616,302.468353 C222.172971,302.22478 223.541751,302.007314 223.973131,301.825989 C226.198815,302.800307 226.489556,304.130021 224.677126,305.305483 C223.255658,305.30818 221.272325,305.403833 218.727179,305.592588 C220.306267,305.888091 221.678184,306.083739 222.842965,306.179631 C221.810683,306.556372 220.508792,306.897305 218.929774,307.179659 C212.27046,308.372646 202.440006,308.330931 197.697555,307.154979 C192.689915,307.498146 183.061412,307.112659 173.125398,306.865408 C172.482245,307.077781 171.808655,307.287419 171.104629,307.494323 Z M171.610736,306.828863 C170.981974,306.814241 170.352861,306.80035 169.724482,306.787409 C163.276693,306.654414 158.953349,306.498506 151.991355,307.421082 C151.694813,307.46044 151.08367,307.558951 150.224384,307.696904 C150.526291,308.129838 150.774212,308.622135 150.951795,309.142439 C150.973308,309.20547 150.99351,309.268093 151.012391,309.330255 C152.846098,308.526428 155.70417,307.886086 159.264023,307.537679 C159.776865,307.851869 161.032404,308.041231 163.030641,308.105765 C163.275931,307.81051 163.233252,307.540832 162.902589,307.296683 C165.263325,307.209391 167.613073,307.249494 169.837111,307.397339 C170.450874,307.208691 171.042083,307.0192 171.610736,306.828863 Z" opacity=".392"/>
    <path fill="#C9E8D1" d="M102.560173,315.636364 C115.395401,315.636364 125.800409,310.62766 125.800409,307.561772 C125.800409,304.495883 115.395401,301.283217 102.560173,301.283217 C89.7249446,301.283217 79.3199364,304.495883 79.3199364,307.561772 C79.3199364,310.62766 89.7249446,315.636364 102.560173,315.636364 Z" opacity=".503"/>
    <path fill="#C6F3D2" d="M102.580381,229.819935 C113.741449,229.819935 122.937034,228.243498 122.937034,225.456327 C122.937034,222.669156 113.741449,221.092719 102.580381,221.092719 C91.4193136,221.092719 82.2151642,222.669156 82.2151642,225.456327 C82.2151642,228.243498 91.4193136,229.819935 102.580381,229.819935 Z" opacity=".323"/>
    <path fill="#8AD4A0" d="M139.33854,155.307295 C149.525986,154.511812 163.86591,144.248143 168.713027,125.672093 C165.785771,126.499467 162.756645,126.919304 159.625649,126.931603 C163.61275,123.441968 167.01553,121.163675 169.833988,120.096726 C170.096529,118.271535 170.270533,116.379123 170.345876,114.420347 C171.240002,91.174834 156.887764,79.4553803 143.484231,77.6281986 C143.555155,80.3804222 142.551281,84.660645 140.47261,90.4688671 C137.211267,85.0378049 135.082351,80.9424235 134.085862,78.1827229 C123.000559,81.3746557 112.846866,93.7147707 110.691279,109.645525 C111.956899,110.431401 114.221499,113.318705 117.485077,118.307437 C114.976421,118.303969 112.575721,117.827336 110.282978,116.877538 C110.782409,137.988937 127.433611,156.236888 139.33854,155.307295 Z" transform="rotate(24 140.334 116.485)"/>
    <path fill="#A0DCB0" d="M71.3857051,140.630938 C83.5233664,140.630938 95.3420325,123.806077 95.3420325,107.08305 C95.3420325,103.500047 94.761768,100.118412 93.7305087,97.0163353 C92.1021956,98.4593 89.74156,99.8325615 86.648602,101.13612 C88.0704586,96.4093081 89.4534635,92.92862 90.7976166,90.6940556 C86.2229042,83.2121442 78.809889,78.4106641 71.462214,78.0459341 C72.0277775,79.4470322 71.8857295,82.4792387 71.0360698,87.1425538 C68.1270579,83.5672157 66.3500121,80.7759189 65.7049322,78.7686633 C59.5618827,80.6599361 54.0743321,86.0221481 50.9247526,93.3628615 C52.8032002,94.7814737 54.6282088,98.3907416 56.3997782,104.190665 C53.4414163,103.480115 50.8984186,102.230735 48.770785,100.442524 C48.2134011,103.365477 48.0007962,106.474331 48.2040881,109.706001 C49.3162032,127.384956 59.2480438,140.630938 71.3857051,140.630938 Z" transform="rotate(-31 71.735 109.338)"/>
    <path fill="#8AD4A0" d="M36.5662606,182.869223 C37.2002824,182.869223 37.8317049,182.851992 38.4599349,182.81824 C38.320067,179.762372 40.3268775,176.922909 44.4803663,174.299853 C45.0520364,177.438664 44.7721995,180.059836 43.6408557,182.16337 C58.6695972,179.172062 70.7126552,167.234218 70.7126552,157.202181 C70.7126552,147.570115 59.6220398,136.82477 45.4386659,133.499643 C46.0000001,135.821287 46.006137,138.238324 45.4570768,140.750752 C41.689271,137.326696 39.2687709,134.575726 38.1955766,132.497842 C37.660039,132.474904 37.1222385,132.46324 36.5825401,132.46324 C18.4458049,132.46324 6.44446606,145.684707 6.44446606,157.251468 C6.44446606,158.168704 6.51983271,159.101562 6.66765711,160.041797 C9.0608198,158.629048 12.6264178,157.86903 17.3644511,157.761743 C15.1376117,161.464869 12.1702918,164.157714 8.4624915,165.840279 C12.5973031,174.789545 22.813097,182.869223 36.5662606,182.869223 Z" transform="rotate(17 38.579 157.666)"/>
    <path fill="#92D7A4" d="M119.425102,87.599906 C133.934491,87.599906 147.060766,67.1741447 150.209325,51.0266125 C151.135641,46.2759552 150.804114,40.6581928 149.320529,35.1266535 C147.174862,36.0719003 143.535476,37.085772 138.40237,38.1682685 C141.900695,32.2676433 144.524731,28.5693728 146.274477,27.0734571 C141.325663,17.1570203 132.395406,9.26542842 120.212585,9.96720802 C119.924245,14.0702034 119.224209,18.0429489 118.112478,21.8854446 C115.387786,16.8324877 113.634901,13.2633156 112.853825,11.1779283 C103.40235,13.8557215 97.0680093,20.4806995 93.3021627,28.4741166 C94.0585927,29.7119231 96.0419327,34.1616355 99.2521827,41.8232537 C94.1876231,40.9173763 91.0329624,40.1551281 89.7882008,39.5365091 C89.2947068,42.1806672 89.0164303,44.8470196 88.937954,47.4631014 C88.8073368,51.8173529 89.7851035,56.564771 91.5552861,61.2206991 C93.245404,61.2552682 97.8192766,62.8582115 105.276904,66.0295289 C100.409042,67.6790767 97.0192338,68.5620197 95.1074802,68.6783579 C101.131227,79.1393049 110.641004,87.599906 119.425102,87.599906 Z" transform="rotate(24 119.826 48.762)"/>
    <path fill="#67C780" d="M17.7311917,151.125738 C35.9546727,153.321553 50.6991313,156.817713 61.9645676,161.614216 C73.2300039,166.410719 83.5660237,173.878256 92.972627,184.016825 L92.972627,186.922187 C83.0456865,176.559284 72.7096667,168.886816 61.9645676,163.904784 C51.2194685,158.922751 36.4750099,154.943593 17.7311917,151.96731 L17.7311917,151.125738 Z"/>
    <path fill="#67C780" d="M59.3288484,90.8199332 L59.9073454,90.4327611 C75.7406003,100.813652 85.8700145,115.362223 90.2955881,134.078473 C92.7643348,144.519082 89.1381042,164.980241 87.4719159,185.206133 C86.5050713,196.942677 85.4214003,204.770462 91.3507771,218.110056 C92.9032694,221.602769 108.87117,248.282614 109.530193,266.993995 C109.969542,279.468248 106.817221,293.022395 100.073232,307.656434 L95.8359045,307.656434 C103.544172,288.11912 107.025377,273.362812 106.279518,263.38751 C105.16073,248.424556 90.2793436,221.965743 89.2488774,219.739391 C85.0599109,210.68901 84.1481662,202.811944 84.1772339,196.410858 C84.2061296,190.047646 85.1627646,185.142996 85.4149308,181.995456 C87.2788279,158.730291 89.803506,143.664478 88.1559219,135.373506 C84.5500947,117.228262 74.9410702,102.377071 59.3288484,90.8199332 Z" opacity=".818"/>
    <path fill="#67C780" d="M150.556312,92.3911821 L151.400684,92.8261113 C144.212708,105.996628 138.10966,118.28082 133.09154,129.678688 C128.07342,141.076555 124.043192,152.936793 121.000856,165.259401 L118.474744,165.259401 C121.235187,153.577068 125.390656,141.432365 130.941151,128.825291 C136.491646,116.218218 143.030033,104.073515 150.556312,92.3911821 Z"/>
    <path fill="#67C780" d="M70.0568049,30.8014386 L71.2768926,30.9233963 C69.7963325,38.147478 68.7416544,48.5962299 68.1128584,62.2696518 C67.7158787,70.9021364 67.5550345,87.9395919 78.8959705,114.499575 C81.6737085,121.004917 91.8270736,136.630138 101.292337,151.031468 C103.111674,153.799576 111.284833,166.710721 122.839858,189.645272 C125.867847,195.655261 131.266828,227.348917 146.538812,265.027075 C150.21283,274.091401 157.341927,284.702636 167.926102,296.86078 L163.504643,298.920253 C153.068927,284.803318 146.231593,273.566724 142.992642,265.210472 C128.578936,228.024183 123.598877,196.181114 120.637995,190.307407 C109.161285,167.540264 101.052431,154.775026 99.2833914,152.131325 C89.6040054,137.666183 81.9133293,127.023094 77.1620163,117.406319 C65.1278574,93.0488847 66.0004436,73.0624956 66.3596384,63.8045106 C66.9259098,49.2092787 68.1582986,38.2082547 70.0568049,30.8014386 Z" transform="rotate(24 117.058 164.86)"/>
    <path fill="#C6F3D2" d="M82.3700415,225.301865 C84.6244286,228.332759 91.3612085,229.838795 102.580381,229.819972 C113.799554,229.801149 120.52565,228.295113 122.75867,225.301865 C117.715376,232.367133 115.183538,241.095876 115.163156,251.488095 C115.143249,261.637802 133.424219,263.371575 134.847039,279.298965 C135.285547,284.207738 132.354715,293.657342 126.054541,307.647774 C121.760137,312.979064 113.935417,315.644273 102.580381,315.6434 C91.2253463,315.642528 83.4858078,312.977319 79.3617659,307.647774 C72.8480282,293.95733 69.8193509,284.507727 70.2757342,279.298965 C71.5767593,264.450193 89.958713,261.637557 89.958713,251.488095 C89.958713,241.095876 87.4291558,232.367133 82.3700415,225.301865 Z" opacity=".48"/>
    <path fill="#FFFFFF" d="M127.253156,286.404681 L127.37196,288.855896 L125.051906,288.562088 L124.942345,285.755964 L127.253156,286.404681 Z M124.495787,280.685729 L126.834164,282.028412 C127.215301,285.0664 127.405869,288.065438 127.405869,291.025528 C127.405869,293.985617 127.215301,296.842048 126.834164,299.59482 L124.495787,298.252138 C124.876924,295.820239 125.067492,293.092336 125.067492,290.068428 C125.067492,287.04452 124.876924,283.916954 124.495787,280.685729 Z" opacity=".42" transform="rotate(19 125.95 290.14)"/>
    <path fill="#80CF95" d="M120.845165,216.635737 C123.44526,219.993419 124.5011,223.256589 124.012684,226.425248 C133.563641,224.804991 141.580825,218.053263 145.677935,208.802448 C143.573127,207.786308 141.95528,204.788865 140.824396,199.810118 C143.683624,199.551392 146.114333,199.839108 148.116523,200.673267 C148.441375,198.754596 148.61124,196.775746 148.61124,194.753132 C148.61124,177.054594 135.604979,162.707094 119.560944,162.707094 C103.905057,162.707094 91.1417394,176.368783 90.5333452,193.474647 C92.1887937,193.277705 93.9198449,193.643403 95.7264987,194.571743 C94.7097182,198.078601 93.1236188,200.037798 90.9682007,200.449335 C93.2170789,214.277763 103.50774,225.028304 116.310272,226.600788 C116.76182,222.80079 118.273451,219.479107 120.845165,216.635737 Z" transform="rotate(-9 119.572 194.654)"/>
  </g>
</svg>
