<?xml version="1.0" standalone="no"?>
<!DOCTYPE svg PUBLIC "-//W3C//DTD SVG 1.1//EN" "http://www.w3.org/Graphics/SVG/1.1/DTD/svg11.dtd" >
<!--
2013-9-30: Created.
-->
<svg>
<metadata>
Created by iconfont
</metadata>
<defs>

<font id="cds-icon" horiz-adv-x="1024" >
  <font-face
    font-family="cds-icon"
    font-weight="500"
    font-stretch="normal"
    units-per-em="1024"
    ascent="896"
    descent="-128"
  />
    <missing-glyph />
    
    <glyph glyph-name="sousuo1" unicode="&#59052;" d="M947.456 8.128l-167.04 163.072a392.384 392.384 0 0 1 99.008 261.056c0 106.88-42.688 206.848-119.36 282.368A407.936 407.936 0 0 1 472.192 832c-109.12 0-211.2-41.792-288.384-116.864A393.472 393.472 0 0 1 64 432.256c0-106.88 42.624-206.848 119.296-282.432a409.6 409.6 0 0 1 288.384-116.864 412.672 412.672 0 0 1 246.272 80.576l168.576-165.12a43.968 43.968 0 0 1 30.464-12.416 42.688 42.688 0 0 1 30.464 12.416 41.728 41.728 0 0 1 0 59.712zM149.76 432.256c0 174.016 144.64 315.2 321.92 315.2 177.664 0 321.856-141.696 321.856-315.2 0-174.08-144.192-315.264-321.92-315.264-177.664 0-321.92 141.696-321.92 315.264z"  horiz-adv-x="1024" />

    
    <glyph glyph-name="sanjiaoxing-xia" unicode="&#59051;" d="M168.228571 603.428571h680.228572c21.942857 0 29.257143-21.942857 14.628571-36.571428L533.942857 179.2c-7.314286-14.628571-36.571429-14.628571-43.885714 0L153.6 566.857143c-14.628571 14.628571 0 36.571429 14.628571 36.571428z"  horiz-adv-x="1024" />

    
    <glyph glyph-name="zuojiantou" unicode="&#59050;" d="M512 384m-512 0a512 512 0 1 1 1024 0 512 512 0 1 1-1024 0ZM419.2 393.6c-6.4-6.4-6.4-12.8 0-19.2l156.8-147.2c6.4-6.4 19.2-6.4 25.6 3.2 3.2 6.4 3.2 16-3.2 19.2L457.6 384l144 134.4c6.4 6.4 6.4 16 0 22.4-6.4 6.4-19.2 6.4-25.6 0l-156.8-147.2z"  horiz-adv-x="1024" />

    
    <glyph glyph-name="touxiang" unicode="&#59049;" d="M530.304 373.077333c144.810667 0 263.296 118.485333 263.296 263.296 0 46.08-13.184 92.16-39.509333 131.669334-72.405333 118.485333-230.4 164.565333-355.456 92.16C273.493333 781.226667 227.413333 623.232 299.904 498.133333c46.08-78.976 131.626667-131.626667 230.4-125.056z m263.296-85.589333c-13.184 6.613333-19.754667 6.613333-32.896 13.184-32.938667 6.570667-52.693333 13.141333-85.589333 13.141333H378.88c-32.896 0-52.650667-6.570667-85.589333-13.141333-59.221333-13.184-118.485333-46.08-157.994667-85.589333C69.546667 149.248 36.565333 63.658667 36.565333-28.501333c0-46.08 39.509333-85.546667 85.589334-85.546667h816.256c46.08 0 85.589333 39.466667 85.589333 85.546667v46.08c-19.754667 118.528-111.914667 223.829333-230.4 269.909333z"  horiz-adv-x="1066" />

    
    <glyph glyph-name="inbox" unicode="&#59031;" d="M1006.525217 466.721391H778.841043l-87.262608-167.268174H368.751304l-72.169739 167.268174H57.722435c-30.208 0-53.158957-26.846609-57.07687-57.054608v-455.390609c0-30.208 26.86887-57.054609 57.07687-57.054609h948.802782c30.208 0 57.054609 26.846609 57.054609 57.054609V409.666783c0 30.208-26.846609 57.054609-57.054609 57.054608zM797.829565 48.840348H266.395826c-22.928696 0-38.066087 15.09287-38.066087 38.021565 0 22.928696 15.137391 38.066087 38.066087 38.066087H797.829565c22.928696 0 38.043826-15.137391 38.043826-38.066087 0-22.928696-15.11513-38.021565-38.043826-38.021565zM218.156522 884.068174h629.537391c22.639304 0 41.405217-22.26087 41.405217-44.521739s-18.765913-44.521739-41.405217-44.521739H218.156522c-22.617043 0-41.405217 22.26087-41.405218 44.521739 0.556522 22.26087 19.344696 44.521739 41.405218 44.521739zM296.603826 466.721391l72.169739-167.268174h325.587478l87.262609 167.268174h170.629565V694.427826c0 22.928696-15.09287 38.021565-38.043826 38.021565H155.069217c-22.928696 0-38.066087-15.09287-38.066087-38.021565v-227.706435h179.600696z"  horiz-adv-x="1068" />

    
    <glyph glyph-name="paperclip" unicode="&#59048;" d="M936.743843 664.914903a285.871741 285.871741 0 0 1-201.652531 82.683297h-0.831953c-36.669914 0-72.44388-6.847611-106.489943-20.350842a281.83997 281.83997 0 0 1-94.266639-61.564499l-266.224858-263.02504a158.838966 158.838966 0 0 1-47.357307-114.361496c0.127993-43.197543 17.151025-83.771236 47.99727-114.233503 30.846246-30.526264 71.73992-47.357307 115.385438-47.421303h0.383978c43.517525 0 84.283206 16.639054 114.937463 46.845336l233.586714 230.834871a39.869732 39.869732 0 0 1 0 57.14875 40.957671 40.957671 0 0 1-57.596724 0l-233.586714-230.834871a80.955396 80.955396 0 0 0-57.468732-23.358672H383.367316a82.555305 82.555305 0 0 0-58.044699 23.806646 80.315432 80.315432 0 0 0-23.998635 57.340739 78.651527 78.651527 0 0 0 23.550661 56.95676l266.160862 263.153034a202.164502 202.164502 0 0 0 143.28785 58.236687h0.575968c54.652892-0.063996 105.913976-21.118799 144.439785-59.06864 38.397816-38.013838 59.644608-88.634959 59.7726-142.583891a197.62076 197.62076 0 0 0-58.876651-142.071919l-282.351942-279.408109a300.718897 300.718897 0 0 0-212.339923-86.139101h-0.831952a303.214755 303.214755 0 0 0-213.555854 87.547021 295.279206 295.279206 0 0 0-88.44297 211.059996 292.335373 292.335373 0 0 0 87.291035 210.356036l364.587264 360.427501a39.869732 39.869732 0 0 1 0 57.148749 40.957671 40.957671 0 0 1-57.724717 0.127993L112.342731 523.61094a372.714802 372.714802 0 0 1-111.161678-267.760771c0.127993-49.277197 9.599454-97.274468 28.350387-142.583891a382.05827 382.05827 0 0 1 210.868007-208.564138 389.417852 389.417852 0 0 1 144.1838-28.030406h1.023942a383.914165 383.914165 0 0 1 269.680662 109.945747l282.415937 279.280116a279.792087 279.792087 0 0 1 82.875287 199.540651 280.496047 280.496047 0 0 1-83.835232 199.412659z"  horiz-adv-x="1024" />

    
    <glyph glyph-name="top" unicode="&#59046;" d="M929.792 138.24a39.936 39.936 0 0 1 2.8672 56.5248L543.744 626.7904a39.936 39.936 0 0 1-31.232 13.2096 39.936 39.936 0 0 1-31.232-13.312L92.16 194.86720000000003a39.936 39.936 0 1 1 59.392-53.5552l360.8576 400.5888 360.7552-400.5888a39.936 39.936 0 0 1 56.4224-2.9696z"  horiz-adv-x="1024" />

    
    <glyph glyph-name="loading" unicode="&#59071;" d="M692.992 203.008a42.666667 42.666667 0 0 1 0-60.330667l120.746667-120.746666a42.666667 42.666667 0 0 1 60.330666 60.330666L753.322667 203.093333a42.666667 42.666667 0 0 1-60.330667 0zM149.930667 746.069333a42.666667 42.666667 0 0 1 0-60.330666L270.677333 564.906667a42.666667 42.666667 0 0 1 60.330667 60.330666L210.261333 746.069333a42.666667 42.666667 0 0 1-60.330666 0zM331.008 203.008a42.666667 42.666667 0 0 1-60.330667 0L149.930667 82.261333a42.666667 42.666667 0 0 1 60.330666-60.330666L331.093333 142.677333a42.666667 42.666667 0 0 1 0 60.330667zM813.738667 746.069333L692.906667 625.322667a42.666667 42.666667 0 0 1 60.330666-60.330667l120.746667 120.746667a42.666667 42.666667 0 0 1-60.330667 60.330666zM42.666667 426.666667a42.666667 42.666667 0 1 1 0-85.333334h170.666666a42.666667 42.666667 0 0 1 0 85.333334h-170.666666zM810.666667 426.666667a42.666667 42.666667 0 0 1 0-85.333334h170.666666a42.666667 42.666667 0 1 1 0 85.333334h-170.666666zM554.666667 682.666667v170.666666a42.666667 42.666667 0 1 1-85.333334 0v-170.666666a42.666667 42.666667 0 0 1 85.333334 0zM469.333333 85.333333v-170.666666a42.666667 42.666667 0 1 1 85.333334 0v170.666666a42.666667 42.666667 0 0 1-85.333334 0z"  horiz-adv-x="1024" />

    
    <glyph glyph-name="erji" unicode="&#59032;" d="M1146.88 496.64V650.24c0 51.2-40.96 92.16-81.92 92.16H583.68L552.96 834.56C542.72 875.52 512 896 471.04 896H81.92C40.96 896 0 855.04 0 803.84v-860.16c0-10.24 10.24-20.48 20.48-30.72 30.72-30.72 40.96-40.96 61.44-40.96H1024c40.96 0 71.68 30.72 81.92 71.68L1228.8 394.24c10.24 51.2-30.72 102.4-81.92 102.4zM81.92 803.84h389.12l51.2-153.6h542.72v-143.36H194.56c-40.96 0-71.68-30.72-81.92-71.68L81.92 322.56V803.84z m952.32-839.68H81.92l112.64 450.56h942.08l-102.4-450.56z"  horiz-adv-x="1230" />

    
    <glyph glyph-name="shouye" unicode="&#59037;" d="M17.836373 460.8L461.569707 870.4c34.133333 25.6 85.333333 25.6 110.933333 0l443.733333-409.6c17.066667-17.066667 17.066667-42.666667 0-59.733333-17.066667-17.066667-42.666667-17.066667-59.733333 0L512.769707 810.666667 69.036373 401.066667c-17.066667-17.066667-42.666667-17.066667-59.733333 0-17.066667 25.6-8.533333 51.2 8.533333 59.733333z m110.933334-145.066667c25.6 0 42.666667-25.6 42.666666-42.666666V-42.666667h170.666667V230.4c0 42.666667 34.133333 85.333333 85.333333 85.333333h170.666667c51.2 0 85.333333-34.133333 85.333333-85.333333V-42.666667h170.666667V273.066667c0 25.6 17.066667 42.666667 42.666667 42.666666s42.666667-17.066667 42.666666-42.666666V-42.666667c0-42.666667-34.133333-85.333333-85.333333-85.333333H171.436373c-42.666667 0-85.333333 34.133333-85.333333 85.333333V273.066667c0 17.066667 25.6 42.666667 42.666667 42.666666z m469.333333-85.333333H427.436373V-42.666667h170.666667V230.4z"  horiz-adv-x="1029" />

    
    <glyph glyph-name="sanji" unicode="&#59038;" d="M878.933333 597.333333L597.333333 878.933333c-8.533333 0-8.533333 0-17.066666 8.533334h-8.533334C563.2 896 554.666667 896 546.133333 896h-341.333333c-42.666667 0-76.8-34.133333-76.8-68.266667v-878.933333c0-42.666667 34.133333-68.266667 76.8-68.266667h622.933333c42.666667 0 68.266667 34.133333 68.266667 68.266667v597.333333c0 17.066667-8.533333 34.133333-17.066667 51.2zM580.266667 785.066667l204.8-204.8H580.266667V785.066667z m247.466666-844.8H196.266667V827.733333h315.733333v-238.933333c0-42.666667 34.133333-68.266667 76.8-68.266667h238.933333v-580.266666zM588.8 409.6c0 17.066667-17.066667 34.133333-34.133333 34.133333H298.666667c-25.6 8.533333-42.666667-8.533333-42.666667-34.133333s17.066667-34.133333 34.133333-34.133333h256c25.6 0 42.666667 17.066667 42.666667 34.133333z m187.733333-153.6c0 17.066667-17.066667 34.133333-34.133333 34.133333H290.133333c-17.066667 0-34.133333-17.066667-34.133333-34.133333s17.066667-42.666667 34.133333-42.666667h452.266667c17.066667 0 34.133333 17.066667 34.133333 42.666667zM648.533333 93.866667c0 17.066667-17.066667 34.133333-34.133333 34.133333H290.133333c-17.066667 0-34.133333-17.066667-34.133333-34.133333s17.066667-34.133333 34.133333-34.133334h324.266667c17.066667 0 34.133333 8.533333 34.133333 34.133334z"  horiz-adv-x="1024" />

    
    <glyph glyph-name="shijian" unicode="&#59044;" d="M512 832C262.4 832 64 633.6 64 384s198.4-448 448-448 448 198.4 448 448-198.4 448-448 448z m275.2-723.2c-38.4-38.4-76.8-64-121.6-83.2-51.2-19.2-102.4-25.6-153.6-25.6s-102.4 12.8-147.2 32c-44.8 19.2-89.6 44.8-121.6 83.2-38.4 38.4-64 76.8-83.2 121.6C134.4 281.6 128 332.8 128 384s12.8 102.4 32 147.2c19.2 44.8 44.8 89.6 83.2 121.6 38.4 38.4 76.8 64 121.6 83.2C409.6 761.6 460.8 768 512 768s102.4-12.8 147.2-32c44.8-19.2 89.6-44.8 121.6-83.2 38.4-38.4 64-76.8 83.2-121.6 25.6-44.8 32-96 32-147.2s-12.8-102.4-32-147.2c-19.2-51.2-44.8-89.6-76.8-128zM704 390.4H544V601.6c0 19.2-12.8 32-32 32s-32-12.8-32-32v-211.2c0-32 25.6-64 64-64H704c19.2 0 32 12.8 32 32s-12.8 32-32 32z"  horiz-adv-x="1024" />

    
    <glyph glyph-name="wancheng" unicode="&#59023;" d="M729.6 553.6c9.6-9.6 9.6-25.6 3.2-35.2L448 201.6c-3.2-3.2-6.4-6.4-12.8-6.4-9.6-3.2-19.2 0-25.6 6.4l-112 124.8c-9.6 9.6-9.6 25.6 3.2 35.2s25.6 9.6 35.2-3.2l96-105.6 268.8 297.6c3.2 12.8 19.2 12.8 28.8 3.2zM512 896C230.4 896 0 665.6 0 384s230.4-512 512-512 512 230.4 512 512S793.6 896 512 896z m0-972.8C259.2-76.8 54.4 131.2 54.4 384S259.2 844.8 512 844.8 972.8 636.8 972.8 384 764.8-76.8 512-76.8z"  horiz-adv-x="1024" />

    
    <glyph glyph-name="chenggongshiti" unicode="&#59004;" d="M512 896a512 512 0 1 1 0-1024A512 512 0 0 1 512 896z m309.504-376.32l-415.808-404.672a32.064 32.064 0 0 0-45.376 0L201.472 266.88a32.064 32.064 0 0 0 45.376 45.376l136.256-129.28 393.024 382.08a32.064 32.064 0 0 0 45.376-45.376z"  horiz-adv-x="1024" />

    
    <glyph glyph-name="dianzan" unicode="&#59005;" d="M0-128h192V512H0v-640z m1152 563.2c0 56.32-46.784 102.4-104 102.4h-327.616l52.032 235.52v15.36c0 20.48-10.432 40.96-20.8 56.32L694.4 896 351.232 558.08C330.432 542.72 320 517.12 320 486.4v-512c0-56.32 46.784-102.4 104-102.4h467.968c41.6 0 78.08 25.6 93.632 61.44l161.216 363.52C1152 307.2 1152 322.56 1152 332.8V435.2c0-5.12 0 0 0 0z"  horiz-adv-x="1152" />

    
    <glyph glyph-name="gantanhao" unicode="&#59006;" d="M316.882708 896m59.076923 0l0 0q59.076923 0 59.076923-59.076923l0-669.538462q0-59.076923-59.076923-59.076923l0 0q-59.076923 0-59.076923 59.076923l0 669.538462q0 59.076923 59.076923 59.076923ZM375.959631-68.923077m-59.076923 0a59.076923 59.076923 0 1 1 118.153846 0 59.076923 59.076923 0 1 1-118.153846 0Z"  horiz-adv-x="1024" />

    
    <glyph glyph-name="bangzhu" unicode="&#59007;" d="M512 896C229.205333 896 0 666.794667 0 384s229.205333-512 512-512 512 229.205333 512 512S794.794667 896 512 896z m311.082667-823.082667a437.717333 437.717333 0 0 0-139.861334-94.293333c-54.186667-23.04-111.786667-34.602667-171.221333-34.602667-59.392 0-116.992 11.562667-171.178667 34.474667a440.448 440.448 0 0 0-139.946666 94.293333 437.717333 437.717333 0 0 0-94.293334 139.946667A436.608 436.608 0 0 0 72.021333 384c0 59.392 11.562667 116.992 34.474667 171.221333a440.448 440.448 0 0 0 94.293333 139.861334 437.717333 437.717333 0 0 0 139.946667 94.293333c54.272 23.04 111.872 34.645333 171.264 34.645333 59.392 0 116.992-11.605333 171.221333-34.56 52.394667-22.186667 99.413333-53.845333 139.861334-94.293333 40.405333-40.362667 72.234667-87.466667 94.293333-139.861333 23.04-54.314667 34.602667-111.914667 34.602667-171.306667a437.461333 437.461333 0 0 0-128.853334-311.082667z m-192.853334 117.461334h-85.248V540.501333a35.968 35.968 0 0 1-35.968 36.010667H413.013333a35.968 35.968 0 1 1 0-71.978667h59.989334v-314.154666H387.797333a35.968 35.968 0 1 1 0-72.021334l85.205334 0.042667h157.184a35.968 35.968 0 1 1 0 72.021333z m-157.226666 485.12a36.010667 36.010667 0 1 0 71.978666 0 36.010667 36.010667 0 0 0-71.978666 0z"  horiz-adv-x="1024" />

    
    <glyph glyph-name="chenggongtishi" unicode="&#59008;" d="M512 896a512 512 0 1 1 0-1024A512 512 0 0 1 512 896z m309.504-376.32l-415.808-404.672a32.064 32.064 0 0 0-45.376 0L201.472 266.88a32.064 32.064 0 0 0 45.376 45.376l136.256-129.28 393.024 382.08a32.064 32.064 0 0 0 45.376-45.376z"  horiz-adv-x="1024" />

    
    <glyph glyph-name="cuowu" unicode="&#59009;" d="M512 896a512 512 0 0 1-512-512 512 512 0 0 1 512-512 512 512 0 0 1 512 512 512 512 0 0 1-512 512z m241.024-703.36c12.544-12.352 12.8-32.512 0.448-45.248a32.128 32.128 0 0 0-45.248-0.512L512 339.2l-196.224-192.192a32 32 0 1 0-44.8 45.824L466.304 384 270.976 575.36a32.128 32.128 0 0 0-0.448 45.248c12.352 12.608 32.576 12.8 45.248 0.512L512 428.8l196.224 192.192a32 32 0 1 0 44.8-45.824L557.696 384l195.328-191.36z"  horiz-adv-x="1024" />

    
    <glyph glyph-name="icon-test" unicode="&#59010;" d="M508.371237 895.708262c146.380767 0 271.265057-42.992952 369.022842-143.309841 97.245964-93.151397 146.380767-214.964762 146.380766-364.928276a509.261758 509.261758 0 0 0-146.380766-372.093767c-104.411456-93.151397-229.807567-143.309842-368.511021-143.309841a477.017044 477.017044 0 0 0-355.7155 150.475333A483.670715 483.670715 0 0 0 0.13312 387.470145C0.13312 537.945479 48.756102 659.247024 153.679379 752.398421A470.875194 470.875194 0 0 0 507.859416 895.708262z m3070.925176 0c146.380767 0 271.265057-42.992952 369.022842-143.309841 97.245964-93.151397 146.380767-214.964762 146.380767-364.928276a509.261758 509.261758 0 0 0-146.380767-372.093767c-104.411456-93.151397-229.807567-143.309842-368.511021-143.309841a477.017044 477.017044 0 0 0-355.7155 150.475333A483.670715 483.670715 0 0 0 3071.058296 387.470145c0 150.475334 48.622982 271.776878 153.546259 364.928276A470.875194 470.875194 0 0 0 3578.784592 895.708262z m3070.925176 0c146.380767 0 271.265057-42.992952 369.022842-143.309841 97.245964-93.151397 146.380767-214.964762 146.380767-364.928276 0-150.475334-55.788474-271.776878-153.546259-372.093767-97.245964-93.151397-222.642075-143.309842-361.85735-143.309841a492.37167 492.37167 0 0 0-361.85735 150.475333A504.14355 504.14355 0 0 0 6141.983472 387.470145c0 150.475334 48.622982 271.776878 146.380767 364.928276a486.22982 486.22982 0 0 0 361.85735 143.309841z"  horiz-adv-x="7168" />

    
    <glyph glyph-name="guan" unicode="&#59011;" d="M0 384C0 666.763636 229.003636 896 512.186182 896h1023.627636C1818.670545 896 2048 666.810182 2048 384c0-282.763636-229.003636-512-512.186182-512H512.186182C229.329455-128 0 101.003636 0 384zM512-34.909091a418.909091 418.909091 0 1 1 0 837.818182 418.909091 418.909091 0 0 1 0-837.818182z"  horiz-adv-x="2048" />

    
    <glyph glyph-name="chucuo" unicode="&#59012;" d="M717.226667 589.781333a36.010667 36.010667 0 0 1-50.944-0.085333L512 434.986667 357.717333 589.696a36.010667 36.010667 0 0 1-51.029333-50.773333L461.226667 384l-154.453334-154.88a36.010667 36.010667 0 0 1 50.986667-50.816L512 333.013333l154.282667-154.794666a35.84 35.84 0 0 1 50.901333-0.085334 36.010667 36.010667 0 0 1 0.128 50.858667L562.773333 384l154.368 154.88a35.925333 35.925333 0 0 1 0 50.901333zM512 896C229.205333 896 0 666.794667 0 384s229.205333-512 512-512 512 229.205333 512 512S794.794667 896 512 896z m311.082667-823.082667a437.717333 437.717333 0 0 0-139.861334-94.293333c-54.186667-23.04-111.786667-34.602667-171.221333-34.602667-59.392 0-116.992 11.562667-171.178667 34.474667a440.448 440.448 0 0 0-139.946666 94.293333 437.717333 437.717333 0 0 0-94.293334 139.946667A436.608 436.608 0 0 0 72.021333 384c0 59.392 11.562667 116.992 34.474667 171.221333a440.448 440.448 0 0 0 94.293333 139.861334 437.717333 437.717333 0 0 0 139.946667 94.293333c54.272 23.04 111.872 34.645333 171.264 34.645333 59.392 0 116.992-11.605333 171.221333-34.56 52.394667-22.186667 99.413333-53.845333 139.861334-94.293333 40.405333-40.362667 72.234667-87.466667 94.293333-139.861333 23.04-54.314667 34.602667-111.914667 34.602667-171.306667a437.461333 437.461333 0 0 0-128.853334-311.082667z"  horiz-adv-x="1024" />

    
    <glyph glyph-name="guanbi" unicode="&#59013;" d="M600.576 384l405.077333 404.992A62.464 62.464 0 1 1 917.248 877.482667L512 472.576 106.752 877.653333A62.464 62.464 0 1 1 18.346667 789.162667l405.077333-405.077334-405.077333-405.162666a62.464 62.464 0 1 1 88.405333-88.490667L512 295.509333l405.248-405.248c12.202667-12.202667 28.16-18.261333 44.202667-18.261333s31.914667 5.973333 44.202666 18.261333a62.464 62.464 0 0 1 0 88.490667L600.576 384z"  horiz-adv-x="1024" />

    
    <glyph glyph-name="huanyuan" unicode="&#59014;" d="M855.104 258.944a28.224 28.224 0 0 1 21.248 9.856L952.96 357.76a29.568 29.568 0 0 1-2.496 40.896 27.904 27.904 0 0 1-39.936-2.56L833.92 307.2a29.568 29.568 0 0 1 2.56-40.96 27.008 27.008 0 0 1 18.624-7.296z m-8.32-6.08a27.584 27.584 0 0 1 21.44 10.048 29.44 29.44 0 0 1-2.944 40.96l-92.416 81.6a27.84 27.84 0 0 1-39.936-3.008c-10.24-12.16-8.96-30.336 2.944-40.896l92.416-81.664c5.44-4.736 11.968-7.04 18.56-7.04z m-376.768-316.544c18.752 0 33.92 15.488 33.92 34.752 0 19.2-15.168 34.752-33.92 34.752-186.56 0-338.368 155.52-338.368 346.56S283.456 698.88 470.016 698.88s338.368-155.52 338.368-346.496c0-19.2 15.168-34.816 33.92-34.816 18.816 0 33.92 15.552 33.92 34.816 0 56.192-10.688 110.592-31.872 161.92a415.232 415.232 0 0 1-87.04 132.224 403.136 403.136 0 0 1-129.024 89.088 396.16 396.16 0 0 1-158.144 32.64 396.16 396.16 0 0 1-158.144-32.64 404.352 404.352 0 0 1-129.088-89.088 413.952 413.952 0 0 1-87.04-132.224A422.784 422.784 0 0 1 64 352.384c0-56.192 10.752-110.72 31.872-161.984 20.48-49.6 49.792-94.08 87.04-132.224a403.136 403.136 0 0 1 129.088-89.088c49.92-21.76 103.168-32.768 158.016-32.768z"  horiz-adv-x="1024" />

    
    <glyph glyph-name="daochu" unicode="&#59015;" d="M469.357714 810.642286m36.571429 0l12.214857 0q36.571429 0 36.571429-36.571429l0-609.499428q0-36.571429-36.571429-36.571429l-12.214857 0q-36.571429 0-36.571429 36.571429l0 609.499428q0 36.571429 36.571429 36.571429ZM213.307636 594.314384m25.859905 25.859905l249.961843 249.961843q25.859905 25.859905 51.719811 0l8.637208-8.637209q25.859905-25.859905 0-51.71981l-249.961843-249.961843q-25.859905-25.859905-51.719811 0l-8.637208 8.637208q-25.859905 25.859905 0 51.719811ZM730.505739 559.86899L480.543896 809.830833a36.571429 36.571429 0 0 0 0 51.71981l8.585488 8.585489a36.571429 36.571429 0 0 0 51.719811 0l249.961843-249.961843a36.571429 36.571429 0 0 0 0-51.719811l-8.585489-8.585488a36.571429 36.571429 0 0 0-51.71981 0zM938.642286-42.642286H85.357714V298.642286a42.642286 42.642286 0 1 1-85.357714 0V-128h1024V298.642286a42.642286 42.642286 0 1 1-85.357714 0v-341.284572z"  horiz-adv-x="1024" />

    
    <glyph glyph-name="duihao" unicode="&#59016;" d="M22.178769 234.922539m31.944589 31.944589l0 0q31.944589 31.944589 63.889177 0l276.853102-276.853102q31.944589-31.944589 0-63.889178l0 0q-31.944589-31.944589-63.889177 0l-276.853102 276.853102q-31.944589 31.944589 0 63.889178ZM299.031871-41.930563m31.944589 31.944589l575.002596 575.002596q31.944589 31.944589 63.889178 0l0 0q31.944589-31.944589 0-63.889177l-575.002597-575.002597q-31.944589-31.944589-63.889177 0l0 0q-31.944589 31.944589 0 63.889178Z"  horiz-adv-x="1024" />

    
    <glyph glyph-name="jinggao" unicode="&#59017;" d="M512 896a512 512 0 0 1-512-512 512 512 0 0 1 512-512 512 512 0 0 1 512 512 512 512 0 0 1-512 512z m32-800a32 32 0 1 0-64 0 32 32 0 1 0 64 0z m0 128a32 32 0 1 0-64 0v448a32 32 0 1 0 64 0v-448z"  horiz-adv-x="1024" />

    
    <glyph glyph-name="jiazaizhong" unicode="&#59018;" d="M512 896c31.36 0 56.896-25.472 56.896-56.896v-56.896a56.896 56.896 0 0 0-113.792 0v56.96C455.104 870.464 480.64 896 512 896z m362.048-149.952a56.896 56.896 0 0 0 0-80.448l-40.256-40.192a56.896 56.896 0 1 0-80.384 80.384l40.192 40.256a56.896 56.896 0 0 0 80.448 0zM1024 384c0-31.36-25.472-56.896-56.896-56.896h-56.896a56.896 56.896 0 0 0 0 113.792h56.96c31.36 0 56.832-25.472 56.832-56.896z m-149.952-362.048a56.896 56.896 0 0 0-80.448 0l-40.192 40.256a56.896 56.896 0 1 0 80.384 80.384l40.256-40.192a56.896 56.896 0 0 0 0-80.448zM512-128a56.896 56.896 0 0 0-56.896 56.896v56.896a56.896 56.896 0 1 0 113.792 0v-56.96c0-31.36-25.472-56.832-56.896-56.832z m-362.048 149.952a56.896 56.896 0 0 0 0 80.448l40.256 40.192a56.896 56.896 0 0 0 80.384-80.384l-40.192-40.256a56.896 56.896 0 0 0-80.448 0zM0 384c0 31.36 25.472 56.896 56.896 56.896h56.896a56.896 56.896 0 1 0 0-113.792h-56.96A56.896 56.896 0 0 0 0 384z m149.952 362.048a56.896 56.896 0 0 0 80.448 0l40.192-40.256a56.896 56.896 0 0 0-80.384-80.384L149.952 665.6a56.896 56.896 0 0 0 0 80.448z"  horiz-adv-x="1024" />

    
    <glyph glyph-name="pinglun" unicode="&#59019;" d="M921.6 896H102.4C46.08 896 0 849.92 0 793.6V-128l204.8 204.8h716.8c56.32 0 102.4 46.08 102.4 102.4V793.6c0 56.32-46.08 102.4-102.4 102.4zM358.4 435.2H256V537.6h102.4v-102.4z m204.8 0H460.8V537.6h102.4v-102.4z m204.8 0h-102.4V537.6H768v-102.4z"  horiz-adv-x="1024" />

    
    <glyph glyph-name="lingdang" unicode="&#59020;" d="M512 682.666667a249.173333 249.173333 0 0 0 248.874667-248.874667v-174.250667c0-16.128 5.248-31.872 14.933333-44.8l59.733333-79.616H188.458667l59.733333 79.616c9.685333 12.928 14.933333 28.672 14.933333 44.8v174.250667A249.173333 249.173333 0 0 0 512 682.666667m0 74.666666a323.541333 323.541333 0 0 1-323.541333-323.541333v-174.250667L113.792 160v-49.792a49.92 49.92 0 0 1 49.749333-49.749333h696.917334a49.92 49.92 0 0 1 49.749333 49.749333V160l-74.666667 99.541333v174.250667A323.541333 323.541333 0 0 1 512 757.333333z m0-771.541333a74.666667 74.666667 0 0 0-74.666667 74.666667H362.666667c0-82.346667 66.986667-149.333333 149.333333-149.333334s149.333333 66.986667 149.333333 149.333334h-74.666666a74.666667 74.666667 0 0 0-74.666667-74.666667zM512 682.666667a49.792 49.792 0 1 0 0 99.541333A49.792 49.792 0 0 0 512 682.666667h113.92c6.912 15.701333 10.496 32.64 10.538667 49.792A124.586667 124.586667 0 0 1 512 856.874667a124.586667 124.586667 0 0 1-124.458667-124.416c0-17.749333 3.84-34.517333 10.581334-49.792H512z"  horiz-adv-x="1024" />

    
    <glyph glyph-name="jingshitishi" unicode="&#59021;" d="M0 384a512 512 0 0 1 512-512 512 512 0 0 1 512 512 512 512 0 0 1-512 512 512 512 0 0 1-512-512z m544.036571-288.036571a31.963429 31.963429 0 1 0-64 0 31.963429 31.963429 0 1 0 64 0z m0 128a31.963429 31.963429 0 1 0-64 0V672.109714a31.963429 31.963429 0 1 0 64 0v-448.073143z"  horiz-adv-x="1024" />

    
    <glyph glyph-name="left" unicode="&#59022;" d="M266.88 358.72a35.584 35.584 0 0 0 0 51.136L688.32 819.2a47.36 47.36 0 0 0 71.104-7.68c11.84-17.92 7.936-40.96-6.592-56.32L370.88 384.32l383.296-372.224c18.432-17.92 18.432-46.08 0-62.72a45.44 45.44 0 0 0-64.512 0L266.88 358.72z"  horiz-adv-x="1024" />

    
    <glyph glyph-name="mimaxianshi" unicode="&#59024;" d="M926.016 480.832C825.152 617.472 677.12 704 511.872 704s-312.704-86.528-414.08-223.168c-44.8-60.224-44.8-149.76 0-210.048 101.376-136.64 249.408-223.168 414.08-223.168 165.312 0 312.64 86.528 414.08 223.168 44.8 60.224 44.8 149.76 0 210.048zM512 161.792a208.192 208.192 0 0 0-208 208A208.256 208.256 0 0 0 512 577.792a208.256 208.256 0 0 0 208-208A208.192 208.192 0 0 0 512 161.792z m0 352a144.064 144.064 0 0 1 0-288 144 144 0 0 1 0 288z"  horiz-adv-x="1024" />

    
    <glyph glyph-name="kai" unicode="&#59025;" d="M0 384C0 666.763636 229.003636 896 512.186182 896h1023.627636C1818.670545 896 2048 666.810182 2048 384c0-282.763636-229.003636-512-512.186182-512H512.186182C229.329455-128 0 101.003636 0 384zM1536-34.909091a418.909091 418.909091 0 1 1 0 837.818182 418.909091 418.909091 0 0 1 0-837.818182z"  horiz-adv-x="2048" />

    
    <glyph glyph-name="renshu" unicode="&#59026;" d="M1273.056174 132.883078c-16.511587 103.869403-224.442389 148.668283-288.248794 195.57911a51.902702 51.902702 0 0 0-10.431739 31.103223 70.334242 70.334242 0 0 0 6.015849 34.815129c77.502062 54.846629 119.101022 144.828379 109.437264 236.730082C1083.876903 703.300817 1040.421989 832.0016 894.057649 832.0016h-10.43174a207.354816 207.354816 0 0 1-81.917952-15.359616c32.447189-98.045549 69.822254-283.576911-86.909827-400.629984-59.390515-87.549811 148.476288-138.684533 115.517112-122.876928 185.339367-82.237944 240.889978-138.620534 251.385715-205.050874 9.855754-50.622734 16.447589-88.061798 16.447589-88.061799 61.502462 8.063798 121.59696 23.871403 178.81153 46.910828 5.119872 28.607285 3.839904 57.918552-3.839904 85.949851zM634.224144 291.471113a59.774506 59.774506 0 0 0-16.38359 33.791155 55.806605 55.806605 0 0 0 10.367741 39.935002s134.716632 70.142246 134.716632 284.600885C759.149021 736.835979 704.110397 896 520.306992 896h-10.36774C320.119997 896 271.033224 740.41989 266.681333 651.334117c0-204.79488 135.228619-284.152896 135.228619-284.152897 10.175746-14.78363 15.61561-31.9992 15.807605-49.59876a60.542486 60.542486 0 0 0-22.335442-30.207244C320.119997 232.592585 44.158896 171.666108 23.9994 52.437089c-16.38359-49.662758-98.173546-134.652634 177.787555-164.859878a2539.456514 2539.456514 0 0 1 314.104148-15.359616c633.264168 0 502.38744 115.709107 486.00385 180.219494-9.855754 124.860878-291.832704 183.739407-367.60681 239.034024z"  horiz-adv-x="1279" />

    
    <glyph glyph-name="shikan" unicode="&#59027;" d="M512 896a512 512 0 1 0 0-1024A512 512 0 0 0 512 896zM384 576v-384l384 192-384 192z"  horiz-adv-x="1024" />

    
    <glyph glyph-name="riqi" unicode="&#59028;" d="M731.328 384H292.544C272.32 384 256 369.664 256 352s16.32-32 36.544-32h438.912c20.224 0 36.544 14.336 36.544 32-0.128 17.664-16.448 32-36.672 32z m0-192H292.544c-20.224 0-36.544-14.336-36.544-32s16.32-32 36.544-32h438.912c20.224 0 36.544 14.336 36.544 32-0.128 17.664-16.448 32-36.672 32z m156.8 574.72h-115.328v28.8c0 20.16-13.952 36.48-31.168 36.48-17.28 0-31.232-16.32-31.232-36.48v-28.8H313.472v28.8c0 20.16-13.952 36.48-31.168 36.48-17.28 0-31.232-16.32-31.232-36.48v-28.8H135.808C96.128 766.72 64 729.024 64 682.624v-662.656C64-26.432 96.128-64 135.808-64h752.384c39.68 0 71.808 37.568 71.808 84.032V682.624c-0.128 46.272-32.192 83.968-71.872 83.968zM128 704h117.76v-21.12c0-22.592 14.272-40.832 31.872-40.832s31.808 18.24 31.808 40.832V704h405.12v-21.12c0-22.592 14.208-40.832 31.808-40.832s31.872 18.24 31.872 40.832V704H896v-128H128V704z m767.872-704H128V512h768v-512h-0.128z"  horiz-adv-x="1024" />

    
    <glyph glyph-name="qingchu" unicode="&#59029;" d="M512 832a448 448 0 1 0 0-896A448 448 0 0 0 512 832z m176.32-271.68a30.08 30.08 0 0 1-42.432 0L511.168 425.6 377.28 559.552l-0.512 0.448a30.08 30.08 0 0 1-41.984-42.88l133.888-133.952-132.992-133.056-0.512-0.448a30.08 30.08 0 0 1 42.944-41.984l133.056 133.056 133.824-133.888 0.512-0.512a30.08 30.08 0 0 1 41.984 43.008L553.6 383.168l134.72 134.72 0.512 0.512a30.08 30.08 0 0 1-0.512 41.92z"  horiz-adv-x="1024" />

    
    <glyph glyph-name="qingzhuyi" unicode="&#59030;" d="M512 823.978667c59.392 0 116.992-11.562667 171.221333-34.474667 52.394667-22.186667 99.413333-53.888 139.861334-94.293333 40.405333-40.405333 72.234667-87.509333 94.293333-139.946667 23.04-54.272 34.602667-111.872 34.602667-171.264 0-59.392-11.562667-116.992-34.474667-171.178667a440.448 440.448 0 0 0-94.293333-139.946666 437.717333 437.717333 0 0 0-139.946667-94.293334c-54.272-22.997333-111.872-34.56-171.264-34.56-59.392 0-116.992 11.562667-171.178667 34.474667a440.448 440.448 0 0 0-139.946666 94.293333 437.717333 437.717333 0 0 0-94.293334 139.946667A436.608 436.608 0 0 0 72.021333 384c0 59.392 11.562667 116.992 34.474667 171.221333a440.448 440.448 0 0 0 94.293333 139.861334 437.717333 437.717333 0 0 0 139.946667 94.293333c54.272 23.04 111.872 34.645333 171.264 34.645333zM512 896C229.205333 896 0 666.794667 0 384s229.205333-512 512-512 512 229.205333 512 512S794.794667 896 512 896z m0-640a39.978667 39.978667 0 0 0-40.021333 40.021333V664.96a39.978667 39.978667 0 1 0 80.042666 0v-369.024c0-22.058667-17.92-39.978667-40.021333-39.978667z m-45.013333-109.013333a45.013333 45.013333 0 1 0 90.026666 0 45.013333 45.013333 0 0 0-90.026666 0z"  horiz-adv-x="1024" />

    
    <glyph glyph-name="tianjia" unicode="&#59033;" d="M972.8 435.2h-409.6V844.8a51.2 51.2 0 0 1-102.4 0v-409.6H51.2a51.2 51.2 0 0 1 0-102.4h409.6v-409.6a51.2 51.2 0 1 1 102.4 0v409.6h409.6a51.2 51.2 0 1 1 0 102.4z"  horiz-adv-x="1024" />

    
    <glyph glyph-name="tuozhuai" unicode="&#59034;" d="M367.903621 18.309745a73.138051 73.138051 0 1 1-4.388283-146.276101 73.138051 73.138051 0 0 1 4.388283 146.276101zM365.709479 457.138051a73.138051 73.138051 0 1 1 0-146.276102 73.138051 73.138051 0 0 1 0 146.276102z m2.194142 438.828305a73.138051 73.138051 0 1 1-4.388283-146.276101 73.138051 73.138051 0 0 1 4.388283 146.276101z m292.552204-877.656611a73.138051 73.138051 0 1 1-4.388283-146.276101 73.138051 73.138051 0 0 1 4.388283 146.276101zM658.261683 457.138051a73.138051 73.138051 0 1 1 0-146.276102 73.138051 73.138051 0 0 1 0 146.276102z m2.194142 438.828305a73.138051 73.138051 0 1 1-4.388283-146.276101 73.138051 73.138051 0 0 1 4.388283 146.276101z"  horiz-adv-x="1024" />

    
    <glyph glyph-name="shanchu" unicode="&#59035;" d="M799.616 42.24a61.44 61.44 0 0 0-62.933333-62.976H287.317333a61.44 61.44 0 0 0-62.933333 62.933333V702.762667H799.616v-660.565334zM350.250667 810.581333a11.946667 11.946667 0 0 0 13.525333 13.44h301.098667a11.946667 11.946667 0 0 0 13.525333-13.525333v-35.968H354.858667c-4.522667 0-4.522667 35.968-4.522667 35.968l-0.085333 0.085333z m633.6-36.010666h-238.165334V810.666667A85.333333 85.333333 0 0 1 660.437333 896H359.210667a85.333333 85.333333 0 0 1-85.376-85.376v-36.010667H36.010667A35.456 35.456 0 0 1 0.042667 739.669333v-1.024c1.28-19.285333 16.64-34.645333 35.968-35.968h112.384v-660.522666a139.946667 139.946667 0 0 1 139.306666-139.349334h449.322667a139.946667 139.946667 0 0 1 139.349333 139.349334V702.677333h111.701334A35.456 35.456 0 0 1 1024.042667 737.706667v0.981333a39.594667 39.594667 0 0 1-40.405334 35.968h0.213334zM512.042667 91.52a35.456 35.456 0 0 1 35.968 35.925333V527.189333a35.456 35.456 0 0 1-34.944 35.968H512.042667a38.656 38.656 0 0 1-35.968-35.968v-399.744a35.456 35.456 0 0 1 34.944-35.968H512.042667m-175.232 0a35.456 35.456 0 0 1 35.968 35.968V527.189333a35.456 35.456 0 0 1-34.944 35.968h-1.024a38.656 38.656 0 0 1-35.968-35.968v-399.744c1.28-19.285333 16.64-34.645333 35.968-35.968m350.506666 0a35.456 35.456 0 0 1 36.010667 35.968V527.189333a35.456 35.456 0 0 1-34.986667 35.968h-1.024a38.656 38.656 0 0 1-35.968-35.968v-399.744a35.456 35.456 0 0 1 34.986667-35.968h0.981333"  horiz-adv-x="1024" />

    
    <glyph glyph-name="sousuo" unicode="&#59036;" d="M947.456 8.128l-167.04 163.072a392.384 392.384 0 0 1 99.008 261.056c0 106.88-42.688 206.848-119.36 282.368A407.936 407.936 0 0 1 472.192 832c-109.12 0-211.2-41.792-288.384-116.864A393.472 393.472 0 0 1 64 432.256c0-106.88 42.624-206.848 119.296-282.432a409.6 409.6 0 0 1 288.384-116.864 412.672 412.672 0 0 1 246.272 80.576l168.576-165.12a43.968 43.968 0 0 1 30.464-12.416 42.688 42.688 0 0 1 30.464 12.416 41.728 41.728 0 0 1 0 59.712zM149.76 432.256c0 174.016 144.64 315.2 321.92 315.2 177.664 0 321.856-141.696 321.856-315.2 0-174.08-144.192-315.264-321.92-315.264-177.664 0-321.92 141.696-321.92 315.264z"  horiz-adv-x="1024" />

    
    <glyph glyph-name="tupian" unicode="&#59039;" d="M1109.333333 326.528v-293.632C1109.333333-55.893333 1041.066667-128 956.8-128H152.533333C68.309333-128 0-55.936 0 32.896V735.146667C0 823.893333 68.266667 896 152.533333 896h804.266667C1041.024 896 1109.333333 823.936 1109.333333 735.104v-408.576z m-83.2 102.314667V735.146667c0 19.370667-7.296 37.973333-20.309333 51.712a67.541333 67.541333 0 0 1-49.024 21.418666H152.533333c-18.389333 0-36.010667-7.68-49.024-21.418666a75.221333 75.221333 0 0 1-20.309333-51.712v-472.448c18.346667 2.858667 36.906667 4.309333 55.466667 4.309333 86.997333 0.128 171.264-31.786667 238.293333-90.282667C444.16 361.514667 613.034667 486.4 804.266667 486.4c85.418667 0 165.12-23.04 221.866666-57.557333z m0-112.768c-6.954667 11.392-27.477333 29.696-56.746666 45.141333-44.501333 23.466667-101.376 37.418667-165.12 37.418667-158.293333 0-297.856-104.618667-351.573334-258.773334l-18.176-52.906666c-9.984-29.226667-44.8-38.570667-66.773333-17.92-21.376 20.053333-37.12 34.389333-46.976 42.709333a280.448 280.448 0 0 1-237.568 61.866667v-140.714667c0-19.370667 7.296-37.973333 20.309333-51.712 13.013333-13.696 30.634667-21.418667 49.024-21.418667h804.266667c18.389333 0 36.010667 7.68 49.024 21.418667 13.013333 13.738667 20.309333 32.341333 20.309333 51.712v283.178667z m-721.066666 111.786666c-68.906667 0-124.8 58.965333-124.8 131.669334S236.16 691.2 305.066667 691.2c68.906667 0 124.8-58.965333 124.8-131.669333S373.973333 427.946667 305.066667 427.946667z m0 87.808c22.954667 0 41.6 19.626667 41.6 43.861334 0 24.234667-18.645333 43.904-41.6 43.904s-41.6-19.626667-41.6-43.904c0-24.234667 18.645333-43.861333 41.6-43.861334z"  horiz-adv-x="1109" />

    
    <glyph glyph-name="xiaoxitishi" unicode="&#59040;" d="M512 896a512 512 0 0 1-512-512 512 512 0 0 1 512-512 512 512 0 0 1 512 512 512 512 0 0 1-512 512z m0-192a32 32 0 1 0 0.064-63.936A32 32 0 0 0 512 704z m95.488-640H416.448a32 32 0 1 0 0 64h62.08V450.56h-63.04a32 32 0 1 0 0 64H510.528a32 32 0 0 0 32-32V128h64.96c17.728 0 33.024-14.272 33.024-32s-15.36-32-33.024-32z"  horiz-adv-x="1024" />

    
    <glyph glyph-name="xingxing" unicode="&#59041;" d="M818.59712 253.696a54.848 54.848 0 0 1-14.528-46.976l44.608-273.536c3.456-21.696 0-37.184-16.896-50.176a53.12 53.12 0 0 0-57.856-4.352l-238.4 135.232a48.256 48.256 0 0 1-46.976 0l-228.48-135.232a52.672 52.672 0 0 0-57.792 4.352c-16.896 12.992-30.4 28.48-26.88 50.176l54.656 279.168a54.848 54.848 0 0 1-14.528 47.04L16.67712 423.936a59.904 59.904 0 0 0-13.952 59.264 55.808 55.808 0 0 0 44.352 39.36l258.688 47.744a50.688 50.688 0 0 1 37.952 29.056L462.82112 863.808A54.656 54.656 0 0 0 512.10112 896c20.864 0 39.936-12.48 49.216-32.192l114.432-264.448a50.688 50.688 0 0 1 37.952-29.056l263.36-47.744a55.68 55.68 0 0 0 44.288-39.36c6.464-20.928 1.024-43.904-13.888-59.264l-188.864-170.24z"  horiz-adv-x="1024" />

    
    <glyph glyph-name="xiangshang" unicode="&#59042;" d="M163.84 448c9.472 0 18.56-3.968 25.216-11.008l327.68-346.112 318.4 336.256c13.952 14.72 36.48 14.72 50.432 0a39.168 39.168 0 0 0 0-53.248l-343.616-362.88a34.688 34.688 0 0 0-25.152-11.008 34.688 34.688 0 0 0-25.216 11.008L138.496 383.744a39.168 39.168 0 0 0-7.808 40.96A35.84 35.84 0 0 0 163.84 448z m378.048-116.992A34.688 34.688 0 0 0 516.672 320a34.688 34.688 0 0 0-25.216 11.008L138.432 703.744a39.168 39.168 0 0 0 0 53.248c13.952 14.72 36.48 14.72 50.432 0L516.672 410.88l318.464 336.256a34.176 34.176 0 0 0 34.432 9.664 37.056 37.056 0 0 0 25.216-26.624 39.04 39.04 0 0 0-9.216-36.288l-343.68-362.88z"  horiz-adv-x="1024" />

    
    <glyph glyph-name="yichenggong" unicode="&#59043;" d="M721.28 590.378667L393.813333 261.888l-85.418666 149.504a35.925333 35.925333 0 0 1-49.066667 13.397333 35.925333 35.925333 0 0 1-13.44-49.066666l108.8-190.506667a36.053333 36.053333 0 0 1 57.6-6.826667l0.426667 0.426667 359.466666 360.576a36.010667 36.010667 0 0 1-0.085333 50.901333 35.712 35.712 0 0 1-50.773333 0.085334zM512 896C229.205333 896 0 666.794667 0 384s229.205333-512 512-512 512 229.205333 512 512S794.794667 896 512 896z m311.082667-823.082667a437.717333 437.717333 0 0 0-139.861334-94.293333c-54.186667-23.04-111.786667-34.602667-171.221333-34.602667-59.392 0-116.992 11.562667-171.178667 34.474667a440.448 440.448 0 0 0-139.946666 94.293333 437.717333 437.717333 0 0 0-94.293334 139.946667A436.608 436.608 0 0 0 72.021333 384c0 59.392 11.562667 116.992 34.474667 171.221333a440.448 440.448 0 0 0 94.293333 139.861334 437.717333 437.717333 0 0 0 139.946667 94.293333c54.272 23.04 111.872 34.645333 171.264 34.645333 59.392 0 116.992-11.605333 171.221333-34.56 52.394667-22.186667 99.413333-53.845333 139.861334-94.293333 40.405333-40.362667 72.234667-87.466667 94.293333-139.861333 23.04-54.314667 34.602667-111.914667 34.602667-171.306667a437.461333 437.461333 0 0 0-128.853334-311.082667z"  horiz-adv-x="1024" />

    
    <glyph glyph-name="yincang" unicode="&#59045;" d="M921.6 285.248l45.504 78.72-120.576 68.736c9.536 7.296 19.072 15.04 28.16 23.232a543.36 543.36 0 0 1 91.072 105.6l-76.032 50.048c-21.312-32.384-46.72-61.952-75.52-87.872A449.664 449.664 0 0 0 512 407.68a449.664 449.664 0 0 0-299.52 114.24A455.104 455.104 0 0 0 136.576 609.28l-75.52-50.56c25.792-38.592 56.32-73.728 91.008-104.64 8.192-7.296 16.384-13.632 25.024-20.032L56.96 364.416l45.504-78.72 160.192 91.008c16.576-8.768 33.6-16.64 51.008-23.68L219.84 192l78.72-45.504L403.2 328.448a544 544 0 0 1 62.848-9.088v-187.968h91.008v187.52c19.904 1.664 39.616 4.416 59.136 8.192l104.256-182.016 78.72 45.44-91.008 160.704c18.304 7.232 36.224 15.36 53.696 24.576L921.6 285.248z"  horiz-adv-x="1024" />

    
    <glyph glyph-name="Dark" unicode="&#59047;" d="M785.066667 336.981333c4.394667-48.768 20.181333-77.226667 47.36-85.333333 27.221333-8.106667 40.874667-36.693333 40.96-85.674667-0.469333-17.749333-9.984-36.096-28.544-55.04-18.517333-18.944-43.946667-36.266667-76.245334-51.968-32.298667-15.744-70.229333-28.8-113.749333-39.253333s-90.453333-15.786667-140.672-16c-49.749333-0.426667-96.256 4.266667-139.562667 14.08-43.349333 9.813333-81.066667 22.314667-113.109333 37.546667-32.085333 15.274667-57.429333 32.256-75.989333 50.986666-18.602667 18.688-27.776 37.290667-27.648 55.765334 0.426667 48.810667 14.421333 77.312 41.898666 85.546666 27.477333 8.192 43.562667 36.821333 48.298667 85.888 5.674667 58.282667 12.032 108.202667 19.114667 149.845334 7.082667 41.6 17.493333 77.226667 31.317333 106.88a212.224 212.224 0 0 0 54.997333 73.6c22.912 19.456 53.546667 35.925333 91.904 49.450666 27.434667 9.685333 40.832 21.12 40.234667 34.133334-0.64 13.098667 10.538667 19.968 33.450667 20.565333 23.253333-0.085333 34.56-6.741333 33.962666-19.968-0.64-13.226667 12.586667-24.448 39.68-33.706667 37.632-13.098667 68.053333-29.269333 91.221334-48.426666 23.168-19.2 41.386667-43.434667 54.613333-72.746667 13.226667-29.312 23.04-64.853333 29.312-106.538667 6.314667-41.728 12.074667-91.605333 17.237333-149.632z m-270.293334-272.554666c44.928 0.384 85.546667 4.864 121.813334 13.44 36.266667 8.618667 67.413333 18.645333 93.397333 30.08 25.941333 11.477333 46.037333 22.656 60.16 33.664 14.165333 10.965333 21.205333 18.858667 21.162667 23.637333 0.042667 8.362667-5.674667 18.048-17.194667 29.098667-11.52 11.093333-29.44 21.333333-53.76 30.762666-24.32 9.472-54.997333 17.493333-92.032 24.106667-36.992 6.613333-80.896 9.898667-131.712 9.856-51.498667-0.384-95.744-4.266667-132.821333-11.690667-37.034667-7.424-67.712-16.213333-92.074667-26.496-24.32-10.24-42.325333-20.736-53.973333-31.445333-11.690667-10.666667-17.706667-19.84-18.090667-27.477333 0.256-4.266667 7.381333-11.776 21.333333-22.528 14.037333-10.794667 33.92-21.76 59.733334-32.938667 25.813333-11.178667 56.832-21.12 93.056-29.866667 36.266667-8.704 76.586667-12.8 121.002666-12.202666z"  horiz-adv-x="1024" />

    


  </font>
</defs>
</svg>
